G04 #@! TF.FileFunction,Soldermask,Top*
%FSLAX46Y46*%
G04 Gerber Fmt 4.6, Leading zero omitted, Abs format (unit mm)*
G04 Created by KiCad (PCBNEW 4.0.1-stable) date 2018/06/12 22:38:54*
%MOMM*%
G01*
G04 APERTURE LIST*
%ADD10C,0.100000*%
%ADD11R,2.600000X2.600000*%
%ADD12O,2.600000X2.600000*%
%ADD13C,2.686000*%
%ADD14C,4.387800*%
%ADD15C,2.101800*%
%ADD16C,1.600000*%
%ADD17R,1.600000X1.600000*%
%ADD18C,2.400000*%
%ADD19R,2.200000X2.200000*%
%ADD20C,2.200000*%
%ADD21C,2.000000*%
%ADD22O,2.000000X2.000000*%
G04 APERTURE END LIST*
D10*
D11*
X40800000Y-74000000D03*
D12*
X40800000Y-66380000D03*
D11*
X59500000Y-74000000D03*
D12*
X59500000Y-66380000D03*
D11*
X78600000Y-74000000D03*
D12*
X78600000Y-66380000D03*
D11*
X97500000Y-74000000D03*
D12*
X97500000Y-66380000D03*
D11*
X116600000Y-74000000D03*
D12*
X116600000Y-66380000D03*
D11*
X135800000Y-74000000D03*
D12*
X135800000Y-66380000D03*
D11*
X40800000Y-93000000D03*
D12*
X40800000Y-85380000D03*
D11*
X59800000Y-93000000D03*
D12*
X59800000Y-85380000D03*
D11*
X78500000Y-93000000D03*
D12*
X78500000Y-85380000D03*
D11*
X97800000Y-93000000D03*
D12*
X97800000Y-85380000D03*
D11*
X116700000Y-93000000D03*
D12*
X116700000Y-85380000D03*
D11*
X135500000Y-93000000D03*
D12*
X135500000Y-85380000D03*
D11*
X40500000Y-112000000D03*
D12*
X40500000Y-104380000D03*
D11*
X59700000Y-112000000D03*
D12*
X59700000Y-104380000D03*
D11*
X78500000Y-112000000D03*
D12*
X78500000Y-104380000D03*
D11*
X97400000Y-112000000D03*
D12*
X97400000Y-104380000D03*
D11*
X116500000Y-112000000D03*
D12*
X116500000Y-104380000D03*
D11*
X135500000Y-112000000D03*
D12*
X135500000Y-104380000D03*
D11*
X40600000Y-131100000D03*
D12*
X40600000Y-123480000D03*
D11*
X66400000Y-131100000D03*
D12*
X66400000Y-123480000D03*
D11*
X88400000Y-131100000D03*
D12*
X88400000Y-123480000D03*
D13*
X52540000Y-63920000D03*
X46190000Y-66460000D03*
D14*
X50000000Y-69000000D03*
D15*
X44920000Y-69000000D03*
X55080000Y-69000000D03*
D13*
X71540000Y-63920000D03*
X65190000Y-66460000D03*
D14*
X69000000Y-69000000D03*
D15*
X63920000Y-69000000D03*
X74080000Y-69000000D03*
D13*
X90540000Y-63920000D03*
X84190000Y-66460000D03*
D14*
X88000000Y-69000000D03*
D15*
X82920000Y-69000000D03*
X93080000Y-69000000D03*
D13*
X109540000Y-63920000D03*
X103190000Y-66460000D03*
D14*
X107000000Y-69000000D03*
D15*
X101920000Y-69000000D03*
X112080000Y-69000000D03*
D13*
X128540000Y-63920000D03*
X122190000Y-66460000D03*
D14*
X126000000Y-69000000D03*
D15*
X120920000Y-69000000D03*
X131080000Y-69000000D03*
D13*
X147540000Y-63920000D03*
X141190000Y-66460000D03*
D14*
X145000000Y-69000000D03*
D15*
X139920000Y-69000000D03*
X150080000Y-69000000D03*
D13*
X52540000Y-82920000D03*
X46190000Y-85460000D03*
D14*
X50000000Y-88000000D03*
D15*
X44920000Y-88000000D03*
X55080000Y-88000000D03*
D13*
X71540000Y-82920000D03*
X65190000Y-85460000D03*
D14*
X69000000Y-88000000D03*
D15*
X63920000Y-88000000D03*
X74080000Y-88000000D03*
D13*
X90540000Y-82920000D03*
X84190000Y-85460000D03*
D14*
X88000000Y-88000000D03*
D15*
X82920000Y-88000000D03*
X93080000Y-88000000D03*
D13*
X109540000Y-82920000D03*
X103190000Y-85460000D03*
D14*
X107000000Y-88000000D03*
D15*
X101920000Y-88000000D03*
X112080000Y-88000000D03*
D13*
X128540000Y-82920000D03*
X122190000Y-85460000D03*
D14*
X126000000Y-88000000D03*
D15*
X120920000Y-88000000D03*
X131080000Y-88000000D03*
D13*
X147540000Y-82920000D03*
X141190000Y-85460000D03*
D14*
X145000000Y-88000000D03*
D15*
X139920000Y-88000000D03*
X150080000Y-88000000D03*
D13*
X52540000Y-101920000D03*
X46190000Y-104460000D03*
D14*
X50000000Y-107000000D03*
D15*
X44920000Y-107000000D03*
X55080000Y-107000000D03*
D13*
X71540000Y-101920000D03*
X65190000Y-104460000D03*
D14*
X69000000Y-107000000D03*
D15*
X63920000Y-107000000D03*
X74080000Y-107000000D03*
D13*
X90540000Y-101920000D03*
X84190000Y-104460000D03*
D14*
X88000000Y-107000000D03*
D15*
X82920000Y-107000000D03*
X93080000Y-107000000D03*
D13*
X109540000Y-101920000D03*
X103190000Y-104460000D03*
D14*
X107000000Y-107000000D03*
D15*
X101920000Y-107000000D03*
X112080000Y-107000000D03*
D13*
X128540000Y-101920000D03*
X122190000Y-104460000D03*
D14*
X126000000Y-107000000D03*
D15*
X120920000Y-107000000D03*
X131080000Y-107000000D03*
D13*
X147540000Y-101920000D03*
X141190000Y-104460000D03*
D14*
X145000000Y-107000000D03*
D15*
X139920000Y-107000000D03*
X150080000Y-107000000D03*
D13*
X54915000Y-120920000D03*
X48565000Y-123460000D03*
X78665000Y-120920000D03*
X72315000Y-123460000D03*
D16*
X109800000Y-22754000D03*
X112340000Y-22754000D03*
X114880000Y-22754000D03*
X117420000Y-22754000D03*
X119960000Y-22754000D03*
X122500000Y-22754000D03*
X125040000Y-22754000D03*
X127580000Y-22754000D03*
X130120000Y-22754000D03*
X132660000Y-22754000D03*
X135200000Y-22754000D03*
X137740000Y-22754000D03*
X140280000Y-22754000D03*
X142820000Y-22754000D03*
X145360000Y-22754000D03*
X147900000Y-22754000D03*
X150440000Y-22754000D03*
D17*
X109800000Y-38246000D03*
D16*
X112340000Y-38246000D03*
X114880000Y-38246000D03*
X117420000Y-38246000D03*
X119960000Y-38246000D03*
X122500000Y-38246000D03*
X125040000Y-38246000D03*
X127580000Y-38246000D03*
X130120000Y-38246000D03*
X132660000Y-38246000D03*
X135200000Y-38246000D03*
X137740000Y-38246000D03*
X140280000Y-38246000D03*
X142820000Y-38246000D03*
X145360000Y-38246000D03*
X147900000Y-38246000D03*
X150440000Y-38246000D03*
D11*
X40400000Y-55000000D03*
D12*
X40400000Y-47380000D03*
D11*
X60000000Y-55000000D03*
D12*
X60000000Y-47380000D03*
D11*
X78600000Y-55000000D03*
D12*
X78600000Y-47380000D03*
D11*
X97600000Y-55000000D03*
D12*
X97600000Y-47380000D03*
D11*
X116600000Y-55000000D03*
D12*
X116600000Y-47380000D03*
D11*
X135900000Y-55000000D03*
D12*
X135900000Y-47380000D03*
D11*
X109500000Y-131000000D03*
D12*
X109500000Y-123380000D03*
D11*
X133100000Y-131000000D03*
D12*
X133100000Y-123380000D03*
D18*
X82600000Y-25100000D03*
X82600000Y-28100000D03*
X78400000Y-33600000D03*
X82600000Y-32100000D03*
X94000000Y-25100000D03*
X94000000Y-28100000D03*
X89800000Y-33600000D03*
X94000000Y-32100000D03*
D13*
X52540000Y-44920000D03*
X46190000Y-47460000D03*
D14*
X50000000Y-50000000D03*
D15*
X44920000Y-50000000D03*
X55080000Y-50000000D03*
D13*
X71540000Y-44920000D03*
X65190000Y-47460000D03*
D14*
X69000000Y-50000000D03*
D15*
X63920000Y-50000000D03*
X74080000Y-50000000D03*
D13*
X90540000Y-44920000D03*
X84190000Y-47460000D03*
D14*
X88000000Y-50000000D03*
D15*
X82920000Y-50000000D03*
X93080000Y-50000000D03*
D13*
X109540000Y-44920000D03*
X103190000Y-47460000D03*
D14*
X107000000Y-50000000D03*
D15*
X101920000Y-50000000D03*
X112080000Y-50000000D03*
D13*
X128540000Y-44920000D03*
X122190000Y-47460000D03*
D14*
X126000000Y-50000000D03*
D15*
X120920000Y-50000000D03*
X131080000Y-50000000D03*
D13*
X147540000Y-44920000D03*
X141190000Y-47460000D03*
D14*
X145000000Y-50000000D03*
D15*
X139920000Y-50000000D03*
X150080000Y-50000000D03*
D13*
X100040000Y-120920000D03*
X93690000Y-123460000D03*
D14*
X97500000Y-126000000D03*
D15*
X92420000Y-126000000D03*
X102580000Y-126000000D03*
D13*
X121415000Y-120920000D03*
X115065000Y-123460000D03*
X145165000Y-120920000D03*
X138815000Y-123460000D03*
D19*
X60300000Y-24800000D03*
D20*
X60300000Y-27340000D03*
D19*
X52200000Y-24800000D03*
D20*
X52200000Y-27340000D03*
D19*
X44000000Y-24900000D03*
D20*
X44000000Y-27440000D03*
D21*
X60300000Y-38000000D03*
D22*
X60300000Y-30380000D03*
D21*
X52200000Y-38000000D03*
D22*
X52200000Y-30380000D03*
D21*
X44000000Y-38100000D03*
D22*
X44000000Y-30480000D03*
M02*
