M48
;DRILL file {KiCad 4.0.1-stable} date 2018/06/12 22:39:03
;FORMAT={3:3/ absolute / metric / suppress leading zeros}
FMAT,2
METRIC,TZ
T1C0.800
T2C0.900
T3C1.100
T4C1.499
T5C1.500
T6C1.702
T7C3.988
T8C1.702
T9C3.988
%
G90
G05
M71
T1
X44000Y-30480
X44000Y-38100
X52200Y-30380
X52200Y-38000
X60300Y-30380
X60300Y-38000
X109800Y-22754
X109800Y-38246
X112340Y-22754
X112340Y-38246
X114880Y-22754
X114880Y-38246
X117420Y-22754
X117420Y-38246
X119960Y-22754
X119960Y-38246
X122500Y-22754
X122500Y-38246
X125040Y-22754
X125040Y-38246
X127580Y-22754
X127580Y-38246
X130120Y-22754
X130120Y-38246
X132660Y-22754
X132660Y-38246
X135200Y-22754
X135200Y-38246
X137740Y-22754
X137740Y-38246
X140280Y-22754
X140280Y-38246
X142820Y-22754
X142820Y-38246
X145360Y-22754
X145360Y-38246
X147900Y-22754
X147900Y-38246
X150440Y-22754
X150440Y-38246
T2
X44000Y-24900
X44000Y-27440
X52200Y-24800
X52200Y-27340
X60300Y-24800
X60300Y-27340
T3
X40400Y-47380
X40400Y-55000
X40500Y-104380
X40500Y-112000
X40600Y-123480
X40600Y-131100
X40800Y-66380
X40800Y-74000
X40800Y-85380
X40800Y-93000
X59500Y-66380
X59500Y-74000
X59700Y-104380
X59700Y-112000
X59800Y-85380
X59800Y-93000
X60000Y-47380
X60000Y-55000
X66400Y-123480
X66400Y-131100
X78500Y-85380
X78500Y-93000
X78500Y-104380
X78500Y-112000
X78600Y-47380
X78600Y-55000
X78600Y-66380
X78600Y-74000
X88400Y-123480
X88400Y-131100
X97400Y-104380
X97400Y-112000
X97500Y-66380
X97500Y-74000
X97600Y-47380
X97600Y-55000
X97800Y-85380
X97800Y-93000
X109500Y-123380
X109500Y-131000
X116500Y-104380
X116500Y-112000
X116600Y-47380
X116600Y-55000
X116600Y-66380
X116600Y-74000
X116700Y-85380
X116700Y-93000
X133100Y-123380
X133100Y-131000
X135500Y-85380
X135500Y-93000
X135500Y-104380
X135500Y-112000
X135800Y-66380
X135800Y-74000
X135900Y-47380
X135900Y-55000
T4
X46190Y-47460
X46190Y-66460
X46190Y-85460
X46190Y-104460
X48565Y-123460
X52540Y-44920
X52540Y-63920
X52540Y-82920
X52540Y-101920
X54915Y-120920
X65190Y-47460
X65190Y-66460
X65190Y-85460
X65190Y-104460
X71540Y-44920
X71540Y-63920
X71540Y-82920
X71540Y-101920
X72315Y-123460
X78665Y-120920
X84190Y-47460
X84190Y-66460
X84190Y-85460
X84190Y-104460
X90540Y-44920
X90540Y-63920
X90540Y-82920
X90540Y-101920
X93690Y-123460
X100040Y-120920
X103190Y-47460
X103190Y-66460
X103190Y-85460
X103190Y-104460
X109540Y-44920
X109540Y-63920
X109540Y-82920
X109540Y-101920
X115065Y-123460
X121415Y-120920
X122190Y-47460
X122190Y-66460
X122190Y-85460
X122190Y-104460
X128540Y-44920
X128540Y-63920
X128540Y-82920
X128540Y-101920
X138815Y-123460
X141190Y-47460
X141190Y-66460
X141190Y-85460
X141190Y-104460
X145165Y-120920
X147540Y-44920
X147540Y-63920
X147540Y-82920
X147540Y-101920
T5
X78400Y-33600
X82600Y-25100
X82600Y-28100
X82600Y-32100
X89800Y-33600
X94000Y-25100
X94000Y-28100
X94000Y-32100
T6
X44920Y-50000
X44920Y-69000
X44920Y-88000
X44920Y-107000
X55080Y-50000
X55080Y-69000
X55080Y-88000
X55080Y-107000
X63920Y-50000
X63920Y-69000
X63920Y-88000
X63920Y-107000
X74080Y-50000
X74080Y-69000
X74080Y-88000
X74080Y-107000
X82920Y-50000
X82920Y-69000
X82920Y-88000
X82920Y-107000
X92420Y-126000
X93080Y-50000
X93080Y-69000
X93080Y-88000
X93080Y-107000
X101920Y-50000
X101920Y-69000
X101920Y-88000
X101920Y-107000
X102580Y-126000
X112080Y-50000
X112080Y-69000
X112080Y-88000
X112080Y-107000
X120920Y-50000
X120920Y-69000
X120920Y-88000
X120920Y-107000
X131080Y-50000
X131080Y-69000
X131080Y-88000
X131080Y-107000
X139920Y-50000
X139920Y-69000
X139920Y-88000
X139920Y-107000
X150080Y-50000
X150080Y-69000
X150080Y-88000
X150080Y-107000
T7
X50000Y-50000
X50000Y-69000
X50000Y-88000
X50000Y-107000
X69000Y-50000
X69000Y-69000
X69000Y-88000
X69000Y-107000
X88000Y-50000
X88000Y-69000
X88000Y-88000
X88000Y-107000
X97500Y-126000
X107000Y-50000
X107000Y-69000
X107000Y-88000
X107000Y-107000
X126000Y-50000
X126000Y-69000
X126000Y-88000
X126000Y-107000
X145000Y-50000
X145000Y-69000
X145000Y-88000
X145000Y-107000
T8
X47295Y-126000
X57455Y-126000
X71045Y-126000
X81205Y-126000
X113795Y-126000
X123955Y-126000
X137545Y-126000
X147705Y-126000
T9
X52375Y-126000
X76125Y-126000
X118875Y-126000
X142625Y-126000
T0
M30
