  0
SECTION
  2
HEADER
  9
$ANGBASE
  50
0.0
  9
$ANGDIR
  70
  1
  9
$MEASUREMENT
  70
0
  0
ENDSEC
  0
SECTION
  2
TABLES
  0
TABLE
  2
LTYPE
  70
1
  0
LTYPE
  2
CONTINUOUS
  70
0
  3
Solid line
  72
65
  73
0
  40
0.0
  0
ENDTAB
  0
TABLE
  2
STYLE
  70
4
  0
STYLE
  2
KICAD
  70
0
  40
0
  41
1
  42
1
  50
0
  71
0
  3
isocp.shx
  0
STYLE
  2
KICADB
  70
0
  40
0
  41
1
  42
1
  50
0
  71
0
  3
isocp.shx
  0
STYLE
  2
KICADI
  70
0
  40
0
  41
1
  42
1
  50
15
  71
0
  3
isocp.shx
  0
STYLE
  2
KICADBI
  70
0
  40
0
  41
1
  42
1
  50
15
  71
0
  3
isocp.shx
  0
ENDTAB
  0
TABLE
  2
LAYER
  70
30
  0
LAYER
  2
BLACK
  70
0
  62
7
  6
CONTINUOUS
  0
LAYER
  2
GRAY1
  70
0
  62
251
  6
CONTINUOUS
  0
LAYER
  2
GRAY2
  70
0
  62
8
  6
CONTINUOUS
  0
LAYER
  2
GRAY3
  70
0
  62
9
  6
CONTINUOUS
  0
LAYER
  2
WHITE
  70
0
  62
7
  6
CONTINUOUS
  0
LAYER
  2
LYELLOW
  70
0
  62
51
  6
CONTINUOUS
  0
LAYER
  2
BLUE1
  70
0
  62
178
  6
CONTINUOUS
  0
LAYER
  2
GREEN1
  70
0
  62
98
  6
CONTINUOUS
  0
LAYER
  2
CYAN1
  70
0
  62
138
  6
CONTINUOUS
  0
LAYER
  2
RED1
  70
0
  62
18
  6
CONTINUOUS
  0
LAYER
  2
MAGENTA1
  70
0
  62
228
  6
CONTINUOUS
  0
LAYER
  2
BROWN1
  70
0
  62
58
  6
CONTINUOUS
  0
LAYER
  2
BLUE2
  70
0
  62
5
  6
CONTINUOUS
  0
LAYER
  2
GREEN2
  70
0
  62
3
  6
CONTINUOUS
  0
LAYER
  2
CYAN2
  70
0
  62
4
  6
CONTINUOUS
  0
LAYER
  2
RED2
  70
0
  62
1
  6
CONTINUOUS
  0
LAYER
  2
MAGENTA2
  70
0
  62
6
  6
CONTINUOUS
  0
LAYER
  2
BROWN2
  70
0
  62
54
  6
CONTINUOUS
  0
LAYER
  2
BLUE3
  70
0
  62
171
  6
CONTINUOUS
  0
LAYER
  2
GREEN3
  70
0
  62
91
  6
CONTINUOUS
  0
LAYER
  2
CYAN3
  70
0
  62
131
  6
CONTINUOUS
  0
LAYER
  2
RED3
  70
0
  62
11
  6
CONTINUOUS
  0
LAYER
  2
MAGENTA3
  70
0
  62
221
  6
CONTINUOUS
  0
LAYER
  2
YELLOW3
  70
0
  62
2
  6
CONTINUOUS
  0
LAYER
  2
BLUE4
  70
0
  62
5
  6
CONTINUOUS
  0
LAYER
  2
GREEN4
  70
0
  62
3
  6
CONTINUOUS
  0
LAYER
  2
CYAN4
  70
0
  62
4
  6
CONTINUOUS
  0
LAYER
  2
RED4
  70
0
  62
1
  6
CONTINUOUS
  0
LAYER
  2
MAGENTA4
  70
0
  62
6
  6
CONTINUOUS
  0
LAYER
  2
YELLOW4
  70
0
  62
2
  6
CONTINUOUS
  0
ENDTAB
  0
ENDSEC
  0
SECTION
  2
ENTITIES
0
LINE
8
Black
10
148.982
20
-119.575
11
148.988
21
-119.575
0
LINE
8
Black
10
148.988
20
-119.575
11
148.994
21
-119.577
0
LINE
8
Black
10
148.994
20
-119.577
11
149.001
21
-119.578
0
LINE
8
Black
10
149.001
20
-119.578
11
149.007
21
-119.582
0
LINE
8
Black
10
149.007
20
-119.582
11
149.013
21
-119.584
0
LINE
8
Black
10
149.013
20
-119.584
11
149.018
21
-119.588
0
LINE
8
Black
10
149.018
20
-119.588
11
149.024
21
-119.592
0
LINE
8
Black
10
149.024
20
-119.592
11
149.028
21
-119.597
0
LINE
8
Black
10
149.028
20
-119.597
11
149.033
21
-119.601
0
LINE
8
Black
10
149.033
20
-119.601
11
149.037
21
-119.607
0
LINE
8
Black
10
149.037
20
-119.607
11
149.041
21
-119.612
0
LINE
8
Black
10
149.041
20
-119.612
11
149.043
21
-119.618
0
LINE
8
Black
10
149.043
20
-119.618
11
149.047
21
-119.624
0
LINE
8
Black
10
149.047
20
-119.624
11
149.048
21
-119.631
0
LINE
8
Black
10
149.048
20
-119.631
11
149.05
21
-119.637
0
LINE
8
Black
10
149.05
20
-119.637
11
149.05
21
-119.643
0
LINE
8
Black
10
149.05
20
-119.643
11
149.051
21
-119.65
0
LINE
8
Black
10
149.051
20
-119.65
11
149.051
21
-132.35
0
LINE
8
Black
10
149.051
20
-132.35
11
149.05
21
-132.357
0
LINE
8
Black
10
149.05
20
-132.357
11
149.05
21
-132.363
0
LINE
8
Black
10
149.05
20
-132.363
11
149.048
21
-132.369
0
LINE
8
Black
10
149.048
20
-132.369
11
149.047
21
-132.376
0
LINE
8
Black
10
149.047
20
-132.376
11
149.043
21
-132.382
0
LINE
8
Black
10
149.043
20
-132.382
11
149.041
21
-132.388
0
LINE
8
Black
10
149.041
20
-132.388
11
149.037
21
-132.393
0
LINE
8
Black
10
149.037
20
-132.393
11
149.033
21
-132.399
0
LINE
8
Black
10
149.033
20
-132.399
11
149.028
21
-132.403
0
LINE
8
Black
10
149.028
20
-132.403
11
149.024
21
-132.408
0
LINE
8
Black
10
149.024
20
-132.408
11
149.018
21
-132.412
0
LINE
8
Black
10
149.018
20
-132.412
11
149.013
21
-132.416
0
LINE
8
Black
10
149.013
20
-132.416
11
149.007
21
-132.418
0
LINE
8
Black
10
149.007
20
-132.418
11
149.001
21
-132.422
0
LINE
8
Black
10
149.001
20
-132.422
11
148.994
21
-132.423
0
LINE
8
Black
10
148.994
20
-132.423
11
148.988
21
-132.425
0
LINE
8
Black
10
148.988
20
-132.425
11
148.982
21
-132.425
0
LINE
8
Black
10
148.982
20
-132.425
11
148.975
21
-132.426
0
LINE
8
Black
10
148.975
20
-132.426
11
136.275
21
-132.426
0
LINE
8
Black
10
136.275
20
-132.426
11
136.268
21
-132.425
0
LINE
8
Black
10
136.268
20
-132.425
11
136.262
21
-132.425
0
LINE
8
Black
10
136.262
20
-132.425
11
136.256
21
-132.423
0
LINE
8
Black
10
136.256
20
-132.423
11
136.249
21
-132.422
0
LINE
8
Black
10
136.249
20
-132.422
11
136.243
21
-132.418
0
LINE
8
Black
10
136.243
20
-132.418
11
136.237
21
-132.416
0
LINE
8
Black
10
136.237
20
-132.416
11
136.232
21
-132.412
0
LINE
8
Black
10
136.232
20
-132.412
11
136.226
21
-132.408
0
LINE
8
Black
10
136.226
20
-132.408
11
136.222
21
-132.403
0
LINE
8
Black
10
136.222
20
-132.403
11
136.217
21
-132.399
0
LINE
8
Black
10
136.217
20
-132.399
11
136.213
21
-132.393
0
LINE
8
Black
10
136.213
20
-132.393
11
136.209
21
-132.388
0
LINE
8
Black
10
136.209
20
-132.388
11
136.207
21
-132.382
0
LINE
8
Black
10
136.207
20
-132.382
11
136.203
21
-132.376
0
LINE
8
Black
10
136.203
20
-132.376
11
136.202
21
-132.369
0
LINE
8
Black
10
136.202
20
-132.369
11
136.2
21
-132.363
0
LINE
8
Black
10
136.2
20
-132.363
11
136.2
21
-132.357
0
LINE
8
Black
10
136.2
20
-132.357
11
136.199
21
-132.35
0
LINE
8
Black
10
136.199
20
-132.35
11
136.199
21
-119.65
0
LINE
8
Black
10
136.199
20
-119.65
11
136.2
21
-119.643
0
LINE
8
Black
10
136.2
20
-119.643
11
136.2
21
-119.637
0
LINE
8
Black
10
136.2
20
-119.637
11
136.202
21
-119.631
0
LINE
8
Black
10
136.202
20
-119.631
11
136.203
21
-119.624
0
LINE
8
Black
10
136.203
20
-119.624
11
136.207
21
-119.618
0
LINE
8
Black
10
136.207
20
-119.618
11
136.209
21
-119.612
0
LINE
8
Black
10
136.209
20
-119.612
11
136.213
21
-119.607
0
LINE
8
Black
10
136.213
20
-119.607
11
136.217
21
-119.601
0
LINE
8
Black
10
136.217
20
-119.601
11
136.222
21
-119.597
0
LINE
8
Black
10
136.222
20
-119.597
11
136.226
21
-119.592
0
LINE
8
Black
10
136.226
20
-119.592
11
136.232
21
-119.588
0
LINE
8
Black
10
136.232
20
-119.588
11
136.237
21
-119.584
0
LINE
8
Black
10
136.237
20
-119.584
11
136.243
21
-119.582
0
LINE
8
Black
10
136.243
20
-119.582
11
136.249
21
-119.578
0
LINE
8
Black
10
136.249
20
-119.578
11
136.256
21
-119.577
0
LINE
8
Black
10
136.256
20
-119.577
11
136.262
21
-119.575
0
LINE
8
Black
10
136.262
20
-119.575
11
136.268
21
-119.575
0
LINE
8
Black
10
136.268
20
-119.575
11
136.275
21
-119.574
0
LINE
8
Black
10
136.275
20
-119.574
11
148.975
21
-119.574
0
LINE
8
Black
10
148.975
20
-119.574
11
148.982
21
-119.575
0
LINE
8
Black
10
136.351
20
-119.726
11
136.351
21
-132.274
0
LINE
8
Black
10
136.351
20
-132.274
11
148.899
21
-132.274
0
LINE
8
Black
10
148.899
20
-132.274
11
148.899
21
-119.726
0
LINE
8
Black
10
148.899
20
-119.726
11
136.351
21
-119.726
0
LINE
8
Black
10
58.7316
20
-119.575
11
58.7382
21
-119.575
0
LINE
8
Black
10
58.7382
20
-119.575
11
58.7445
21
-119.577
0
LINE
8
Black
10
58.7445
20
-119.577
11
58.7511
21
-119.578
0
LINE
8
Black
10
58.7511
20
-119.578
11
58.7568
21
-119.582
0
LINE
8
Black
10
58.7568
20
-119.582
11
58.7631
21
-119.584
0
LINE
8
Black
10
58.7631
20
-119.584
11
58.7682
21
-119.588
0
LINE
8
Black
10
58.7682
20
-119.588
11
58.774
21
-119.592
0
LINE
8
Black
10
58.774
20
-119.592
11
58.7783
21
-119.597
0
LINE
8
Black
10
58.7783
20
-119.597
11
58.7834
21
-119.601
0
LINE
8
Black
10
58.7834
20
-119.601
11
58.7867
21
-119.607
0
LINE
8
Black
10
58.7867
20
-119.607
11
58.791
21
-119.612
0
LINE
8
Black
10
58.791
20
-119.612
11
58.7933
21
-119.618
0
LINE
8
Black
10
58.7933
20
-119.618
11
58.7966
21
-119.624
0
LINE
8
Black
10
58.7966
20
-119.624
11
58.7978
21
-119.631
0
LINE
8
Black
10
58.7978
20
-119.631
11
58.8
21
-119.637
0
LINE
8
Black
10
58.8
20
-119.637
11
58.8
21
-119.643
0
LINE
8
Black
10
58.8
20
-119.643
11
58.8012
21
-119.65
0
LINE
8
Black
10
58.8012
20
-119.65
11
58.8012
21
-132.35
0
LINE
8
Black
10
58.8012
20
-132.35
11
58.8
21
-132.357
0
LINE
8
Black
10
58.8
20
-132.357
11
58.8
21
-132.363
0
LINE
8
Black
10
58.8
20
-132.363
11
58.7978
21
-132.369
0
LINE
8
Black
10
58.7978
20
-132.369
11
58.7966
21
-132.376
0
LINE
8
Black
10
58.7966
20
-132.376
11
58.7933
21
-132.382
0
LINE
8
Black
10
58.7933
20
-132.382
11
58.791
21
-132.388
0
LINE
8
Black
10
58.791
20
-132.388
11
58.7867
21
-132.393
0
LINE
8
Black
10
58.7867
20
-132.393
11
58.7834
21
-132.399
0
LINE
8
Black
10
58.7834
20
-132.399
11
58.7783
21
-132.403
0
LINE
8
Black
10
58.7783
20
-132.403
11
58.774
21
-132.408
0
LINE
8
Black
10
58.774
20
-132.408
11
58.7682
21
-132.412
0
LINE
8
Black
10
58.7682
20
-132.412
11
58.7631
21
-132.416
0
LINE
8
Black
10
58.7631
20
-132.416
11
58.7568
21
-132.418
0
LINE
8
Black
10
58.7568
20
-132.418
11
58.7511
21
-132.422
0
LINE
8
Black
10
58.7511
20
-132.422
11
58.7445
21
-132.423
0
LINE
8
Black
10
58.7445
20
-132.423
11
58.7382
21
-132.425
0
LINE
8
Black
10
58.7382
20
-132.425
11
58.7316
21
-132.425
0
LINE
8
Black
10
58.7316
20
-132.425
11
58.725
21
-132.426
0
LINE
8
Black
10
58.725
20
-132.426
11
46.025
21
-132.426
0
LINE
8
Black
10
46.025
20
-132.426
11
46.0184
21
-132.425
0
LINE
8
Black
10
46.0184
20
-132.425
11
46.0118
21
-132.425
0
LINE
8
Black
10
46.0118
20
-132.425
11
46.0055
21
-132.423
0
LINE
8
Black
10
46.0055
20
-132.423
11
45.9989
21
-132.422
0
LINE
8
Black
10
45.9989
20
-132.422
11
45.9932
21
-132.418
0
LINE
8
Black
10
45.9932
20
-132.418
11
45.9869
21
-132.416
0
LINE
8
Black
10
45.9869
20
-132.416
11
45.9818
21
-132.412
0
LINE
8
Black
10
45.9818
20
-132.412
11
45.976
21
-132.408
0
LINE
8
Black
10
45.976
20
-132.408
11
45.9717
21
-132.403
0
LINE
8
Black
10
45.9717
20
-132.403
11
45.9666
21
-132.399
0
LINE
8
Black
10
45.9666
20
-132.399
11
45.9633
21
-132.393
0
LINE
8
Black
10
45.9633
20
-132.393
11
45.959
21
-132.388
0
LINE
8
Black
10
45.959
20
-132.388
11
45.9567
21
-132.382
0
LINE
8
Black
10
45.9567
20
-132.382
11
45.9534
21
-132.376
0
LINE
8
Black
10
45.9534
20
-132.376
11
45.9522
21
-132.369
0
LINE
8
Black
10
45.9522
20
-132.369
11
45.95
21
-132.363
0
LINE
8
Black
10
45.95
20
-132.363
11
45.95
21
-132.357
0
LINE
8
Black
10
45.95
20
-132.357
11
45.9488
21
-132.35
0
LINE
8
Black
10
45.9488
20
-132.35
11
45.9488
21
-119.65
0
LINE
8
Black
10
45.9488
20
-119.65
11
45.95
21
-119.643
0
LINE
8
Black
10
45.95
20
-119.643
11
45.95
21
-119.637
0
LINE
8
Black
10
45.95
20
-119.637
11
45.9522
21
-119.631
0
LINE
8
Black
10
45.9522
20
-119.631
11
45.9534
21
-119.624
0
LINE
8
Black
10
45.9534
20
-119.624
11
45.9567
21
-119.618
0
LINE
8
Black
10
45.9567
20
-119.618
11
45.959
21
-119.612
0
LINE
8
Black
10
45.959
20
-119.612
11
45.9633
21
-119.607
0
LINE
8
Black
10
45.9633
20
-119.607
11
45.9666
21
-119.601
0
LINE
8
Black
10
45.9666
20
-119.601
11
45.9717
21
-119.597
0
LINE
8
Black
10
45.9717
20
-119.597
11
45.976
21
-119.592
0
LINE
8
Black
10
45.976
20
-119.592
11
45.9818
21
-119.588
0
LINE
8
Black
10
45.9818
20
-119.588
11
45.9869
21
-119.584
0
LINE
8
Black
10
45.9869
20
-119.584
11
45.9932
21
-119.582
0
LINE
8
Black
10
45.9932
20
-119.582
11
45.9989
21
-119.578
0
LINE
8
Black
10
45.9989
20
-119.578
11
46.0055
21
-119.577
0
LINE
8
Black
10
46.0055
20
-119.577
11
46.0118
21
-119.575
0
LINE
8
Black
10
46.0118
20
-119.575
11
46.0184
21
-119.575
0
LINE
8
Black
10
46.0184
20
-119.575
11
46.025
21
-119.574
0
LINE
8
Black
10
46.025
20
-119.574
11
58.725
21
-119.574
0
LINE
8
Black
10
58.725
20
-119.574
11
58.7316
21
-119.575
0
LINE
8
Black
10
46.1012
20
-119.726
11
46.1012
21
-132.274
0
LINE
8
Black
10
46.1012
20
-132.274
11
58.6488
21
-132.274
0
LINE
8
Black
10
58.6488
20
-132.274
11
58.6488
21
-119.726
0
LINE
8
Black
10
58.6488
20
-119.726
11
46.1012
21
-119.726
0
LINE
8
Black
10
125.232
20
-119.575
11
125.238
21
-119.575
0
LINE
8
Black
10
125.238
20
-119.575
11
125.244
21
-119.577
0
LINE
8
Black
10
125.244
20
-119.577
11
125.251
21
-119.578
0
LINE
8
Black
10
125.251
20
-119.578
11
125.257
21
-119.582
0
LINE
8
Black
10
125.257
20
-119.582
11
125.263
21
-119.584
0
LINE
8
Black
10
125.263
20
-119.584
11
125.268
21
-119.588
0
LINE
8
Black
10
125.268
20
-119.588
11
125.274
21
-119.592
0
LINE
8
Black
10
125.274
20
-119.592
11
125.278
21
-119.597
0
LINE
8
Black
10
125.278
20
-119.597
11
125.283
21
-119.601
0
LINE
8
Black
10
125.283
20
-119.601
11
125.287
21
-119.607
0
LINE
8
Black
10
125.287
20
-119.607
11
125.291
21
-119.612
0
LINE
8
Black
10
125.291
20
-119.612
11
125.293
21
-119.618
0
LINE
8
Black
10
125.293
20
-119.618
11
125.297
21
-119.624
0
LINE
8
Black
10
125.297
20
-119.624
11
125.298
21
-119.631
0
LINE
8
Black
10
125.298
20
-119.631
11
125.3
21
-119.637
0
LINE
8
Black
10
125.3
20
-119.637
11
125.3
21
-119.643
0
LINE
8
Black
10
125.3
20
-119.643
11
125.301
21
-119.65
0
LINE
8
Black
10
125.301
20
-119.65
11
125.301
21
-132.35
0
LINE
8
Black
10
125.301
20
-132.35
11
125.3
21
-132.357
0
LINE
8
Black
10
125.3
20
-132.357
11
125.3
21
-132.363
0
LINE
8
Black
10
125.3
20
-132.363
11
125.298
21
-132.369
0
LINE
8
Black
10
125.298
20
-132.369
11
125.297
21
-132.376
0
LINE
8
Black
10
125.297
20
-132.376
11
125.293
21
-132.382
0
LINE
8
Black
10
125.293
20
-132.382
11
125.291
21
-132.388
0
LINE
8
Black
10
125.291
20
-132.388
11
125.287
21
-132.393
0
LINE
8
Black
10
125.287
20
-132.393
11
125.283
21
-132.399
0
LINE
8
Black
10
125.283
20
-132.399
11
125.278
21
-132.403
0
LINE
8
Black
10
125.278
20
-132.403
11
125.274
21
-132.408
0
LINE
8
Black
10
125.274
20
-132.408
11
125.268
21
-132.412
0
LINE
8
Black
10
125.268
20
-132.412
11
125.263
21
-132.416
0
LINE
8
Black
10
125.263
20
-132.416
11
125.257
21
-132.418
0
LINE
8
Black
10
125.257
20
-132.418
11
125.251
21
-132.422
0
LINE
8
Black
10
125.251
20
-132.422
11
125.244
21
-132.423
0
LINE
8
Black
10
125.244
20
-132.423
11
125.238
21
-132.425
0
LINE
8
Black
10
125.238
20
-132.425
11
125.232
21
-132.425
0
LINE
8
Black
10
125.232
20
-132.425
11
125.225
21
-132.426
0
LINE
8
Black
10
125.225
20
-132.426
11
112.525
21
-132.426
0
LINE
8
Black
10
112.525
20
-132.426
11
112.518
21
-132.425
0
LINE
8
Black
10
112.518
20
-132.425
11
112.512
21
-132.425
0
LINE
8
Black
10
112.512
20
-132.425
11
112.506
21
-132.423
0
LINE
8
Black
10
112.506
20
-132.423
11
112.499
21
-132.422
0
LINE
8
Black
10
112.499
20
-132.422
11
112.493
21
-132.418
0
LINE
8
Black
10
112.493
20
-132.418
11
112.487
21
-132.416
0
LINE
8
Black
10
112.487
20
-132.416
11
112.482
21
-132.412
0
LINE
8
Black
10
112.482
20
-132.412
11
112.476
21
-132.408
0
LINE
8
Black
10
112.476
20
-132.408
11
112.472
21
-132.403
0
LINE
8
Black
10
112.472
20
-132.403
11
112.467
21
-132.399
0
LINE
8
Black
10
112.467
20
-132.399
11
112.463
21
-132.393
0
LINE
8
Black
10
112.463
20
-132.393
11
112.459
21
-132.388
0
LINE
8
Black
10
112.459
20
-132.388
11
112.457
21
-132.382
0
LINE
8
Black
10
112.457
20
-132.382
11
112.453
21
-132.376
0
LINE
8
Black
10
112.453
20
-132.376
11
112.452
21
-132.369
0
LINE
8
Black
10
112.452
20
-132.369
11
112.45
21
-132.363
0
LINE
8
Black
10
112.45
20
-132.363
11
112.45
21
-132.357
0
LINE
8
Black
10
112.45
20
-132.357
11
112.449
21
-132.35
0
LINE
8
Black
10
112.449
20
-132.35
11
112.449
21
-119.65
0
LINE
8
Black
10
112.449
20
-119.65
11
112.45
21
-119.643
0
LINE
8
Black
10
112.45
20
-119.643
11
112.45
21
-119.637
0
LINE
8
Black
10
112.45
20
-119.637
11
112.452
21
-119.631
0
LINE
8
Black
10
112.452
20
-119.631
11
112.453
21
-119.624
0
LINE
8
Black
10
112.453
20
-119.624
11
112.457
21
-119.618
0
LINE
8
Black
10
112.457
20
-119.618
11
112.459
21
-119.612
0
LINE
8
Black
10
112.459
20
-119.612
11
112.463
21
-119.607
0
LINE
8
Black
10
112.463
20
-119.607
11
112.467
21
-119.601
0
LINE
8
Black
10
112.467
20
-119.601
11
112.472
21
-119.597
0
LINE
8
Black
10
112.472
20
-119.597
11
112.476
21
-119.592
0
LINE
8
Black
10
112.476
20
-119.592
11
112.482
21
-119.588
0
LINE
8
Black
10
112.482
20
-119.588
11
112.487
21
-119.584
0
LINE
8
Black
10
112.487
20
-119.584
11
112.493
21
-119.582
0
LINE
8
Black
10
112.493
20
-119.582
11
112.499
21
-119.578
0
LINE
8
Black
10
112.499
20
-119.578
11
112.506
21
-119.577
0
LINE
8
Black
10
112.506
20
-119.577
11
112.512
21
-119.575
0
LINE
8
Black
10
112.512
20
-119.575
11
112.518
21
-119.575
0
LINE
8
Black
10
112.518
20
-119.575
11
112.525
21
-119.574
0
LINE
8
Black
10
112.525
20
-119.574
11
125.225
21
-119.574
0
LINE
8
Black
10
125.225
20
-119.574
11
125.232
21
-119.575
0
LINE
8
Black
10
112.601
20
-119.726
11
112.601
21
-132.274
0
LINE
8
Black
10
112.601
20
-132.274
11
125.149
21
-132.274
0
LINE
8
Black
10
125.149
20
-132.274
11
125.149
21
-119.726
0
LINE
8
Black
10
125.149
20
-119.726
11
112.601
21
-119.726
0
LINE
8
Black
10
82.4816
20
-119.575
11
82.4882
21
-119.575
0
LINE
8
Black
10
82.4882
20
-119.575
11
82.4945
21
-119.577
0
LINE
8
Black
10
82.4945
20
-119.577
11
82.5011
21
-119.578
0
LINE
8
Black
10
82.5011
20
-119.578
11
82.5068
21
-119.582
0
LINE
8
Black
10
82.5068
20
-119.582
11
82.5131
21
-119.584
0
LINE
8
Black
10
82.5131
20
-119.584
11
82.5182
21
-119.588
0
LINE
8
Black
10
82.5182
20
-119.588
11
82.524
21
-119.592
0
LINE
8
Black
10
82.524
20
-119.592
11
82.5283
21
-119.597
0
LINE
8
Black
10
82.5283
20
-119.597
11
82.5334
21
-119.601
0
LINE
8
Black
10
82.5334
20
-119.601
11
82.5367
21
-119.607
0
LINE
8
Black
10
82.5367
20
-119.607
11
82.541
21
-119.612
0
LINE
8
Black
10
82.541
20
-119.612
11
82.5433
21
-119.618
0
LINE
8
Black
10
82.5433
20
-119.618
11
82.5466
21
-119.624
0
LINE
8
Black
10
82.5466
20
-119.624
11
82.5478
21
-119.631
0
LINE
8
Black
10
82.5478
20
-119.631
11
82.55
21
-119.637
0
LINE
8
Black
10
82.55
20
-119.637
11
82.55
21
-119.643
0
LINE
8
Black
10
82.55
20
-119.643
11
82.5512
21
-119.65
0
LINE
8
Black
10
82.5512
20
-119.65
11
82.5512
21
-132.35
0
LINE
8
Black
10
82.5512
20
-132.35
11
82.55
21
-132.357
0
LINE
8
Black
10
82.55
20
-132.357
11
82.55
21
-132.363
0
LINE
8
Black
10
82.55
20
-132.363
11
82.5478
21
-132.369
0
LINE
8
Black
10
82.5478
20
-132.369
11
82.5466
21
-132.376
0
LINE
8
Black
10
82.5466
20
-132.376
11
82.5433
21
-132.382
0
LINE
8
Black
10
82.5433
20
-132.382
11
82.541
21
-132.388
0
LINE
8
Black
10
82.541
20
-132.388
11
82.5367
21
-132.393
0
LINE
8
Black
10
82.5367
20
-132.393
11
82.5334
21
-132.399
0
LINE
8
Black
10
82.5334
20
-132.399
11
82.5283
21
-132.403
0
LINE
8
Black
10
82.5283
20
-132.403
11
82.524
21
-132.408
0
LINE
8
Black
10
82.524
20
-132.408
11
82.5182
21
-132.412
0
LINE
8
Black
10
82.5182
20
-132.412
11
82.5131
21
-132.416
0
LINE
8
Black
10
82.5131
20
-132.416
11
82.5068
21
-132.418
0
LINE
8
Black
10
82.5068
20
-132.418
11
82.5011
21
-132.422
0
LINE
8
Black
10
82.5011
20
-132.422
11
82.4945
21
-132.423
0
LINE
8
Black
10
82.4945
20
-132.423
11
82.4882
21
-132.425
0
LINE
8
Black
10
82.4882
20
-132.425
11
82.4816
21
-132.425
0
LINE
8
Black
10
82.4816
20
-132.425
11
82.475
21
-132.426
0
LINE
8
Black
10
82.475
20
-132.426
11
69.775
21
-132.426
0
LINE
8
Black
10
69.775
20
-132.426
11
69.7684
21
-132.425
0
LINE
8
Black
10
69.7684
20
-132.425
11
69.7618
21
-132.425
0
LINE
8
Black
10
69.7618
20
-132.425
11
69.7555
21
-132.423
0
LINE
8
Black
10
69.7555
20
-132.423
11
69.7489
21
-132.422
0
LINE
8
Black
10
69.7489
20
-132.422
11
69.7432
21
-132.418
0
LINE
8
Black
10
69.7432
20
-132.418
11
69.7369
21
-132.416
0
LINE
8
Black
10
69.7369
20
-132.416
11
69.7318
21
-132.412
0
LINE
8
Black
10
69.7318
20
-132.412
11
69.726
21
-132.408
0
LINE
8
Black
10
69.726
20
-132.408
11
69.7217
21
-132.403
0
LINE
8
Black
10
69.7217
20
-132.403
11
69.7166
21
-132.399
0
LINE
8
Black
10
69.7166
20
-132.399
11
69.7133
21
-132.393
0
LINE
8
Black
10
69.7133
20
-132.393
11
69.709
21
-132.388
0
LINE
8
Black
10
69.709
20
-132.388
11
69.7067
21
-132.382
0
LINE
8
Black
10
69.7067
20
-132.382
11
69.7034
21
-132.376
0
LINE
8
Black
10
69.7034
20
-132.376
11
69.7022
21
-132.369
0
LINE
8
Black
10
69.7022
20
-132.369
11
69.7
21
-132.363
0
LINE
8
Black
10
69.7
20
-132.363
11
69.7
21
-132.357
0
LINE
8
Black
10
69.7
20
-132.357
11
69.6988
21
-132.35
0
LINE
8
Black
10
69.6988
20
-132.35
11
69.6988
21
-119.65
0
LINE
8
Black
10
69.6988
20
-119.65
11
69.7
21
-119.643
0
LINE
8
Black
10
69.7
20
-119.643
11
69.7
21
-119.637
0
LINE
8
Black
10
69.7
20
-119.637
11
69.7022
21
-119.631
0
LINE
8
Black
10
69.7022
20
-119.631
11
69.7034
21
-119.624
0
LINE
8
Black
10
69.7034
20
-119.624
11
69.7067
21
-119.618
0
LINE
8
Black
10
69.7067
20
-119.618
11
69.709
21
-119.612
0
LINE
8
Black
10
69.709
20
-119.612
11
69.7133
21
-119.607
0
LINE
8
Black
10
69.7133
20
-119.607
11
69.7166
21
-119.601
0
LINE
8
Black
10
69.7166
20
-119.601
11
69.7217
21
-119.597
0
LINE
8
Black
10
69.7217
20
-119.597
11
69.726
21
-119.592
0
LINE
8
Black
10
69.726
20
-119.592
11
69.7318
21
-119.588
0
LINE
8
Black
10
69.7318
20
-119.588
11
69.7369
21
-119.584
0
LINE
8
Black
10
69.7369
20
-119.584
11
69.7432
21
-119.582
0
LINE
8
Black
10
69.7432
20
-119.582
11
69.7489
21
-119.578
0
LINE
8
Black
10
69.7489
20
-119.578
11
69.7555
21
-119.577
0
LINE
8
Black
10
69.7555
20
-119.577
11
69.7618
21
-119.575
0
LINE
8
Black
10
69.7618
20
-119.575
11
69.7684
21
-119.575
0
LINE
8
Black
10
69.7684
20
-119.575
11
69.775
21
-119.574
0
LINE
8
Black
10
69.775
20
-119.574
11
82.475
21
-119.574
0
LINE
8
Black
10
82.475
20
-119.574
11
82.4816
21
-119.575
0
LINE
8
Black
10
69.8512
20
-119.726
11
69.8512
21
-132.274
0
LINE
8
Black
10
69.8512
20
-132.274
11
82.3988
21
-132.274
0
LINE
8
Black
10
82.3988
20
-132.274
11
82.3988
21
-119.726
0
LINE
8
Black
10
82.3988
20
-119.726
11
69.8512
21
-119.726
0
LINE
8
Black
10
103.857
20
-119.575
11
103.863
21
-119.575
0
LINE
8
Black
10
103.863
20
-119.575
11
103.869
21
-119.577
0
LINE
8
Black
10
103.869
20
-119.577
11
103.876
21
-119.578
0
LINE
8
Black
10
103.876
20
-119.578
11
103.882
21
-119.582
0
LINE
8
Black
10
103.882
20
-119.582
11
103.888
21
-119.584
0
LINE
8
Black
10
103.888
20
-119.584
11
103.893
21
-119.588
0
LINE
8
Black
10
103.893
20
-119.588
11
103.899
21
-119.592
0
LINE
8
Black
10
103.899
20
-119.592
11
103.903
21
-119.597
0
LINE
8
Black
10
103.903
20
-119.597
11
103.908
21
-119.601
0
LINE
8
Black
10
103.908
20
-119.601
11
103.912
21
-119.607
0
LINE
8
Black
10
103.912
20
-119.607
11
103.916
21
-119.612
0
LINE
8
Black
10
103.916
20
-119.612
11
103.918
21
-119.618
0
LINE
8
Black
10
103.918
20
-119.618
11
103.922
21
-119.624
0
LINE
8
Black
10
103.922
20
-119.624
11
103.923
21
-119.631
0
LINE
8
Black
10
103.923
20
-119.631
11
103.925
21
-119.637
0
LINE
8
Black
10
103.925
20
-119.637
11
103.925
21
-119.643
0
LINE
8
Black
10
103.925
20
-119.643
11
103.926
21
-119.65
0
LINE
8
Black
10
103.926
20
-119.65
11
103.926
21
-132.35
0
LINE
8
Black
10
103.926
20
-132.35
11
103.925
21
-132.357
0
LINE
8
Black
10
103.925
20
-132.357
11
103.925
21
-132.363
0
LINE
8
Black
10
103.925
20
-132.363
11
103.923
21
-132.369
0
LINE
8
Black
10
103.923
20
-132.369
11
103.922
21
-132.376
0
LINE
8
Black
10
103.922
20
-132.376
11
103.918
21
-132.382
0
LINE
8
Black
10
103.918
20
-132.382
11
103.916
21
-132.388
0
LINE
8
Black
10
103.916
20
-132.388
11
103.912
21
-132.393
0
LINE
8
Black
10
103.912
20
-132.393
11
103.908
21
-132.399
0
LINE
8
Black
10
103.908
20
-132.399
11
103.903
21
-132.403
0
LINE
8
Black
10
103.903
20
-132.403
11
103.899
21
-132.408
0
LINE
8
Black
10
103.899
20
-132.408
11
103.893
21
-132.412
0
LINE
8
Black
10
103.893
20
-132.412
11
103.888
21
-132.416
0
LINE
8
Black
10
103.888
20
-132.416
11
103.882
21
-132.418
0
LINE
8
Black
10
103.882
20
-132.418
11
103.876
21
-132.422
0
LINE
8
Black
10
103.876
20
-132.422
11
103.869
21
-132.423
0
LINE
8
Black
10
103.869
20
-132.423
11
103.863
21
-132.425
0
LINE
8
Black
10
103.863
20
-132.425
11
103.857
21
-132.425
0
LINE
8
Black
10
103.857
20
-132.425
11
103.85
21
-132.426
0
LINE
8
Black
10
103.85
20
-132.426
11
91.15
21
-132.426
0
LINE
8
Black
10
91.15
20
-132.426
11
91.1434
21
-132.425
0
LINE
8
Black
10
91.1434
20
-132.425
11
91.1368
21
-132.425
0
LINE
8
Black
10
91.1368
20
-132.425
11
91.1305
21
-132.423
0
LINE
8
Black
10
91.1305
20
-132.423
11
91.1239
21
-132.422
0
LINE
8
Black
10
91.1239
20
-132.422
11
91.1182
21
-132.418
0
LINE
8
Black
10
91.1182
20
-132.418
11
91.1119
21
-132.416
0
LINE
8
Black
10
91.1119
20
-132.416
11
91.1068
21
-132.412
0
LINE
8
Black
10
91.1068
20
-132.412
11
91.101
21
-132.408
0
LINE
8
Black
10
91.101
20
-132.408
11
91.0967
21
-132.403
0
LINE
8
Black
10
91.0967
20
-132.403
11
91.0916
21
-132.399
0
LINE
8
Black
10
91.0916
20
-132.399
11
91.0883
21
-132.393
0
LINE
8
Black
10
91.0883
20
-132.393
11
91.084
21
-132.388
0
LINE
8
Black
10
91.084
20
-132.388
11
91.0817
21
-132.382
0
LINE
8
Black
10
91.0817
20
-132.382
11
91.0784
21
-132.376
0
LINE
8
Black
10
91.0784
20
-132.376
11
91.0772
21
-132.369
0
LINE
8
Black
10
91.0772
20
-132.369
11
91.075
21
-132.363
0
LINE
8
Black
10
91.075
20
-132.363
11
91.075
21
-132.357
0
LINE
8
Black
10
91.075
20
-132.357
11
91.0738
21
-132.35
0
LINE
8
Black
10
91.0738
20
-132.35
11
91.0738
21
-119.65
0
LINE
8
Black
10
91.0738
20
-119.65
11
91.075
21
-119.643
0
LINE
8
Black
10
91.075
20
-119.643
11
91.075
21
-119.637
0
LINE
8
Black
10
91.075
20
-119.637
11
91.0772
21
-119.631
0
LINE
8
Black
10
91.0772
20
-119.631
11
91.0784
21
-119.624
0
LINE
8
Black
10
91.0784
20
-119.624
11
91.0817
21
-119.618
0
LINE
8
Black
10
91.0817
20
-119.618
11
91.084
21
-119.612
0
LINE
8
Black
10
91.084
20
-119.612
11
91.0883
21
-119.607
0
LINE
8
Black
10
91.0883
20
-119.607
11
91.0916
21
-119.601
0
LINE
8
Black
10
91.0916
20
-119.601
11
91.0967
21
-119.597
0
LINE
8
Black
10
91.0967
20
-119.597
11
91.101
21
-119.592
0
LINE
8
Black
10
91.101
20
-119.592
11
91.1068
21
-119.588
0
LINE
8
Black
10
91.1068
20
-119.588
11
91.1119
21
-119.584
0
LINE
8
Black
10
91.1119
20
-119.584
11
91.1182
21
-119.582
0
LINE
8
Black
10
91.1182
20
-119.582
11
91.1239
21
-119.578
0
LINE
8
Black
10
91.1239
20
-119.578
11
91.1305
21
-119.577
0
LINE
8
Black
10
91.1305
20
-119.577
11
91.1368
21
-119.575
0
LINE
8
Black
10
91.1368
20
-119.575
11
91.1434
21
-119.575
0
LINE
8
Black
10
91.1434
20
-119.575
11
91.15
21
-119.574
0
LINE
8
Black
10
91.15
20
-119.574
11
103.85
21
-119.574
0
LINE
8
Black
10
103.85
20
-119.574
11
103.857
21
-119.575
0
LINE
8
Black
10
91.2262
20
-119.726
11
91.2262
21
-132.274
0
LINE
8
Black
10
91.2262
20
-132.274
11
103.774
21
-132.274
0
LINE
8
Black
10
103.774
20
-132.274
11
103.774
21
-119.726
0
LINE
8
Black
10
103.774
20
-119.726
11
91.2262
21
-119.726
0
LINE
8
Black
10
94.3566
20
-100.575
11
94.3632
21
-100.575
0
LINE
8
Black
10
94.3632
20
-100.575
11
94.3695
21
-100.577
0
LINE
8
Black
10
94.3695
20
-100.577
11
94.3761
21
-100.578
0
LINE
8
Black
10
94.3761
20
-100.578
11
94.3818
21
-100.582
0
LINE
8
Black
10
94.3818
20
-100.582
11
94.3881
21
-100.584
0
LINE
8
Black
10
94.3881
20
-100.584
11
94.3932
21
-100.588
0
LINE
8
Black
10
94.3932
20
-100.588
11
94.399
21
-100.592
0
LINE
8
Black
10
94.399
20
-100.592
11
94.4033
21
-100.597
0
LINE
8
Black
10
94.4033
20
-100.597
11
94.4084
21
-100.601
0
LINE
8
Black
10
94.4084
20
-100.601
11
94.4117
21
-100.607
0
LINE
8
Black
10
94.4117
20
-100.607
11
94.416
21
-100.612
0
LINE
8
Black
10
94.416
20
-100.612
11
94.4183
21
-100.618
0
LINE
8
Black
10
94.4183
20
-100.618
11
94.4216
21
-100.624
0
LINE
8
Black
10
94.4216
20
-100.624
11
94.4228
21
-100.631
0
LINE
8
Black
10
94.4228
20
-100.631
11
94.425
21
-100.637
0
LINE
8
Black
10
94.425
20
-100.637
11
94.425
21
-100.643
0
LINE
8
Black
10
94.425
20
-100.643
11
94.4262
21
-100.65
0
LINE
8
Black
10
94.4262
20
-100.65
11
94.4262
21
-113.35
0
LINE
8
Black
10
94.4262
20
-113.35
11
94.425
21
-113.357
0
LINE
8
Black
10
94.425
20
-113.357
11
94.425
21
-113.363
0
LINE
8
Black
10
94.425
20
-113.363
11
94.4228
21
-113.369
0
LINE
8
Black
10
94.4228
20
-113.369
11
94.4216
21
-113.376
0
LINE
8
Black
10
94.4216
20
-113.376
11
94.4183
21
-113.382
0
LINE
8
Black
10
94.4183
20
-113.382
11
94.416
21
-113.388
0
LINE
8
Black
10
94.416
20
-113.388
11
94.4117
21
-113.393
0
LINE
8
Black
10
94.4117
20
-113.393
11
94.4084
21
-113.399
0
LINE
8
Black
10
94.4084
20
-113.399
11
94.4033
21
-113.403
0
LINE
8
Black
10
94.4033
20
-113.403
11
94.399
21
-113.408
0
LINE
8
Black
10
94.399
20
-113.408
11
94.3932
21
-113.412
0
LINE
8
Black
10
94.3932
20
-113.412
11
94.3881
21
-113.416
0
LINE
8
Black
10
94.3881
20
-113.416
11
94.3818
21
-113.418
0
LINE
8
Black
10
94.3818
20
-113.418
11
94.3761
21
-113.422
0
LINE
8
Black
10
94.3761
20
-113.422
11
94.3695
21
-113.423
0
LINE
8
Black
10
94.3695
20
-113.423
11
94.3632
21
-113.425
0
LINE
8
Black
10
94.3632
20
-113.425
11
94.3566
21
-113.425
0
LINE
8
Black
10
94.3566
20
-113.425
11
94.35
21
-113.426
0
LINE
8
Black
10
94.35
20
-113.426
11
81.65
21
-113.426
0
LINE
8
Black
10
81.65
20
-113.426
11
81.6434
21
-113.425
0
LINE
8
Black
10
81.6434
20
-113.425
11
81.6368
21
-113.425
0
LINE
8
Black
10
81.6368
20
-113.425
11
81.6305
21
-113.423
0
LINE
8
Black
10
81.6305
20
-113.423
11
81.6239
21
-113.422
0
LINE
8
Black
10
81.6239
20
-113.422
11
81.6182
21
-113.418
0
LINE
8
Black
10
81.6182
20
-113.418
11
81.6119
21
-113.416
0
LINE
8
Black
10
81.6119
20
-113.416
11
81.6068
21
-113.412
0
LINE
8
Black
10
81.6068
20
-113.412
11
81.601
21
-113.408
0
LINE
8
Black
10
81.601
20
-113.408
11
81.5967
21
-113.403
0
LINE
8
Black
10
81.5967
20
-113.403
11
81.5916
21
-113.399
0
LINE
8
Black
10
81.5916
20
-113.399
11
81.5883
21
-113.393
0
LINE
8
Black
10
81.5883
20
-113.393
11
81.584
21
-113.388
0
LINE
8
Black
10
81.584
20
-113.388
11
81.5817
21
-113.382
0
LINE
8
Black
10
81.5817
20
-113.382
11
81.5784
21
-113.376
0
LINE
8
Black
10
81.5784
20
-113.376
11
81.5772
21
-113.369
0
LINE
8
Black
10
81.5772
20
-113.369
11
81.575
21
-113.363
0
LINE
8
Black
10
81.575
20
-113.363
11
81.575
21
-113.357
0
LINE
8
Black
10
81.575
20
-113.357
11
81.5738
21
-113.35
0
LINE
8
Black
10
81.5738
20
-113.35
11
81.5738
21
-100.65
0
LINE
8
Black
10
81.5738
20
-100.65
11
81.575
21
-100.643
0
LINE
8
Black
10
81.575
20
-100.643
11
81.575
21
-100.637
0
LINE
8
Black
10
81.575
20
-100.637
11
81.5772
21
-100.631
0
LINE
8
Black
10
81.5772
20
-100.631
11
81.5784
21
-100.624
0
LINE
8
Black
10
81.5784
20
-100.624
11
81.5817
21
-100.618
0
LINE
8
Black
10
81.5817
20
-100.618
11
81.584
21
-100.612
0
LINE
8
Black
10
81.584
20
-100.612
11
81.5883
21
-100.607
0
LINE
8
Black
10
81.5883
20
-100.607
11
81.5916
21
-100.601
0
LINE
8
Black
10
81.5916
20
-100.601
11
81.5967
21
-100.597
0
LINE
8
Black
10
81.5967
20
-100.597
11
81.601
21
-100.592
0
LINE
8
Black
10
81.601
20
-100.592
11
81.6068
21
-100.588
0
LINE
8
Black
10
81.6068
20
-100.588
11
81.6119
21
-100.584
0
LINE
8
Black
10
81.6119
20
-100.584
11
81.6182
21
-100.582
0
LINE
8
Black
10
81.6182
20
-100.582
11
81.6239
21
-100.578
0
LINE
8
Black
10
81.6239
20
-100.578
11
81.6305
21
-100.577
0
LINE
8
Black
10
81.6305
20
-100.577
11
81.6368
21
-100.575
0
LINE
8
Black
10
81.6368
20
-100.575
11
81.6434
21
-100.575
0
LINE
8
Black
10
81.6434
20
-100.575
11
81.65
21
-100.574
0
LINE
8
Black
10
81.65
20
-100.574
11
94.35
21
-100.574
0
LINE
8
Black
10
94.35
20
-100.574
11
94.3566
21
-100.575
0
LINE
8
Black
10
81.7262
20
-100.726
11
81.7262
21
-113.274
0
LINE
8
Black
10
81.7262
20
-113.274
11
94.2738
21
-113.274
0
LINE
8
Black
10
94.2738
20
-113.274
11
94.2738
21
-100.726
0
LINE
8
Black
10
94.2738
20
-100.726
11
81.7262
21
-100.726
0
LINE
8
Black
10
151.357
20
-100.575
11
151.363
21
-100.575
0
LINE
8
Black
10
151.363
20
-100.575
11
151.369
21
-100.577
0
LINE
8
Black
10
151.369
20
-100.577
11
151.376
21
-100.578
0
LINE
8
Black
10
151.376
20
-100.578
11
151.382
21
-100.582
0
LINE
8
Black
10
151.382
20
-100.582
11
151.388
21
-100.584
0
LINE
8
Black
10
151.388
20
-100.584
11
151.393
21
-100.588
0
LINE
8
Black
10
151.393
20
-100.588
11
151.399
21
-100.592
0
LINE
8
Black
10
151.399
20
-100.592
11
151.403
21
-100.597
0
LINE
8
Black
10
151.403
20
-100.597
11
151.408
21
-100.601
0
LINE
8
Black
10
151.408
20
-100.601
11
151.412
21
-100.607
0
LINE
8
Black
10
151.412
20
-100.607
11
151.416
21
-100.612
0
LINE
8
Black
10
151.416
20
-100.612
11
151.418
21
-100.618
0
LINE
8
Black
10
151.418
20
-100.618
11
151.422
21
-100.624
0
LINE
8
Black
10
151.422
20
-100.624
11
151.423
21
-100.631
0
LINE
8
Black
10
151.423
20
-100.631
11
151.425
21
-100.637
0
LINE
8
Black
10
151.425
20
-100.637
11
151.425
21
-100.643
0
LINE
8
Black
10
151.425
20
-100.643
11
151.426
21
-100.65
0
LINE
8
Black
10
151.426
20
-100.65
11
151.426
21
-113.35
0
LINE
8
Black
10
151.426
20
-113.35
11
151.425
21
-113.357
0
LINE
8
Black
10
151.425
20
-113.357
11
151.425
21
-113.363
0
LINE
8
Black
10
151.425
20
-113.363
11
151.423
21
-113.369
0
LINE
8
Black
10
151.423
20
-113.369
11
151.422
21
-113.376
0
LINE
8
Black
10
151.422
20
-113.376
11
151.418
21
-113.382
0
LINE
8
Black
10
151.418
20
-113.382
11
151.416
21
-113.388
0
LINE
8
Black
10
151.416
20
-113.388
11
151.412
21
-113.393
0
LINE
8
Black
10
151.412
20
-113.393
11
151.408
21
-113.399
0
LINE
8
Black
10
151.408
20
-113.399
11
151.403
21
-113.403
0
LINE
8
Black
10
151.403
20
-113.403
11
151.399
21
-113.408
0
LINE
8
Black
10
151.399
20
-113.408
11
151.393
21
-113.412
0
LINE
8
Black
10
151.393
20
-113.412
11
151.388
21
-113.416
0
LINE
8
Black
10
151.388
20
-113.416
11
151.382
21
-113.418
0
LINE
8
Black
10
151.382
20
-113.418
11
151.376
21
-113.422
0
LINE
8
Black
10
151.376
20
-113.422
11
151.369
21
-113.423
0
LINE
8
Black
10
151.369
20
-113.423
11
151.363
21
-113.425
0
LINE
8
Black
10
151.363
20
-113.425
11
151.357
21
-113.425
0
LINE
8
Black
10
151.357
20
-113.425
11
151.35
21
-113.426
0
LINE
8
Black
10
151.35
20
-113.426
11
138.65
21
-113.426
0
LINE
8
Black
10
138.65
20
-113.426
11
138.643
21
-113.425
0
LINE
8
Black
10
138.643
20
-113.425
11
138.637
21
-113.425
0
LINE
8
Black
10
138.637
20
-113.425
11
138.631
21
-113.423
0
LINE
8
Black
10
138.631
20
-113.423
11
138.624
21
-113.422
0
LINE
8
Black
10
138.624
20
-113.422
11
138.618
21
-113.418
0
LINE
8
Black
10
138.618
20
-113.418
11
138.612
21
-113.416
0
LINE
8
Black
10
138.612
20
-113.416
11
138.607
21
-113.412
0
LINE
8
Black
10
138.607
20
-113.412
11
138.601
21
-113.408
0
LINE
8
Black
10
138.601
20
-113.408
11
138.597
21
-113.403
0
LINE
8
Black
10
138.597
20
-113.403
11
138.592
21
-113.399
0
LINE
8
Black
10
138.592
20
-113.399
11
138.588
21
-113.393
0
LINE
8
Black
10
138.588
20
-113.393
11
138.584
21
-113.388
0
LINE
8
Black
10
138.584
20
-113.388
11
138.582
21
-113.382
0
LINE
8
Black
10
138.582
20
-113.382
11
138.578
21
-113.376
0
LINE
8
Black
10
138.578
20
-113.376
11
138.577
21
-113.369
0
LINE
8
Black
10
138.577
20
-113.369
11
138.575
21
-113.363
0
LINE
8
Black
10
138.575
20
-113.363
11
138.575
21
-113.357
0
LINE
8
Black
10
138.575
20
-113.357
11
138.574
21
-113.35
0
LINE
8
Black
10
138.574
20
-113.35
11
138.574
21
-100.65
0
LINE
8
Black
10
138.574
20
-100.65
11
138.575
21
-100.643
0
LINE
8
Black
10
138.575
20
-100.643
11
138.575
21
-100.637
0
LINE
8
Black
10
138.575
20
-100.637
11
138.577
21
-100.631
0
LINE
8
Black
10
138.577
20
-100.631
11
138.578
21
-100.624
0
LINE
8
Black
10
138.578
20
-100.624
11
138.582
21
-100.618
0
LINE
8
Black
10
138.582
20
-100.618
11
138.584
21
-100.612
0
LINE
8
Black
10
138.584
20
-100.612
11
138.588
21
-100.607
0
LINE
8
Black
10
138.588
20
-100.607
11
138.592
21
-100.601
0
LINE
8
Black
10
138.592
20
-100.601
11
138.597
21
-100.597
0
LINE
8
Black
10
138.597
20
-100.597
11
138.601
21
-100.592
0
LINE
8
Black
10
138.601
20
-100.592
11
138.607
21
-100.588
0
LINE
8
Black
10
138.607
20
-100.588
11
138.612
21
-100.584
0
LINE
8
Black
10
138.612
20
-100.584
11
138.618
21
-100.582
0
LINE
8
Black
10
138.618
20
-100.582
11
138.624
21
-100.578
0
LINE
8
Black
10
138.624
20
-100.578
11
138.631
21
-100.577
0
LINE
8
Black
10
138.631
20
-100.577
11
138.637
21
-100.575
0
LINE
8
Black
10
138.637
20
-100.575
11
138.643
21
-100.575
0
LINE
8
Black
10
138.643
20
-100.575
11
138.65
21
-100.574
0
LINE
8
Black
10
138.65
20
-100.574
11
151.35
21
-100.574
0
LINE
8
Black
10
151.35
20
-100.574
11
151.357
21
-100.575
0
LINE
8
Black
10
138.726
20
-100.726
11
138.726
21
-113.274
0
LINE
8
Black
10
138.726
20
-113.274
11
151.274
21
-113.274
0
LINE
8
Black
10
151.274
20
-113.274
11
151.274
21
-100.726
0
LINE
8
Black
10
151.274
20
-100.726
11
138.726
21
-100.726
0
LINE
8
Black
10
132.357
20
-100.575
11
132.363
21
-100.575
0
LINE
8
Black
10
132.363
20
-100.575
11
132.369
21
-100.577
0
LINE
8
Black
10
132.369
20
-100.577
11
132.376
21
-100.578
0
LINE
8
Black
10
132.376
20
-100.578
11
132.382
21
-100.582
0
LINE
8
Black
10
132.382
20
-100.582
11
132.388
21
-100.584
0
LINE
8
Black
10
132.388
20
-100.584
11
132.393
21
-100.588
0
LINE
8
Black
10
132.393
20
-100.588
11
132.399
21
-100.592
0
LINE
8
Black
10
132.399
20
-100.592
11
132.403
21
-100.597
0
LINE
8
Black
10
132.403
20
-100.597
11
132.408
21
-100.601
0
LINE
8
Black
10
132.408
20
-100.601
11
132.412
21
-100.607
0
LINE
8
Black
10
132.412
20
-100.607
11
132.416
21
-100.612
0
LINE
8
Black
10
132.416
20
-100.612
11
132.418
21
-100.618
0
LINE
8
Black
10
132.418
20
-100.618
11
132.422
21
-100.624
0
LINE
8
Black
10
132.422
20
-100.624
11
132.423
21
-100.631
0
LINE
8
Black
10
132.423
20
-100.631
11
132.425
21
-100.637
0
LINE
8
Black
10
132.425
20
-100.637
11
132.425
21
-100.643
0
LINE
8
Black
10
132.425
20
-100.643
11
132.426
21
-100.65
0
LINE
8
Black
10
132.426
20
-100.65
11
132.426
21
-113.35
0
LINE
8
Black
10
132.426
20
-113.35
11
132.425
21
-113.357
0
LINE
8
Black
10
132.425
20
-113.357
11
132.425
21
-113.363
0
LINE
8
Black
10
132.425
20
-113.363
11
132.423
21
-113.369
0
LINE
8
Black
10
132.423
20
-113.369
11
132.422
21
-113.376
0
LINE
8
Black
10
132.422
20
-113.376
11
132.418
21
-113.382
0
LINE
8
Black
10
132.418
20
-113.382
11
132.416
21
-113.388
0
LINE
8
Black
10
132.416
20
-113.388
11
132.412
21
-113.393
0
LINE
8
Black
10
132.412
20
-113.393
11
132.408
21
-113.399
0
LINE
8
Black
10
132.408
20
-113.399
11
132.403
21
-113.403
0
LINE
8
Black
10
132.403
20
-113.403
11
132.399
21
-113.408
0
LINE
8
Black
10
132.399
20
-113.408
11
132.393
21
-113.412
0
LINE
8
Black
10
132.393
20
-113.412
11
132.388
21
-113.416
0
LINE
8
Black
10
132.388
20
-113.416
11
132.382
21
-113.418
0
LINE
8
Black
10
132.382
20
-113.418
11
132.376
21
-113.422
0
LINE
8
Black
10
132.376
20
-113.422
11
132.369
21
-113.423
0
LINE
8
Black
10
132.369
20
-113.423
11
132.363
21
-113.425
0
LINE
8
Black
10
132.363
20
-113.425
11
132.357
21
-113.425
0
LINE
8
Black
10
132.357
20
-113.425
11
132.35
21
-113.426
0
LINE
8
Black
10
132.35
20
-113.426
11
119.65
21
-113.426
0
LINE
8
Black
10
119.65
20
-113.426
11
119.643
21
-113.425
0
LINE
8
Black
10
119.643
20
-113.425
11
119.637
21
-113.425
0
LINE
8
Black
10
119.637
20
-113.425
11
119.631
21
-113.423
0
LINE
8
Black
10
119.631
20
-113.423
11
119.624
21
-113.422
0
LINE
8
Black
10
119.624
20
-113.422
11
119.618
21
-113.418
0
LINE
8
Black
10
119.618
20
-113.418
11
119.612
21
-113.416
0
LINE
8
Black
10
119.612
20
-113.416
11
119.607
21
-113.412
0
LINE
8
Black
10
119.607
20
-113.412
11
119.601
21
-113.408
0
LINE
8
Black
10
119.601
20
-113.408
11
119.597
21
-113.403
0
LINE
8
Black
10
119.597
20
-113.403
11
119.592
21
-113.399
0
LINE
8
Black
10
119.592
20
-113.399
11
119.588
21
-113.393
0
LINE
8
Black
10
119.588
20
-113.393
11
119.584
21
-113.388
0
LINE
8
Black
10
119.584
20
-113.388
11
119.582
21
-113.382
0
LINE
8
Black
10
119.582
20
-113.382
11
119.578
21
-113.376
0
LINE
8
Black
10
119.578
20
-113.376
11
119.577
21
-113.369
0
LINE
8
Black
10
119.577
20
-113.369
11
119.575
21
-113.363
0
LINE
8
Black
10
119.575
20
-113.363
11
119.575
21
-113.357
0
LINE
8
Black
10
119.575
20
-113.357
11
119.574
21
-113.35
0
LINE
8
Black
10
119.574
20
-113.35
11
119.574
21
-100.65
0
LINE
8
Black
10
119.574
20
-100.65
11
119.575
21
-100.643
0
LINE
8
Black
10
119.575
20
-100.643
11
119.575
21
-100.637
0
LINE
8
Black
10
119.575
20
-100.637
11
119.577
21
-100.631
0
LINE
8
Black
10
119.577
20
-100.631
11
119.578
21
-100.624
0
LINE
8
Black
10
119.578
20
-100.624
11
119.582
21
-100.618
0
LINE
8
Black
10
119.582
20
-100.618
11
119.584
21
-100.612
0
LINE
8
Black
10
119.584
20
-100.612
11
119.588
21
-100.607
0
LINE
8
Black
10
119.588
20
-100.607
11
119.592
21
-100.601
0
LINE
8
Black
10
119.592
20
-100.601
11
119.597
21
-100.597
0
LINE
8
Black
10
119.597
20
-100.597
11
119.601
21
-100.592
0
LINE
8
Black
10
119.601
20
-100.592
11
119.607
21
-100.588
0
LINE
8
Black
10
119.607
20
-100.588
11
119.612
21
-100.584
0
LINE
8
Black
10
119.612
20
-100.584
11
119.618
21
-100.582
0
LINE
8
Black
10
119.618
20
-100.582
11
119.624
21
-100.578
0
LINE
8
Black
10
119.624
20
-100.578
11
119.631
21
-100.577
0
LINE
8
Black
10
119.631
20
-100.577
11
119.637
21
-100.575
0
LINE
8
Black
10
119.637
20
-100.575
11
119.643
21
-100.575
0
LINE
8
Black
10
119.643
20
-100.575
11
119.65
21
-100.574
0
LINE
8
Black
10
119.65
20
-100.574
11
132.35
21
-100.574
0
LINE
8
Black
10
132.35
20
-100.574
11
132.357
21
-100.575
0
LINE
8
Black
10
119.726
20
-100.726
11
119.726
21
-113.274
0
LINE
8
Black
10
119.726
20
-113.274
11
132.274
21
-113.274
0
LINE
8
Black
10
132.274
20
-113.274
11
132.274
21
-100.726
0
LINE
8
Black
10
132.274
20
-100.726
11
119.726
21
-100.726
0
LINE
8
Black
10
113.357
20
-100.575
11
113.363
21
-100.575
0
LINE
8
Black
10
113.363
20
-100.575
11
113.369
21
-100.577
0
LINE
8
Black
10
113.369
20
-100.577
11
113.376
21
-100.578
0
LINE
8
Black
10
113.376
20
-100.578
11
113.382
21
-100.582
0
LINE
8
Black
10
113.382
20
-100.582
11
113.388
21
-100.584
0
LINE
8
Black
10
113.388
20
-100.584
11
113.393
21
-100.588
0
LINE
8
Black
10
113.393
20
-100.588
11
113.399
21
-100.592
0
LINE
8
Black
10
113.399
20
-100.592
11
113.403
21
-100.597
0
LINE
8
Black
10
113.403
20
-100.597
11
113.408
21
-100.601
0
LINE
8
Black
10
113.408
20
-100.601
11
113.412
21
-100.607
0
LINE
8
Black
10
113.412
20
-100.607
11
113.416
21
-100.612
0
LINE
8
Black
10
113.416
20
-100.612
11
113.418
21
-100.618
0
LINE
8
Black
10
113.418
20
-100.618
11
113.422
21
-100.624
0
LINE
8
Black
10
113.422
20
-100.624
11
113.423
21
-100.631
0
LINE
8
Black
10
113.423
20
-100.631
11
113.425
21
-100.637
0
LINE
8
Black
10
113.425
20
-100.637
11
113.425
21
-100.643
0
LINE
8
Black
10
113.425
20
-100.643
11
113.426
21
-100.65
0
LINE
8
Black
10
113.426
20
-100.65
11
113.426
21
-113.35
0
LINE
8
Black
10
113.426
20
-113.35
11
113.425
21
-113.357
0
LINE
8
Black
10
113.425
20
-113.357
11
113.425
21
-113.363
0
LINE
8
Black
10
113.425
20
-113.363
11
113.423
21
-113.369
0
LINE
8
Black
10
113.423
20
-113.369
11
113.422
21
-113.376
0
LINE
8
Black
10
113.422
20
-113.376
11
113.418
21
-113.382
0
LINE
8
Black
10
113.418
20
-113.382
11
113.416
21
-113.388
0
LINE
8
Black
10
113.416
20
-113.388
11
113.412
21
-113.393
0
LINE
8
Black
10
113.412
20
-113.393
11
113.408
21
-113.399
0
LINE
8
Black
10
113.408
20
-113.399
11
113.403
21
-113.403
0
LINE
8
Black
10
113.403
20
-113.403
11
113.399
21
-113.408
0
LINE
8
Black
10
113.399
20
-113.408
11
113.393
21
-113.412
0
LINE
8
Black
10
113.393
20
-113.412
11
113.388
21
-113.416
0
LINE
8
Black
10
113.388
20
-113.416
11
113.382
21
-113.418
0
LINE
8
Black
10
113.382
20
-113.418
11
113.376
21
-113.422
0
LINE
8
Black
10
113.376
20
-113.422
11
113.369
21
-113.423
0
LINE
8
Black
10
113.369
20
-113.423
11
113.363
21
-113.425
0
LINE
8
Black
10
113.363
20
-113.425
11
113.357
21
-113.425
0
LINE
8
Black
10
113.357
20
-113.425
11
113.35
21
-113.426
0
LINE
8
Black
10
113.35
20
-113.426
11
100.65
21
-113.426
0
LINE
8
Black
10
100.65
20
-113.426
11
100.643
21
-113.425
0
LINE
8
Black
10
100.643
20
-113.425
11
100.637
21
-113.425
0
LINE
8
Black
10
100.637
20
-113.425
11
100.631
21
-113.423
0
LINE
8
Black
10
100.631
20
-113.423
11
100.624
21
-113.422
0
LINE
8
Black
10
100.624
20
-113.422
11
100.618
21
-113.418
0
LINE
8
Black
10
100.618
20
-113.418
11
100.612
21
-113.416
0
LINE
8
Black
10
100.612
20
-113.416
11
100.607
21
-113.412
0
LINE
8
Black
10
100.607
20
-113.412
11
100.601
21
-113.408
0
LINE
8
Black
10
100.601
20
-113.408
11
100.597
21
-113.403
0
LINE
8
Black
10
100.597
20
-113.403
11
100.592
21
-113.399
0
LINE
8
Black
10
100.592
20
-113.399
11
100.588
21
-113.393
0
LINE
8
Black
10
100.588
20
-113.393
11
100.584
21
-113.388
0
LINE
8
Black
10
100.584
20
-113.388
11
100.582
21
-113.382
0
LINE
8
Black
10
100.582
20
-113.382
11
100.578
21
-113.376
0
LINE
8
Black
10
100.578
20
-113.376
11
100.577
21
-113.369
0
LINE
8
Black
10
100.577
20
-113.369
11
100.575
21
-113.363
0
LINE
8
Black
10
100.575
20
-113.363
11
100.575
21
-113.357
0
LINE
8
Black
10
100.575
20
-113.357
11
100.574
21
-113.35
0
LINE
8
Black
10
100.574
20
-113.35
11
100.574
21
-100.65
0
LINE
8
Black
10
100.574
20
-100.65
11
100.575
21
-100.643
0
LINE
8
Black
10
100.575
20
-100.643
11
100.575
21
-100.637
0
LINE
8
Black
10
100.575
20
-100.637
11
100.577
21
-100.631
0
LINE
8
Black
10
100.577
20
-100.631
11
100.578
21
-100.624
0
LINE
8
Black
10
100.578
20
-100.624
11
100.582
21
-100.618
0
LINE
8
Black
10
100.582
20
-100.618
11
100.584
21
-100.612
0
LINE
8
Black
10
100.584
20
-100.612
11
100.588
21
-100.607
0
LINE
8
Black
10
100.588
20
-100.607
11
100.592
21
-100.601
0
LINE
8
Black
10
100.592
20
-100.601
11
100.597
21
-100.597
0
LINE
8
Black
10
100.597
20
-100.597
11
100.601
21
-100.592
0
LINE
8
Black
10
100.601
20
-100.592
11
100.607
21
-100.588
0
LINE
8
Black
10
100.607
20
-100.588
11
100.612
21
-100.584
0
LINE
8
Black
10
100.612
20
-100.584
11
100.618
21
-100.582
0
LINE
8
Black
10
100.618
20
-100.582
11
100.624
21
-100.578
0
LINE
8
Black
10
100.624
20
-100.578
11
100.631
21
-100.577
0
LINE
8
Black
10
100.631
20
-100.577
11
100.637
21
-100.575
0
LINE
8
Black
10
100.637
20
-100.575
11
100.643
21
-100.575
0
LINE
8
Black
10
100.643
20
-100.575
11
100.65
21
-100.574
0
LINE
8
Black
10
100.65
20
-100.574
11
113.35
21
-100.574
0
LINE
8
Black
10
113.35
20
-100.574
11
113.357
21
-100.575
0
LINE
8
Black
10
100.726
20
-100.726
11
100.726
21
-113.274
0
LINE
8
Black
10
100.726
20
-113.274
11
113.274
21
-113.274
0
LINE
8
Black
10
113.274
20
-113.274
11
113.274
21
-100.726
0
LINE
8
Black
10
113.274
20
-100.726
11
100.726
21
-100.726
0
LINE
8
Black
10
75.3566
20
-100.575
11
75.3632
21
-100.575
0
LINE
8
Black
10
75.3632
20
-100.575
11
75.3695
21
-100.577
0
LINE
8
Black
10
75.3695
20
-100.577
11
75.3761
21
-100.578
0
LINE
8
Black
10
75.3761
20
-100.578
11
75.3818
21
-100.582
0
LINE
8
Black
10
75.3818
20
-100.582
11
75.3881
21
-100.584
0
LINE
8
Black
10
75.3881
20
-100.584
11
75.3932
21
-100.588
0
LINE
8
Black
10
75.3932
20
-100.588
11
75.399
21
-100.592
0
LINE
8
Black
10
75.399
20
-100.592
11
75.4033
21
-100.597
0
LINE
8
Black
10
75.4033
20
-100.597
11
75.4084
21
-100.601
0
LINE
8
Black
10
75.4084
20
-100.601
11
75.4117
21
-100.607
0
LINE
8
Black
10
75.4117
20
-100.607
11
75.416
21
-100.612
0
LINE
8
Black
10
75.416
20
-100.612
11
75.4183
21
-100.618
0
LINE
8
Black
10
75.4183
20
-100.618
11
75.4216
21
-100.624
0
LINE
8
Black
10
75.4216
20
-100.624
11
75.4228
21
-100.631
0
LINE
8
Black
10
75.4228
20
-100.631
11
75.425
21
-100.637
0
LINE
8
Black
10
75.425
20
-100.637
11
75.425
21
-100.643
0
LINE
8
Black
10
75.425
20
-100.643
11
75.4262
21
-100.65
0
LINE
8
Black
10
75.4262
20
-100.65
11
75.4262
21
-113.35
0
LINE
8
Black
10
75.4262
20
-113.35
11
75.425
21
-113.357
0
LINE
8
Black
10
75.425
20
-113.357
11
75.425
21
-113.363
0
LINE
8
Black
10
75.425
20
-113.363
11
75.4228
21
-113.369
0
LINE
8
Black
10
75.4228
20
-113.369
11
75.4216
21
-113.376
0
LINE
8
Black
10
75.4216
20
-113.376
11
75.4183
21
-113.382
0
LINE
8
Black
10
75.4183
20
-113.382
11
75.416
21
-113.388
0
LINE
8
Black
10
75.416
20
-113.388
11
75.4117
21
-113.393
0
LINE
8
Black
10
75.4117
20
-113.393
11
75.4084
21
-113.399
0
LINE
8
Black
10
75.4084
20
-113.399
11
75.4033
21
-113.403
0
LINE
8
Black
10
75.4033
20
-113.403
11
75.399
21
-113.408
0
LINE
8
Black
10
75.399
20
-113.408
11
75.3932
21
-113.412
0
LINE
8
Black
10
75.3932
20
-113.412
11
75.3881
21
-113.416
0
LINE
8
Black
10
75.3881
20
-113.416
11
75.3818
21
-113.418
0
LINE
8
Black
10
75.3818
20
-113.418
11
75.3761
21
-113.422
0
LINE
8
Black
10
75.3761
20
-113.422
11
75.3695
21
-113.423
0
LINE
8
Black
10
75.3695
20
-113.423
11
75.3632
21
-113.425
0
LINE
8
Black
10
75.3632
20
-113.425
11
75.3566
21
-113.425
0
LINE
8
Black
10
75.3566
20
-113.425
11
75.35
21
-113.426
0
LINE
8
Black
10
75.35
20
-113.426
11
62.65
21
-113.426
0
LINE
8
Black
10
62.65
20
-113.426
11
62.6434
21
-113.425
0
LINE
8
Black
10
62.6434
20
-113.425
11
62.6368
21
-113.425
0
LINE
8
Black
10
62.6368
20
-113.425
11
62.6305
21
-113.423
0
LINE
8
Black
10
62.6305
20
-113.423
11
62.6239
21
-113.422
0
LINE
8
Black
10
62.6239
20
-113.422
11
62.6182
21
-113.418
0
LINE
8
Black
10
62.6182
20
-113.418
11
62.6119
21
-113.416
0
LINE
8
Black
10
62.6119
20
-113.416
11
62.6068
21
-113.412
0
LINE
8
Black
10
62.6068
20
-113.412
11
62.601
21
-113.408
0
LINE
8
Black
10
62.601
20
-113.408
11
62.5967
21
-113.403
0
LINE
8
Black
10
62.5967
20
-113.403
11
62.5916
21
-113.399
0
LINE
8
Black
10
62.5916
20
-113.399
11
62.5883
21
-113.393
0
LINE
8
Black
10
62.5883
20
-113.393
11
62.584
21
-113.388
0
LINE
8
Black
10
62.584
20
-113.388
11
62.5817
21
-113.382
0
LINE
8
Black
10
62.5817
20
-113.382
11
62.5784
21
-113.376
0
LINE
8
Black
10
62.5784
20
-113.376
11
62.5772
21
-113.369
0
LINE
8
Black
10
62.5772
20
-113.369
11
62.575
21
-113.363
0
LINE
8
Black
10
62.575
20
-113.363
11
62.575
21
-113.357
0
LINE
8
Black
10
62.575
20
-113.357
11
62.5738
21
-113.35
0
LINE
8
Black
10
62.5738
20
-113.35
11
62.5738
21
-100.65
0
LINE
8
Black
10
62.5738
20
-100.65
11
62.575
21
-100.643
0
LINE
8
Black
10
62.575
20
-100.643
11
62.575
21
-100.637
0
LINE
8
Black
10
62.575
20
-100.637
11
62.5772
21
-100.631
0
LINE
8
Black
10
62.5772
20
-100.631
11
62.5784
21
-100.624
0
LINE
8
Black
10
62.5784
20
-100.624
11
62.5817
21
-100.618
0
LINE
8
Black
10
62.5817
20
-100.618
11
62.584
21
-100.612
0
LINE
8
Black
10
62.584
20
-100.612
11
62.5883
21
-100.607
0
LINE
8
Black
10
62.5883
20
-100.607
11
62.5916
21
-100.601
0
LINE
8
Black
10
62.5916
20
-100.601
11
62.5967
21
-100.597
0
LINE
8
Black
10
62.5967
20
-100.597
11
62.601
21
-100.592
0
LINE
8
Black
10
62.601
20
-100.592
11
62.6068
21
-100.588
0
LINE
8
Black
10
62.6068
20
-100.588
11
62.6119
21
-100.584
0
LINE
8
Black
10
62.6119
20
-100.584
11
62.6182
21
-100.582
0
LINE
8
Black
10
62.6182
20
-100.582
11
62.6239
21
-100.578
0
LINE
8
Black
10
62.6239
20
-100.578
11
62.6305
21
-100.577
0
LINE
8
Black
10
62.6305
20
-100.577
11
62.6368
21
-100.575
0
LINE
8
Black
10
62.6368
20
-100.575
11
62.6434
21
-100.575
0
LINE
8
Black
10
62.6434
20
-100.575
11
62.65
21
-100.574
0
LINE
8
Black
10
62.65
20
-100.574
11
75.35
21
-100.574
0
LINE
8
Black
10
75.35
20
-100.574
11
75.3566
21
-100.575
0
LINE
8
Black
10
62.7262
20
-100.726
11
62.7262
21
-113.274
0
LINE
8
Black
10
62.7262
20
-113.274
11
75.2738
21
-113.274
0
LINE
8
Black
10
75.2738
20
-113.274
11
75.2738
21
-100.726
0
LINE
8
Black
10
75.2738
20
-100.726
11
62.7262
21
-100.726
0
LINE
8
Black
10
56.3566
20
-100.575
11
56.3632
21
-100.575
0
LINE
8
Black
10
56.3632
20
-100.575
11
56.3695
21
-100.577
0
LINE
8
Black
10
56.3695
20
-100.577
11
56.3761
21
-100.578
0
LINE
8
Black
10
56.3761
20
-100.578
11
56.3818
21
-100.582
0
LINE
8
Black
10
56.3818
20
-100.582
11
56.3881
21
-100.584
0
LINE
8
Black
10
56.3881
20
-100.584
11
56.3932
21
-100.588
0
LINE
8
Black
10
56.3932
20
-100.588
11
56.399
21
-100.592
0
LINE
8
Black
10
56.399
20
-100.592
11
56.4033
21
-100.597
0
LINE
8
Black
10
56.4033
20
-100.597
11
56.4084
21
-100.601
0
LINE
8
Black
10
56.4084
20
-100.601
11
56.4117
21
-100.607
0
LINE
8
Black
10
56.4117
20
-100.607
11
56.416
21
-100.612
0
LINE
8
Black
10
56.416
20
-100.612
11
56.4183
21
-100.618
0
LINE
8
Black
10
56.4183
20
-100.618
11
56.4216
21
-100.624
0
LINE
8
Black
10
56.4216
20
-100.624
11
56.4228
21
-100.631
0
LINE
8
Black
10
56.4228
20
-100.631
11
56.425
21
-100.637
0
LINE
8
Black
10
56.425
20
-100.637
11
56.425
21
-100.643
0
LINE
8
Black
10
56.425
20
-100.643
11
56.4262
21
-100.65
0
LINE
8
Black
10
56.4262
20
-100.65
11
56.4262
21
-113.35
0
LINE
8
Black
10
56.4262
20
-113.35
11
56.425
21
-113.357
0
LINE
8
Black
10
56.425
20
-113.357
11
56.425
21
-113.363
0
LINE
8
Black
10
56.425
20
-113.363
11
56.4228
21
-113.369
0
LINE
8
Black
10
56.4228
20
-113.369
11
56.4216
21
-113.376
0
LINE
8
Black
10
56.4216
20
-113.376
11
56.4183
21
-113.382
0
LINE
8
Black
10
56.4183
20
-113.382
11
56.416
21
-113.388
0
LINE
8
Black
10
56.416
20
-113.388
11
56.4117
21
-113.393
0
LINE
8
Black
10
56.4117
20
-113.393
11
56.4084
21
-113.399
0
LINE
8
Black
10
56.4084
20
-113.399
11
56.4033
21
-113.403
0
LINE
8
Black
10
56.4033
20
-113.403
11
56.399
21
-113.408
0
LINE
8
Black
10
56.399
20
-113.408
11
56.3932
21
-113.412
0
LINE
8
Black
10
56.3932
20
-113.412
11
56.3881
21
-113.416
0
LINE
8
Black
10
56.3881
20
-113.416
11
56.3818
21
-113.418
0
LINE
8
Black
10
56.3818
20
-113.418
11
56.3761
21
-113.422
0
LINE
8
Black
10
56.3761
20
-113.422
11
56.3695
21
-113.423
0
LINE
8
Black
10
56.3695
20
-113.423
11
56.3632
21
-113.425
0
LINE
8
Black
10
56.3632
20
-113.425
11
56.3566
21
-113.425
0
LINE
8
Black
10
56.3566
20
-113.425
11
56.35
21
-113.426
0
LINE
8
Black
10
56.35
20
-113.426
11
43.65
21
-113.426
0
LINE
8
Black
10
43.65
20
-113.426
11
43.6434
21
-113.425
0
LINE
8
Black
10
43.6434
20
-113.425
11
43.6368
21
-113.425
0
LINE
8
Black
10
43.6368
20
-113.425
11
43.6305
21
-113.423
0
LINE
8
Black
10
43.6305
20
-113.423
11
43.6239
21
-113.422
0
LINE
8
Black
10
43.6239
20
-113.422
11
43.6182
21
-113.418
0
LINE
8
Black
10
43.6182
20
-113.418
11
43.6119
21
-113.416
0
LINE
8
Black
10
43.6119
20
-113.416
11
43.6068
21
-113.412
0
LINE
8
Black
10
43.6068
20
-113.412
11
43.601
21
-113.408
0
LINE
8
Black
10
43.601
20
-113.408
11
43.5967
21
-113.403
0
LINE
8
Black
10
43.5967
20
-113.403
11
43.5916
21
-113.399
0
LINE
8
Black
10
43.5916
20
-113.399
11
43.5883
21
-113.393
0
LINE
8
Black
10
43.5883
20
-113.393
11
43.584
21
-113.388
0
LINE
8
Black
10
43.584
20
-113.388
11
43.5817
21
-113.382
0
LINE
8
Black
10
43.5817
20
-113.382
11
43.5784
21
-113.376
0
LINE
8
Black
10
43.5784
20
-113.376
11
43.5772
21
-113.369
0
LINE
8
Black
10
43.5772
20
-113.369
11
43.575
21
-113.363
0
LINE
8
Black
10
43.575
20
-113.363
11
43.575
21
-113.357
0
LINE
8
Black
10
43.575
20
-113.357
11
43.5738
21
-113.35
0
LINE
8
Black
10
43.5738
20
-113.35
11
43.5738
21
-100.65
0
LINE
8
Black
10
43.5738
20
-100.65
11
43.575
21
-100.643
0
LINE
8
Black
10
43.575
20
-100.643
11
43.575
21
-100.637
0
LINE
8
Black
10
43.575
20
-100.637
11
43.5772
21
-100.631
0
LINE
8
Black
10
43.5772
20
-100.631
11
43.5784
21
-100.624
0
LINE
8
Black
10
43.5784
20
-100.624
11
43.5817
21
-100.618
0
LINE
8
Black
10
43.5817
20
-100.618
11
43.584
21
-100.612
0
LINE
8
Black
10
43.584
20
-100.612
11
43.5883
21
-100.607
0
LINE
8
Black
10
43.5883
20
-100.607
11
43.5916
21
-100.601
0
LINE
8
Black
10
43.5916
20
-100.601
11
43.5967
21
-100.597
0
LINE
8
Black
10
43.5967
20
-100.597
11
43.601
21
-100.592
0
LINE
8
Black
10
43.601
20
-100.592
11
43.6068
21
-100.588
0
LINE
8
Black
10
43.6068
20
-100.588
11
43.6119
21
-100.584
0
LINE
8
Black
10
43.6119
20
-100.584
11
43.6182
21
-100.582
0
LINE
8
Black
10
43.6182
20
-100.582
11
43.6239
21
-100.578
0
LINE
8
Black
10
43.6239
20
-100.578
11
43.6305
21
-100.577
0
LINE
8
Black
10
43.6305
20
-100.577
11
43.6368
21
-100.575
0
LINE
8
Black
10
43.6368
20
-100.575
11
43.6434
21
-100.575
0
LINE
8
Black
10
43.6434
20
-100.575
11
43.65
21
-100.574
0
LINE
8
Black
10
43.65
20
-100.574
11
56.35
21
-100.574
0
LINE
8
Black
10
56.35
20
-100.574
11
56.3566
21
-100.575
0
LINE
8
Black
10
43.7262
20
-100.726
11
43.7262
21
-113.274
0
LINE
8
Black
10
43.7262
20
-113.274
11
56.2738
21
-113.274
0
LINE
8
Black
10
56.2738
20
-113.274
11
56.2738
21
-100.726
0
LINE
8
Black
10
56.2738
20
-100.726
11
43.7262
21
-100.726
0
LINE
8
Black
10
113.357
20
-81.575
11
113.363
21
-81.575
0
LINE
8
Black
10
113.363
20
-81.575
11
113.369
21
-81.5772
0
LINE
8
Black
10
113.369
20
-81.5772
11
113.376
21
-81.5784
0
LINE
8
Black
10
113.376
20
-81.5784
11
113.382
21
-81.5817
0
LINE
8
Black
10
113.382
20
-81.5817
11
113.388
21
-81.584
0
LINE
8
Black
10
113.388
20
-81.584
11
113.393
21
-81.5883
0
LINE
8
Black
10
113.393
20
-81.5883
11
113.399
21
-81.5916
0
LINE
8
Black
10
113.399
20
-81.5916
11
113.403
21
-81.5967
0
LINE
8
Black
10
113.403
20
-81.5967
11
113.408
21
-81.601
0
LINE
8
Black
10
113.408
20
-81.601
11
113.412
21
-81.6068
0
LINE
8
Black
10
113.412
20
-81.6068
11
113.416
21
-81.6119
0
LINE
8
Black
10
113.416
20
-81.6119
11
113.418
21
-81.6182
0
LINE
8
Black
10
113.418
20
-81.6182
11
113.422
21
-81.6239
0
LINE
8
Black
10
113.422
20
-81.6239
11
113.423
21
-81.6305
0
LINE
8
Black
10
113.423
20
-81.6305
11
113.425
21
-81.6368
0
LINE
8
Black
10
113.425
20
-81.6368
11
113.425
21
-81.6434
0
LINE
8
Black
10
113.425
20
-81.6434
11
113.426
21
-81.65
0
LINE
8
Black
10
113.426
20
-81.65
11
113.426
21
-94.35
0
LINE
8
Black
10
113.426
20
-94.35
11
113.425
21
-94.3566
0
LINE
8
Black
10
113.425
20
-94.3566
11
113.425
21
-94.3632
0
LINE
8
Black
10
113.425
20
-94.3632
11
113.423
21
-94.3695
0
LINE
8
Black
10
113.423
20
-94.3695
11
113.422
21
-94.3761
0
LINE
8
Black
10
113.422
20
-94.3761
11
113.418
21
-94.3818
0
LINE
8
Black
10
113.418
20
-94.3818
11
113.416
21
-94.3881
0
LINE
8
Black
10
113.416
20
-94.3881
11
113.412
21
-94.3932
0
LINE
8
Black
10
113.412
20
-94.3932
11
113.408
21
-94.399
0
LINE
8
Black
10
113.408
20
-94.399
11
113.403
21
-94.4033
0
LINE
8
Black
10
113.403
20
-94.4033
11
113.399
21
-94.4084
0
LINE
8
Black
10
113.399
20
-94.4084
11
113.393
21
-94.4117
0
LINE
8
Black
10
113.393
20
-94.4117
11
113.388
21
-94.416
0
LINE
8
Black
10
113.388
20
-94.416
11
113.382
21
-94.4183
0
LINE
8
Black
10
113.382
20
-94.4183
11
113.376
21
-94.4216
0
LINE
8
Black
10
113.376
20
-94.4216
11
113.369
21
-94.4228
0
LINE
8
Black
10
113.369
20
-94.4228
11
113.363
21
-94.425
0
LINE
8
Black
10
113.363
20
-94.425
11
113.357
21
-94.425
0
LINE
8
Black
10
113.357
20
-94.425
11
113.35
21
-94.4262
0
LINE
8
Black
10
113.35
20
-94.4262
11
100.65
21
-94.4262
0
LINE
8
Black
10
100.65
20
-94.4262
11
100.643
21
-94.425
0
LINE
8
Black
10
100.643
20
-94.425
11
100.637
21
-94.425
0
LINE
8
Black
10
100.637
20
-94.425
11
100.631
21
-94.4228
0
LINE
8
Black
10
100.631
20
-94.4228
11
100.624
21
-94.4216
0
LINE
8
Black
10
100.624
20
-94.4216
11
100.618
21
-94.4183
0
LINE
8
Black
10
100.618
20
-94.4183
11
100.612
21
-94.416
0
LINE
8
Black
10
100.612
20
-94.416
11
100.607
21
-94.4117
0
LINE
8
Black
10
100.607
20
-94.4117
11
100.601
21
-94.4084
0
LINE
8
Black
10
100.601
20
-94.4084
11
100.597
21
-94.4033
0
LINE
8
Black
10
100.597
20
-94.4033
11
100.592
21
-94.399
0
LINE
8
Black
10
100.592
20
-94.399
11
100.588
21
-94.3932
0
LINE
8
Black
10
100.588
20
-94.3932
11
100.584
21
-94.3881
0
LINE
8
Black
10
100.584
20
-94.3881
11
100.582
21
-94.3818
0
LINE
8
Black
10
100.582
20
-94.3818
11
100.578
21
-94.3761
0
LINE
8
Black
10
100.578
20
-94.3761
11
100.577
21
-94.3695
0
LINE
8
Black
10
100.577
20
-94.3695
11
100.575
21
-94.3632
0
LINE
8
Black
10
100.575
20
-94.3632
11
100.575
21
-94.3566
0
LINE
8
Black
10
100.575
20
-94.3566
11
100.574
21
-94.35
0
LINE
8
Black
10
100.574
20
-94.35
11
100.574
21
-81.65
0
LINE
8
Black
10
100.574
20
-81.65
11
100.575
21
-81.6434
0
LINE
8
Black
10
100.575
20
-81.6434
11
100.575
21
-81.6368
0
LINE
8
Black
10
100.575
20
-81.6368
11
100.577
21
-81.6305
0
LINE
8
Black
10
100.577
20
-81.6305
11
100.578
21
-81.6239
0
LINE
8
Black
10
100.578
20
-81.6239
11
100.582
21
-81.6182
0
LINE
8
Black
10
100.582
20
-81.6182
11
100.584
21
-81.6119
0
LINE
8
Black
10
100.584
20
-81.6119
11
100.588
21
-81.6068
0
LINE
8
Black
10
100.588
20
-81.6068
11
100.592
21
-81.601
0
LINE
8
Black
10
100.592
20
-81.601
11
100.597
21
-81.5967
0
LINE
8
Black
10
100.597
20
-81.5967
11
100.601
21
-81.5916
0
LINE
8
Black
10
100.601
20
-81.5916
11
100.607
21
-81.5883
0
LINE
8
Black
10
100.607
20
-81.5883
11
100.612
21
-81.584
0
LINE
8
Black
10
100.612
20
-81.584
11
100.618
21
-81.5817
0
LINE
8
Black
10
100.618
20
-81.5817
11
100.624
21
-81.5784
0
LINE
8
Black
10
100.624
20
-81.5784
11
100.631
21
-81.5772
0
LINE
8
Black
10
100.631
20
-81.5772
11
100.637
21
-81.575
0
LINE
8
Black
10
100.637
20
-81.575
11
100.643
21
-81.575
0
LINE
8
Black
10
100.643
20
-81.575
11
100.65
21
-81.5738
0
LINE
8
Black
10
100.65
20
-81.5738
11
113.35
21
-81.5738
0
LINE
8
Black
10
113.35
20
-81.5738
11
113.357
21
-81.575
0
LINE
8
Black
10
100.726
20
-81.7262
11
100.726
21
-94.2738
0
LINE
8
Black
10
100.726
20
-94.2738
11
113.274
21
-94.2738
0
LINE
8
Black
10
113.274
20
-94.2738
11
113.274
21
-81.7262
0
LINE
8
Black
10
113.274
20
-81.7262
11
100.726
21
-81.7262
0
LINE
8
Black
10
151.357
20
-81.575
11
151.363
21
-81.575
0
LINE
8
Black
10
151.363
20
-81.575
11
151.369
21
-81.5772
0
LINE
8
Black
10
151.369
20
-81.5772
11
151.376
21
-81.5784
0
LINE
8
Black
10
151.376
20
-81.5784
11
151.382
21
-81.5817
0
LINE
8
Black
10
151.382
20
-81.5817
11
151.388
21
-81.584
0
LINE
8
Black
10
151.388
20
-81.584
11
151.393
21
-81.5883
0
LINE
8
Black
10
151.393
20
-81.5883
11
151.399
21
-81.5916
0
LINE
8
Black
10
151.399
20
-81.5916
11
151.403
21
-81.5967
0
LINE
8
Black
10
151.403
20
-81.5967
11
151.408
21
-81.601
0
LINE
8
Black
10
151.408
20
-81.601
11
151.412
21
-81.6068
0
LINE
8
Black
10
151.412
20
-81.6068
11
151.416
21
-81.6119
0
LINE
8
Black
10
151.416
20
-81.6119
11
151.418
21
-81.6182
0
LINE
8
Black
10
151.418
20
-81.6182
11
151.422
21
-81.6239
0
LINE
8
Black
10
151.422
20
-81.6239
11
151.423
21
-81.6305
0
LINE
8
Black
10
151.423
20
-81.6305
11
151.425
21
-81.6368
0
LINE
8
Black
10
151.425
20
-81.6368
11
151.425
21
-81.6434
0
LINE
8
Black
10
151.425
20
-81.6434
11
151.426
21
-81.65
0
LINE
8
Black
10
151.426
20
-81.65
11
151.426
21
-94.35
0
LINE
8
Black
10
151.426
20
-94.35
11
151.425
21
-94.3566
0
LINE
8
Black
10
151.425
20
-94.3566
11
151.425
21
-94.3632
0
LINE
8
Black
10
151.425
20
-94.3632
11
151.423
21
-94.3695
0
LINE
8
Black
10
151.423
20
-94.3695
11
151.422
21
-94.3761
0
LINE
8
Black
10
151.422
20
-94.3761
11
151.418
21
-94.3818
0
LINE
8
Black
10
151.418
20
-94.3818
11
151.416
21
-94.3881
0
LINE
8
Black
10
151.416
20
-94.3881
11
151.412
21
-94.3932
0
LINE
8
Black
10
151.412
20
-94.3932
11
151.408
21
-94.399
0
LINE
8
Black
10
151.408
20
-94.399
11
151.403
21
-94.4033
0
LINE
8
Black
10
151.403
20
-94.4033
11
151.399
21
-94.4084
0
LINE
8
Black
10
151.399
20
-94.4084
11
151.393
21
-94.4117
0
LINE
8
Black
10
151.393
20
-94.4117
11
151.388
21
-94.416
0
LINE
8
Black
10
151.388
20
-94.416
11
151.382
21
-94.4183
0
LINE
8
Black
10
151.382
20
-94.4183
11
151.376
21
-94.4216
0
LINE
8
Black
10
151.376
20
-94.4216
11
151.369
21
-94.4228
0
LINE
8
Black
10
151.369
20
-94.4228
11
151.363
21
-94.425
0
LINE
8
Black
10
151.363
20
-94.425
11
151.357
21
-94.425
0
LINE
8
Black
10
151.357
20
-94.425
11
151.35
21
-94.4262
0
LINE
8
Black
10
151.35
20
-94.4262
11
138.65
21
-94.4262
0
LINE
8
Black
10
138.65
20
-94.4262
11
138.643
21
-94.425
0
LINE
8
Black
10
138.643
20
-94.425
11
138.637
21
-94.425
0
LINE
8
Black
10
138.637
20
-94.425
11
138.631
21
-94.4228
0
LINE
8
Black
10
138.631
20
-94.4228
11
138.624
21
-94.4216
0
LINE
8
Black
10
138.624
20
-94.4216
11
138.618
21
-94.4183
0
LINE
8
Black
10
138.618
20
-94.4183
11
138.612
21
-94.416
0
LINE
8
Black
10
138.612
20
-94.416
11
138.607
21
-94.4117
0
LINE
8
Black
10
138.607
20
-94.4117
11
138.601
21
-94.4084
0
LINE
8
Black
10
138.601
20
-94.4084
11
138.597
21
-94.4033
0
LINE
8
Black
10
138.597
20
-94.4033
11
138.592
21
-94.399
0
LINE
8
Black
10
138.592
20
-94.399
11
138.588
21
-94.3932
0
LINE
8
Black
10
138.588
20
-94.3932
11
138.584
21
-94.3881
0
LINE
8
Black
10
138.584
20
-94.3881
11
138.582
21
-94.3818
0
LINE
8
Black
10
138.582
20
-94.3818
11
138.578
21
-94.3761
0
LINE
8
Black
10
138.578
20
-94.3761
11
138.577
21
-94.3695
0
LINE
8
Black
10
138.577
20
-94.3695
11
138.575
21
-94.3632
0
LINE
8
Black
10
138.575
20
-94.3632
11
138.575
21
-94.3566
0
LINE
8
Black
10
138.575
20
-94.3566
11
138.574
21
-94.35
0
LINE
8
Black
10
138.574
20
-94.35
11
138.574
21
-81.65
0
LINE
8
Black
10
138.574
20
-81.65
11
138.575
21
-81.6434
0
LINE
8
Black
10
138.575
20
-81.6434
11
138.575
21
-81.6368
0
LINE
8
Black
10
138.575
20
-81.6368
11
138.577
21
-81.6305
0
LINE
8
Black
10
138.577
20
-81.6305
11
138.578
21
-81.6239
0
LINE
8
Black
10
138.578
20
-81.6239
11
138.582
21
-81.6182
0
LINE
8
Black
10
138.582
20
-81.6182
11
138.584
21
-81.6119
0
LINE
8
Black
10
138.584
20
-81.6119
11
138.588
21
-81.6068
0
LINE
8
Black
10
138.588
20
-81.6068
11
138.592
21
-81.601
0
LINE
8
Black
10
138.592
20
-81.601
11
138.597
21
-81.5967
0
LINE
8
Black
10
138.597
20
-81.5967
11
138.601
21
-81.5916
0
LINE
8
Black
10
138.601
20
-81.5916
11
138.607
21
-81.5883
0
LINE
8
Black
10
138.607
20
-81.5883
11
138.612
21
-81.584
0
LINE
8
Black
10
138.612
20
-81.584
11
138.618
21
-81.5817
0
LINE
8
Black
10
138.618
20
-81.5817
11
138.624
21
-81.5784
0
LINE
8
Black
10
138.624
20
-81.5784
11
138.631
21
-81.5772
0
LINE
8
Black
10
138.631
20
-81.5772
11
138.637
21
-81.575
0
LINE
8
Black
10
138.637
20
-81.575
11
138.643
21
-81.575
0
LINE
8
Black
10
138.643
20
-81.575
11
138.65
21
-81.5738
0
LINE
8
Black
10
138.65
20
-81.5738
11
151.35
21
-81.5738
0
LINE
8
Black
10
151.35
20
-81.5738
11
151.357
21
-81.575
0
LINE
8
Black
10
138.726
20
-81.7262
11
138.726
21
-94.2738
0
LINE
8
Black
10
138.726
20
-94.2738
11
151.274
21
-94.2738
0
LINE
8
Black
10
151.274
20
-94.2738
11
151.274
21
-81.7262
0
LINE
8
Black
10
151.274
20
-81.7262
11
138.726
21
-81.7262
0
LINE
8
Black
10
132.357
20
-81.575
11
132.363
21
-81.575
0
LINE
8
Black
10
132.363
20
-81.575
11
132.369
21
-81.5772
0
LINE
8
Black
10
132.369
20
-81.5772
11
132.376
21
-81.5784
0
LINE
8
Black
10
132.376
20
-81.5784
11
132.382
21
-81.5817
0
LINE
8
Black
10
132.382
20
-81.5817
11
132.388
21
-81.584
0
LINE
8
Black
10
132.388
20
-81.584
11
132.393
21
-81.5883
0
LINE
8
Black
10
132.393
20
-81.5883
11
132.399
21
-81.5916
0
LINE
8
Black
10
132.399
20
-81.5916
11
132.403
21
-81.5967
0
LINE
8
Black
10
132.403
20
-81.5967
11
132.408
21
-81.601
0
LINE
8
Black
10
132.408
20
-81.601
11
132.412
21
-81.6068
0
LINE
8
Black
10
132.412
20
-81.6068
11
132.416
21
-81.6119
0
LINE
8
Black
10
132.416
20
-81.6119
11
132.418
21
-81.6182
0
LINE
8
Black
10
132.418
20
-81.6182
11
132.422
21
-81.6239
0
LINE
8
Black
10
132.422
20
-81.6239
11
132.423
21
-81.6305
0
LINE
8
Black
10
132.423
20
-81.6305
11
132.425
21
-81.6368
0
LINE
8
Black
10
132.425
20
-81.6368
11
132.425
21
-81.6434
0
LINE
8
Black
10
132.425
20
-81.6434
11
132.426
21
-81.65
0
LINE
8
Black
10
132.426
20
-81.65
11
132.426
21
-94.35
0
LINE
8
Black
10
132.426
20
-94.35
11
132.425
21
-94.3566
0
LINE
8
Black
10
132.425
20
-94.3566
11
132.425
21
-94.3632
0
LINE
8
Black
10
132.425
20
-94.3632
11
132.423
21
-94.3695
0
LINE
8
Black
10
132.423
20
-94.3695
11
132.422
21
-94.3761
0
LINE
8
Black
10
132.422
20
-94.3761
11
132.418
21
-94.3818
0
LINE
8
Black
10
132.418
20
-94.3818
11
132.416
21
-94.3881
0
LINE
8
Black
10
132.416
20
-94.3881
11
132.412
21
-94.3932
0
LINE
8
Black
10
132.412
20
-94.3932
11
132.408
21
-94.399
0
LINE
8
Black
10
132.408
20
-94.399
11
132.403
21
-94.4033
0
LINE
8
Black
10
132.403
20
-94.4033
11
132.399
21
-94.4084
0
LINE
8
Black
10
132.399
20
-94.4084
11
132.393
21
-94.4117
0
LINE
8
Black
10
132.393
20
-94.4117
11
132.388
21
-94.416
0
LINE
8
Black
10
132.388
20
-94.416
11
132.382
21
-94.4183
0
LINE
8
Black
10
132.382
20
-94.4183
11
132.376
21
-94.4216
0
LINE
8
Black
10
132.376
20
-94.4216
11
132.369
21
-94.4228
0
LINE
8
Black
10
132.369
20
-94.4228
11
132.363
21
-94.425
0
LINE
8
Black
10
132.363
20
-94.425
11
132.357
21
-94.425
0
LINE
8
Black
10
132.357
20
-94.425
11
132.35
21
-94.4262
0
LINE
8
Black
10
132.35
20
-94.4262
11
119.65
21
-94.4262
0
LINE
8
Black
10
119.65
20
-94.4262
11
119.643
21
-94.425
0
LINE
8
Black
10
119.643
20
-94.425
11
119.637
21
-94.425
0
LINE
8
Black
10
119.637
20
-94.425
11
119.631
21
-94.4228
0
LINE
8
Black
10
119.631
20
-94.4228
11
119.624
21
-94.4216
0
LINE
8
Black
10
119.624
20
-94.4216
11
119.618
21
-94.4183
0
LINE
8
Black
10
119.618
20
-94.4183
11
119.612
21
-94.416
0
LINE
8
Black
10
119.612
20
-94.416
11
119.607
21
-94.4117
0
LINE
8
Black
10
119.607
20
-94.4117
11
119.601
21
-94.4084
0
LINE
8
Black
10
119.601
20
-94.4084
11
119.597
21
-94.4033
0
LINE
8
Black
10
119.597
20
-94.4033
11
119.592
21
-94.399
0
LINE
8
Black
10
119.592
20
-94.399
11
119.588
21
-94.3932
0
LINE
8
Black
10
119.588
20
-94.3932
11
119.584
21
-94.3881
0
LINE
8
Black
10
119.584
20
-94.3881
11
119.582
21
-94.3818
0
LINE
8
Black
10
119.582
20
-94.3818
11
119.578
21
-94.3761
0
LINE
8
Black
10
119.578
20
-94.3761
11
119.577
21
-94.3695
0
LINE
8
Black
10
119.577
20
-94.3695
11
119.575
21
-94.3632
0
LINE
8
Black
10
119.575
20
-94.3632
11
119.575
21
-94.3566
0
LINE
8
Black
10
119.575
20
-94.3566
11
119.574
21
-94.35
0
LINE
8
Black
10
119.574
20
-94.35
11
119.574
21
-81.65
0
LINE
8
Black
10
119.574
20
-81.65
11
119.575
21
-81.6434
0
LINE
8
Black
10
119.575
20
-81.6434
11
119.575
21
-81.6368
0
LINE
8
Black
10
119.575
20
-81.6368
11
119.577
21
-81.6305
0
LINE
8
Black
10
119.577
20
-81.6305
11
119.578
21
-81.6239
0
LINE
8
Black
10
119.578
20
-81.6239
11
119.582
21
-81.6182
0
LINE
8
Black
10
119.582
20
-81.6182
11
119.584
21
-81.6119
0
LINE
8
Black
10
119.584
20
-81.6119
11
119.588
21
-81.6068
0
LINE
8
Black
10
119.588
20
-81.6068
11
119.592
21
-81.601
0
LINE
8
Black
10
119.592
20
-81.601
11
119.597
21
-81.5967
0
LINE
8
Black
10
119.597
20
-81.5967
11
119.601
21
-81.5916
0
LINE
8
Black
10
119.601
20
-81.5916
11
119.607
21
-81.5883
0
LINE
8
Black
10
119.607
20
-81.5883
11
119.612
21
-81.584
0
LINE
8
Black
10
119.612
20
-81.584
11
119.618
21
-81.5817
0
LINE
8
Black
10
119.618
20
-81.5817
11
119.624
21
-81.5784
0
LINE
8
Black
10
119.624
20
-81.5784
11
119.631
21
-81.5772
0
LINE
8
Black
10
119.631
20
-81.5772
11
119.637
21
-81.575
0
LINE
8
Black
10
119.637
20
-81.575
11
119.643
21
-81.575
0
LINE
8
Black
10
119.643
20
-81.575
11
119.65
21
-81.5738
0
LINE
8
Black
10
119.65
20
-81.5738
11
132.35
21
-81.5738
0
LINE
8
Black
10
132.35
20
-81.5738
11
132.357
21
-81.575
0
LINE
8
Black
10
119.726
20
-81.7262
11
119.726
21
-94.2738
0
LINE
8
Black
10
119.726
20
-94.2738
11
132.274
21
-94.2738
0
LINE
8
Black
10
132.274
20
-94.2738
11
132.274
21
-81.7262
0
LINE
8
Black
10
132.274
20
-81.7262
11
119.726
21
-81.7262
0
LINE
8
Black
10
94.3566
20
-81.575
11
94.3632
21
-81.575
0
LINE
8
Black
10
94.3632
20
-81.575
11
94.3695
21
-81.5772
0
LINE
8
Black
10
94.3695
20
-81.5772
11
94.3761
21
-81.5784
0
LINE
8
Black
10
94.3761
20
-81.5784
11
94.3818
21
-81.5817
0
LINE
8
Black
10
94.3818
20
-81.5817
11
94.3881
21
-81.584
0
LINE
8
Black
10
94.3881
20
-81.584
11
94.3932
21
-81.5883
0
LINE
8
Black
10
94.3932
20
-81.5883
11
94.399
21
-81.5916
0
LINE
8
Black
10
94.399
20
-81.5916
11
94.4033
21
-81.5967
0
LINE
8
Black
10
94.4033
20
-81.5967
11
94.4084
21
-81.601
0
LINE
8
Black
10
94.4084
20
-81.601
11
94.4117
21
-81.6068
0
LINE
8
Black
10
94.4117
20
-81.6068
11
94.416
21
-81.6119
0
LINE
8
Black
10
94.416
20
-81.6119
11
94.4183
21
-81.6182
0
LINE
8
Black
10
94.4183
20
-81.6182
11
94.4216
21
-81.6239
0
LINE
8
Black
10
94.4216
20
-81.6239
11
94.4228
21
-81.6305
0
LINE
8
Black
10
94.4228
20
-81.6305
11
94.425
21
-81.6368
0
LINE
8
Black
10
94.425
20
-81.6368
11
94.425
21
-81.6434
0
LINE
8
Black
10
94.425
20
-81.6434
11
94.4262
21
-81.65
0
LINE
8
Black
10
94.4262
20
-81.65
11
94.4262
21
-94.35
0
LINE
8
Black
10
94.4262
20
-94.35
11
94.425
21
-94.3566
0
LINE
8
Black
10
94.425
20
-94.3566
11
94.425
21
-94.3632
0
LINE
8
Black
10
94.425
20
-94.3632
11
94.4228
21
-94.3695
0
LINE
8
Black
10
94.4228
20
-94.3695
11
94.4216
21
-94.3761
0
LINE
8
Black
10
94.4216
20
-94.3761
11
94.4183
21
-94.3818
0
LINE
8
Black
10
94.4183
20
-94.3818
11
94.416
21
-94.3881
0
LINE
8
Black
10
94.416
20
-94.3881
11
94.4117
21
-94.3932
0
LINE
8
Black
10
94.4117
20
-94.3932
11
94.4084
21
-94.399
0
LINE
8
Black
10
94.4084
20
-94.399
11
94.4033
21
-94.4033
0
LINE
8
Black
10
94.4033
20
-94.4033
11
94.399
21
-94.4084
0
LINE
8
Black
10
94.399
20
-94.4084
11
94.3932
21
-94.4117
0
LINE
8
Black
10
94.3932
20
-94.4117
11
94.3881
21
-94.416
0
LINE
8
Black
10
94.3881
20
-94.416
11
94.3818
21
-94.4183
0
LINE
8
Black
10
94.3818
20
-94.4183
11
94.3761
21
-94.4216
0
LINE
8
Black
10
94.3761
20
-94.4216
11
94.3695
21
-94.4228
0
LINE
8
Black
10
94.3695
20
-94.4228
11
94.3632
21
-94.425
0
LINE
8
Black
10
94.3632
20
-94.425
11
94.3566
21
-94.425
0
LINE
8
Black
10
94.3566
20
-94.425
11
94.35
21
-94.4262
0
LINE
8
Black
10
94.35
20
-94.4262
11
81.65
21
-94.4262
0
LINE
8
Black
10
81.65
20
-94.4262
11
81.6434
21
-94.425
0
LINE
8
Black
10
81.6434
20
-94.425
11
81.6368
21
-94.425
0
LINE
8
Black
10
81.6368
20
-94.425
11
81.6305
21
-94.4228
0
LINE
8
Black
10
81.6305
20
-94.4228
11
81.6239
21
-94.4216
0
LINE
8
Black
10
81.6239
20
-94.4216
11
81.6182
21
-94.4183
0
LINE
8
Black
10
81.6182
20
-94.4183
11
81.6119
21
-94.416
0
LINE
8
Black
10
81.6119
20
-94.416
11
81.6068
21
-94.4117
0
LINE
8
Black
10
81.6068
20
-94.4117
11
81.601
21
-94.4084
0
LINE
8
Black
10
81.601
20
-94.4084
11
81.5967
21
-94.4033
0
LINE
8
Black
10
81.5967
20
-94.4033
11
81.5916
21
-94.399
0
LINE
8
Black
10
81.5916
20
-94.399
11
81.5883
21
-94.3932
0
LINE
8
Black
10
81.5883
20
-94.3932
11
81.584
21
-94.3881
0
LINE
8
Black
10
81.584
20
-94.3881
11
81.5817
21
-94.3818
0
LINE
8
Black
10
81.5817
20
-94.3818
11
81.5784
21
-94.3761
0
LINE
8
Black
10
81.5784
20
-94.3761
11
81.5772
21
-94.3695
0
LINE
8
Black
10
81.5772
20
-94.3695
11
81.575
21
-94.3632
0
LINE
8
Black
10
81.575
20
-94.3632
11
81.575
21
-94.3566
0
LINE
8
Black
10
81.575
20
-94.3566
11
81.5738
21
-94.35
0
LINE
8
Black
10
81.5738
20
-94.35
11
81.5738
21
-81.65
0
LINE
8
Black
10
81.5738
20
-81.65
11
81.575
21
-81.6434
0
LINE
8
Black
10
81.575
20
-81.6434
11
81.575
21
-81.6368
0
LINE
8
Black
10
81.575
20
-81.6368
11
81.5772
21
-81.6305
0
LINE
8
Black
10
81.5772
20
-81.6305
11
81.5784
21
-81.6239
0
LINE
8
Black
10
81.5784
20
-81.6239
11
81.5817
21
-81.6182
0
LINE
8
Black
10
81.5817
20
-81.6182
11
81.584
21
-81.6119
0
LINE
8
Black
10
81.584
20
-81.6119
11
81.5883
21
-81.6068
0
LINE
8
Black
10
81.5883
20
-81.6068
11
81.5916
21
-81.601
0
LINE
8
Black
10
81.5916
20
-81.601
11
81.5967
21
-81.5967
0
LINE
8
Black
10
81.5967
20
-81.5967
11
81.601
21
-81.5916
0
LINE
8
Black
10
81.601
20
-81.5916
11
81.6068
21
-81.5883
0
LINE
8
Black
10
81.6068
20
-81.5883
11
81.6119
21
-81.584
0
LINE
8
Black
10
81.6119
20
-81.584
11
81.6182
21
-81.5817
0
LINE
8
Black
10
81.6182
20
-81.5817
11
81.6239
21
-81.5784
0
LINE
8
Black
10
81.6239
20
-81.5784
11
81.6305
21
-81.5772
0
LINE
8
Black
10
81.6305
20
-81.5772
11
81.6368
21
-81.575
0
LINE
8
Black
10
81.6368
20
-81.575
11
81.6434
21
-81.575
0
LINE
8
Black
10
81.6434
20
-81.575
11
81.65
21
-81.5738
0
LINE
8
Black
10
81.65
20
-81.5738
11
94.35
21
-81.5738
0
LINE
8
Black
10
94.35
20
-81.5738
11
94.3566
21
-81.575
0
LINE
8
Black
10
81.7262
20
-81.7262
11
81.7262
21
-94.2738
0
LINE
8
Black
10
81.7262
20
-94.2738
11
94.2738
21
-94.2738
0
LINE
8
Black
10
94.2738
20
-94.2738
11
94.2738
21
-81.7262
0
LINE
8
Black
10
94.2738
20
-81.7262
11
81.7262
21
-81.7262
0
LINE
8
Black
10
75.3566
20
-81.575
11
75.3632
21
-81.575
0
LINE
8
Black
10
75.3632
20
-81.575
11
75.3695
21
-81.5772
0
LINE
8
Black
10
75.3695
20
-81.5772
11
75.3761
21
-81.5784
0
LINE
8
Black
10
75.3761
20
-81.5784
11
75.3818
21
-81.5817
0
LINE
8
Black
10
75.3818
20
-81.5817
11
75.3881
21
-81.584
0
LINE
8
Black
10
75.3881
20
-81.584
11
75.3932
21
-81.5883
0
LINE
8
Black
10
75.3932
20
-81.5883
11
75.399
21
-81.5916
0
LINE
8
Black
10
75.399
20
-81.5916
11
75.4033
21
-81.5967
0
LINE
8
Black
10
75.4033
20
-81.5967
11
75.4084
21
-81.601
0
LINE
8
Black
10
75.4084
20
-81.601
11
75.4117
21
-81.6068
0
LINE
8
Black
10
75.4117
20
-81.6068
11
75.416
21
-81.6119
0
LINE
8
Black
10
75.416
20
-81.6119
11
75.4183
21
-81.6182
0
LINE
8
Black
10
75.4183
20
-81.6182
11
75.4216
21
-81.6239
0
LINE
8
Black
10
75.4216
20
-81.6239
11
75.4228
21
-81.6305
0
LINE
8
Black
10
75.4228
20
-81.6305
11
75.425
21
-81.6368
0
LINE
8
Black
10
75.425
20
-81.6368
11
75.425
21
-81.6434
0
LINE
8
Black
10
75.425
20
-81.6434
11
75.4262
21
-81.65
0
LINE
8
Black
10
75.4262
20
-81.65
11
75.4262
21
-94.35
0
LINE
8
Black
10
75.4262
20
-94.35
11
75.425
21
-94.3566
0
LINE
8
Black
10
75.425
20
-94.3566
11
75.425
21
-94.3632
0
LINE
8
Black
10
75.425
20
-94.3632
11
75.4228
21
-94.3695
0
LINE
8
Black
10
75.4228
20
-94.3695
11
75.4216
21
-94.3761
0
LINE
8
Black
10
75.4216
20
-94.3761
11
75.4183
21
-94.3818
0
LINE
8
Black
10
75.4183
20
-94.3818
11
75.416
21
-94.3881
0
LINE
8
Black
10
75.416
20
-94.3881
11
75.4117
21
-94.3932
0
LINE
8
Black
10
75.4117
20
-94.3932
11
75.4084
21
-94.399
0
LINE
8
Black
10
75.4084
20
-94.399
11
75.4033
21
-94.4033
0
LINE
8
Black
10
75.4033
20
-94.4033
11
75.399
21
-94.4084
0
LINE
8
Black
10
75.399
20
-94.4084
11
75.3932
21
-94.4117
0
LINE
8
Black
10
75.3932
20
-94.4117
11
75.3881
21
-94.416
0
LINE
8
Black
10
75.3881
20
-94.416
11
75.3818
21
-94.4183
0
LINE
8
Black
10
75.3818
20
-94.4183
11
75.3761
21
-94.4216
0
LINE
8
Black
10
75.3761
20
-94.4216
11
75.3695
21
-94.4228
0
LINE
8
Black
10
75.3695
20
-94.4228
11
75.3632
21
-94.425
0
LINE
8
Black
10
75.3632
20
-94.425
11
75.3566
21
-94.425
0
LINE
8
Black
10
75.3566
20
-94.425
11
75.35
21
-94.4262
0
LINE
8
Black
10
75.35
20
-94.4262
11
62.65
21
-94.4262
0
LINE
8
Black
10
62.65
20
-94.4262
11
62.6434
21
-94.425
0
LINE
8
Black
10
62.6434
20
-94.425
11
62.6368
21
-94.425
0
LINE
8
Black
10
62.6368
20
-94.425
11
62.6305
21
-94.4228
0
LINE
8
Black
10
62.6305
20
-94.4228
11
62.6239
21
-94.4216
0
LINE
8
Black
10
62.6239
20
-94.4216
11
62.6182
21
-94.4183
0
LINE
8
Black
10
62.6182
20
-94.4183
11
62.6119
21
-94.416
0
LINE
8
Black
10
62.6119
20
-94.416
11
62.6068
21
-94.4117
0
LINE
8
Black
10
62.6068
20
-94.4117
11
62.601
21
-94.4084
0
LINE
8
Black
10
62.601
20
-94.4084
11
62.5967
21
-94.4033
0
LINE
8
Black
10
62.5967
20
-94.4033
11
62.5916
21
-94.399
0
LINE
8
Black
10
62.5916
20
-94.399
11
62.5883
21
-94.3932
0
LINE
8
Black
10
62.5883
20
-94.3932
11
62.584
21
-94.3881
0
LINE
8
Black
10
62.584
20
-94.3881
11
62.5817
21
-94.3818
0
LINE
8
Black
10
62.5817
20
-94.3818
11
62.5784
21
-94.3761
0
LINE
8
Black
10
62.5784
20
-94.3761
11
62.5772
21
-94.3695
0
LINE
8
Black
10
62.5772
20
-94.3695
11
62.575
21
-94.3632
0
LINE
8
Black
10
62.575
20
-94.3632
11
62.575
21
-94.3566
0
LINE
8
Black
10
62.575
20
-94.3566
11
62.5738
21
-94.35
0
LINE
8
Black
10
62.5738
20
-94.35
11
62.5738
21
-81.65
0
LINE
8
Black
10
62.5738
20
-81.65
11
62.575
21
-81.6434
0
LINE
8
Black
10
62.575
20
-81.6434
11
62.575
21
-81.6368
0
LINE
8
Black
10
62.575
20
-81.6368
11
62.5772
21
-81.6305
0
LINE
8
Black
10
62.5772
20
-81.6305
11
62.5784
21
-81.6239
0
LINE
8
Black
10
62.5784
20
-81.6239
11
62.5817
21
-81.6182
0
LINE
8
Black
10
62.5817
20
-81.6182
11
62.584
21
-81.6119
0
LINE
8
Black
10
62.584
20
-81.6119
11
62.5883
21
-81.6068
0
LINE
8
Black
10
62.5883
20
-81.6068
11
62.5916
21
-81.601
0
LINE
8
Black
10
62.5916
20
-81.601
11
62.5967
21
-81.5967
0
LINE
8
Black
10
62.5967
20
-81.5967
11
62.601
21
-81.5916
0
LINE
8
Black
10
62.601
20
-81.5916
11
62.6068
21
-81.5883
0
LINE
8
Black
10
62.6068
20
-81.5883
11
62.6119
21
-81.584
0
LINE
8
Black
10
62.6119
20
-81.584
11
62.6182
21
-81.5817
0
LINE
8
Black
10
62.6182
20
-81.5817
11
62.6239
21
-81.5784
0
LINE
8
Black
10
62.6239
20
-81.5784
11
62.6305
21
-81.5772
0
LINE
8
Black
10
62.6305
20
-81.5772
11
62.6368
21
-81.575
0
LINE
8
Black
10
62.6368
20
-81.575
11
62.6434
21
-81.575
0
LINE
8
Black
10
62.6434
20
-81.575
11
62.65
21
-81.5738
0
LINE
8
Black
10
62.65
20
-81.5738
11
75.35
21
-81.5738
0
LINE
8
Black
10
75.35
20
-81.5738
11
75.3566
21
-81.575
0
LINE
8
Black
10
62.7262
20
-81.7262
11
62.7262
21
-94.2738
0
LINE
8
Black
10
62.7262
20
-94.2738
11
75.2738
21
-94.2738
0
LINE
8
Black
10
75.2738
20
-94.2738
11
75.2738
21
-81.7262
0
LINE
8
Black
10
75.2738
20
-81.7262
11
62.7262
21
-81.7262
0
LINE
8
Black
10
56.3566
20
-81.575
11
56.3632
21
-81.575
0
LINE
8
Black
10
56.3632
20
-81.575
11
56.3695
21
-81.5772
0
LINE
8
Black
10
56.3695
20
-81.5772
11
56.3761
21
-81.5784
0
LINE
8
Black
10
56.3761
20
-81.5784
11
56.3818
21
-81.5817
0
LINE
8
Black
10
56.3818
20
-81.5817
11
56.3881
21
-81.584
0
LINE
8
Black
10
56.3881
20
-81.584
11
56.3932
21
-81.5883
0
LINE
8
Black
10
56.3932
20
-81.5883
11
56.399
21
-81.5916
0
LINE
8
Black
10
56.399
20
-81.5916
11
56.4033
21
-81.5967
0
LINE
8
Black
10
56.4033
20
-81.5967
11
56.4084
21
-81.601
0
LINE
8
Black
10
56.4084
20
-81.601
11
56.4117
21
-81.6068
0
LINE
8
Black
10
56.4117
20
-81.6068
11
56.416
21
-81.6119
0
LINE
8
Black
10
56.416
20
-81.6119
11
56.4183
21
-81.6182
0
LINE
8
Black
10
56.4183
20
-81.6182
11
56.4216
21
-81.6239
0
LINE
8
Black
10
56.4216
20
-81.6239
11
56.4228
21
-81.6305
0
LINE
8
Black
10
56.4228
20
-81.6305
11
56.425
21
-81.6368
0
LINE
8
Black
10
56.425
20
-81.6368
11
56.425
21
-81.6434
0
LINE
8
Black
10
56.425
20
-81.6434
11
56.4262
21
-81.65
0
LINE
8
Black
10
56.4262
20
-81.65
11
56.4262
21
-94.35
0
LINE
8
Black
10
56.4262
20
-94.35
11
56.425
21
-94.3566
0
LINE
8
Black
10
56.425
20
-94.3566
11
56.425
21
-94.3632
0
LINE
8
Black
10
56.425
20
-94.3632
11
56.4228
21
-94.3695
0
LINE
8
Black
10
56.4228
20
-94.3695
11
56.4216
21
-94.3761
0
LINE
8
Black
10
56.4216
20
-94.3761
11
56.4183
21
-94.3818
0
LINE
8
Black
10
56.4183
20
-94.3818
11
56.416
21
-94.3881
0
LINE
8
Black
10
56.416
20
-94.3881
11
56.4117
21
-94.3932
0
LINE
8
Black
10
56.4117
20
-94.3932
11
56.4084
21
-94.399
0
LINE
8
Black
10
56.4084
20
-94.399
11
56.4033
21
-94.4033
0
LINE
8
Black
10
56.4033
20
-94.4033
11
56.399
21
-94.4084
0
LINE
8
Black
10
56.399
20
-94.4084
11
56.3932
21
-94.4117
0
LINE
8
Black
10
56.3932
20
-94.4117
11
56.3881
21
-94.416
0
LINE
8
Black
10
56.3881
20
-94.416
11
56.3818
21
-94.4183
0
LINE
8
Black
10
56.3818
20
-94.4183
11
56.3761
21
-94.4216
0
LINE
8
Black
10
56.3761
20
-94.4216
11
56.3695
21
-94.4228
0
LINE
8
Black
10
56.3695
20
-94.4228
11
56.3632
21
-94.425
0
LINE
8
Black
10
56.3632
20
-94.425
11
56.3566
21
-94.425
0
LINE
8
Black
10
56.3566
20
-94.425
11
56.35
21
-94.4262
0
LINE
8
Black
10
56.35
20
-94.4262
11
43.65
21
-94.4262
0
LINE
8
Black
10
43.65
20
-94.4262
11
43.6434
21
-94.425
0
LINE
8
Black
10
43.6434
20
-94.425
11
43.6368
21
-94.425
0
LINE
8
Black
10
43.6368
20
-94.425
11
43.6305
21
-94.4228
0
LINE
8
Black
10
43.6305
20
-94.4228
11
43.6239
21
-94.4216
0
LINE
8
Black
10
43.6239
20
-94.4216
11
43.6182
21
-94.4183
0
LINE
8
Black
10
43.6182
20
-94.4183
11
43.6119
21
-94.416
0
LINE
8
Black
10
43.6119
20
-94.416
11
43.6068
21
-94.4117
0
LINE
8
Black
10
43.6068
20
-94.4117
11
43.601
21
-94.4084
0
LINE
8
Black
10
43.601
20
-94.4084
11
43.5967
21
-94.4033
0
LINE
8
Black
10
43.5967
20
-94.4033
11
43.5916
21
-94.399
0
LINE
8
Black
10
43.5916
20
-94.399
11
43.5883
21
-94.3932
0
LINE
8
Black
10
43.5883
20
-94.3932
11
43.584
21
-94.3881
0
LINE
8
Black
10
43.584
20
-94.3881
11
43.5817
21
-94.3818
0
LINE
8
Black
10
43.5817
20
-94.3818
11
43.5784
21
-94.3761
0
LINE
8
Black
10
43.5784
20
-94.3761
11
43.5772
21
-94.3695
0
LINE
8
Black
10
43.5772
20
-94.3695
11
43.575
21
-94.3632
0
LINE
8
Black
10
43.575
20
-94.3632
11
43.575
21
-94.3566
0
LINE
8
Black
10
43.575
20
-94.3566
11
43.5738
21
-94.35
0
LINE
8
Black
10
43.5738
20
-94.35
11
43.5738
21
-81.65
0
LINE
8
Black
10
43.5738
20
-81.65
11
43.575
21
-81.6434
0
LINE
8
Black
10
43.575
20
-81.6434
11
43.575
21
-81.6368
0
LINE
8
Black
10
43.575
20
-81.6368
11
43.5772
21
-81.6305
0
LINE
8
Black
10
43.5772
20
-81.6305
11
43.5784
21
-81.6239
0
LINE
8
Black
10
43.5784
20
-81.6239
11
43.5817
21
-81.6182
0
LINE
8
Black
10
43.5817
20
-81.6182
11
43.584
21
-81.6119
0
LINE
8
Black
10
43.584
20
-81.6119
11
43.5883
21
-81.6068
0
LINE
8
Black
10
43.5883
20
-81.6068
11
43.5916
21
-81.601
0
LINE
8
Black
10
43.5916
20
-81.601
11
43.5967
21
-81.5967
0
LINE
8
Black
10
43.5967
20
-81.5967
11
43.601
21
-81.5916
0
LINE
8
Black
10
43.601
20
-81.5916
11
43.6068
21
-81.5883
0
LINE
8
Black
10
43.6068
20
-81.5883
11
43.6119
21
-81.584
0
LINE
8
Black
10
43.6119
20
-81.584
11
43.6182
21
-81.5817
0
LINE
8
Black
10
43.6182
20
-81.5817
11
43.6239
21
-81.5784
0
LINE
8
Black
10
43.6239
20
-81.5784
11
43.6305
21
-81.5772
0
LINE
8
Black
10
43.6305
20
-81.5772
11
43.6368
21
-81.575
0
LINE
8
Black
10
43.6368
20
-81.575
11
43.6434
21
-81.575
0
LINE
8
Black
10
43.6434
20
-81.575
11
43.65
21
-81.5738
0
LINE
8
Black
10
43.65
20
-81.5738
11
56.35
21
-81.5738
0
LINE
8
Black
10
56.35
20
-81.5738
11
56.3566
21
-81.575
0
LINE
8
Black
10
43.7262
20
-81.7262
11
43.7262
21
-94.2738
0
LINE
8
Black
10
43.7262
20
-94.2738
11
56.2738
21
-94.2738
0
LINE
8
Black
10
56.2738
20
-94.2738
11
56.2738
21
-81.7262
0
LINE
8
Black
10
56.2738
20
-81.7262
11
43.7262
21
-81.7262
0
LINE
8
Black
10
151.357
20
-62.575
11
151.363
21
-62.575
0
LINE
8
Black
10
151.363
20
-62.575
11
151.369
21
-62.5772
0
LINE
8
Black
10
151.369
20
-62.5772
11
151.376
21
-62.5784
0
LINE
8
Black
10
151.376
20
-62.5784
11
151.382
21
-62.5817
0
LINE
8
Black
10
151.382
20
-62.5817
11
151.388
21
-62.584
0
LINE
8
Black
10
151.388
20
-62.584
11
151.393
21
-62.5883
0
LINE
8
Black
10
151.393
20
-62.5883
11
151.399
21
-62.5916
0
LINE
8
Black
10
151.399
20
-62.5916
11
151.403
21
-62.5967
0
LINE
8
Black
10
151.403
20
-62.5967
11
151.408
21
-62.601
0
LINE
8
Black
10
151.408
20
-62.601
11
151.412
21
-62.6068
0
LINE
8
Black
10
151.412
20
-62.6068
11
151.416
21
-62.6119
0
LINE
8
Black
10
151.416
20
-62.6119
11
151.418
21
-62.6182
0
LINE
8
Black
10
151.418
20
-62.6182
11
151.422
21
-62.6239
0
LINE
8
Black
10
151.422
20
-62.6239
11
151.423
21
-62.6305
0
LINE
8
Black
10
151.423
20
-62.6305
11
151.425
21
-62.6368
0
LINE
8
Black
10
151.425
20
-62.6368
11
151.425
21
-62.6434
0
LINE
8
Black
10
151.425
20
-62.6434
11
151.426
21
-62.65
0
LINE
8
Black
10
151.426
20
-62.65
11
151.426
21
-75.35
0
LINE
8
Black
10
151.426
20
-75.35
11
151.425
21
-75.3566
0
LINE
8
Black
10
151.425
20
-75.3566
11
151.425
21
-75.3632
0
LINE
8
Black
10
151.425
20
-75.3632
11
151.423
21
-75.3695
0
LINE
8
Black
10
151.423
20
-75.3695
11
151.422
21
-75.3761
0
LINE
8
Black
10
151.422
20
-75.3761
11
151.418
21
-75.3818
0
LINE
8
Black
10
151.418
20
-75.3818
11
151.416
21
-75.3881
0
LINE
8
Black
10
151.416
20
-75.3881
11
151.412
21
-75.3932
0
LINE
8
Black
10
151.412
20
-75.3932
11
151.408
21
-75.399
0
LINE
8
Black
10
151.408
20
-75.399
11
151.403
21
-75.4033
0
LINE
8
Black
10
151.403
20
-75.4033
11
151.399
21
-75.4084
0
LINE
8
Black
10
151.399
20
-75.4084
11
151.393
21
-75.4117
0
LINE
8
Black
10
151.393
20
-75.4117
11
151.388
21
-75.416
0
LINE
8
Black
10
151.388
20
-75.416
11
151.382
21
-75.4183
0
LINE
8
Black
10
151.382
20
-75.4183
11
151.376
21
-75.4216
0
LINE
8
Black
10
151.376
20
-75.4216
11
151.369
21
-75.4228
0
LINE
8
Black
10
151.369
20
-75.4228
11
151.363
21
-75.425
0
LINE
8
Black
10
151.363
20
-75.425
11
151.357
21
-75.425
0
LINE
8
Black
10
151.357
20
-75.425
11
151.35
21
-75.4262
0
LINE
8
Black
10
151.35
20
-75.4262
11
138.65
21
-75.4262
0
LINE
8
Black
10
138.65
20
-75.4262
11
138.643
21
-75.425
0
LINE
8
Black
10
138.643
20
-75.425
11
138.637
21
-75.425
0
LINE
8
Black
10
138.637
20
-75.425
11
138.631
21
-75.4228
0
LINE
8
Black
10
138.631
20
-75.4228
11
138.624
21
-75.4216
0
LINE
8
Black
10
138.624
20
-75.4216
11
138.618
21
-75.4183
0
LINE
8
Black
10
138.618
20
-75.4183
11
138.612
21
-75.416
0
LINE
8
Black
10
138.612
20
-75.416
11
138.607
21
-75.4117
0
LINE
8
Black
10
138.607
20
-75.4117
11
138.601
21
-75.4084
0
LINE
8
Black
10
138.601
20
-75.4084
11
138.597
21
-75.4033
0
LINE
8
Black
10
138.597
20
-75.4033
11
138.592
21
-75.399
0
LINE
8
Black
10
138.592
20
-75.399
11
138.588
21
-75.3932
0
LINE
8
Black
10
138.588
20
-75.3932
11
138.584
21
-75.3881
0
LINE
8
Black
10
138.584
20
-75.3881
11
138.582
21
-75.3818
0
LINE
8
Black
10
138.582
20
-75.3818
11
138.578
21
-75.3761
0
LINE
8
Black
10
138.578
20
-75.3761
11
138.577
21
-75.3695
0
LINE
8
Black
10
138.577
20
-75.3695
11
138.575
21
-75.3632
0
LINE
8
Black
10
138.575
20
-75.3632
11
138.575
21
-75.3566
0
LINE
8
Black
10
138.575
20
-75.3566
11
138.574
21
-75.35
0
LINE
8
Black
10
138.574
20
-75.35
11
138.574
21
-62.65
0
LINE
8
Black
10
138.574
20
-62.65
11
138.575
21
-62.6434
0
LINE
8
Black
10
138.575
20
-62.6434
11
138.575
21
-62.6368
0
LINE
8
Black
10
138.575
20
-62.6368
11
138.577
21
-62.6305
0
LINE
8
Black
10
138.577
20
-62.6305
11
138.578
21
-62.6239
0
LINE
8
Black
10
138.578
20
-62.6239
11
138.582
21
-62.6182
0
LINE
8
Black
10
138.582
20
-62.6182
11
138.584
21
-62.6119
0
LINE
8
Black
10
138.584
20
-62.6119
11
138.588
21
-62.6068
0
LINE
8
Black
10
138.588
20
-62.6068
11
138.592
21
-62.601
0
LINE
8
Black
10
138.592
20
-62.601
11
138.597
21
-62.5967
0
LINE
8
Black
10
138.597
20
-62.5967
11
138.601
21
-62.5916
0
LINE
8
Black
10
138.601
20
-62.5916
11
138.607
21
-62.5883
0
LINE
8
Black
10
138.607
20
-62.5883
11
138.612
21
-62.584
0
LINE
8
Black
10
138.612
20
-62.584
11
138.618
21
-62.5817
0
LINE
8
Black
10
138.618
20
-62.5817
11
138.624
21
-62.5784
0
LINE
8
Black
10
138.624
20
-62.5784
11
138.631
21
-62.5772
0
LINE
8
Black
10
138.631
20
-62.5772
11
138.637
21
-62.575
0
LINE
8
Black
10
138.637
20
-62.575
11
138.643
21
-62.575
0
LINE
8
Black
10
138.643
20
-62.575
11
138.65
21
-62.5738
0
LINE
8
Black
10
138.65
20
-62.5738
11
151.35
21
-62.5738
0
LINE
8
Black
10
151.35
20
-62.5738
11
151.357
21
-62.575
0
LINE
8
Black
10
138.726
20
-62.7262
11
138.726
21
-75.2738
0
LINE
8
Black
10
138.726
20
-75.2738
11
151.274
21
-75.2738
0
LINE
8
Black
10
151.274
20
-75.2738
11
151.274
21
-62.7262
0
LINE
8
Black
10
151.274
20
-62.7262
11
138.726
21
-62.7262
0
LINE
8
Black
10
56.3566
20
-62.575
11
56.3632
21
-62.575
0
LINE
8
Black
10
56.3632
20
-62.575
11
56.3695
21
-62.5772
0
LINE
8
Black
10
56.3695
20
-62.5772
11
56.3761
21
-62.5784
0
LINE
8
Black
10
56.3761
20
-62.5784
11
56.3818
21
-62.5817
0
LINE
8
Black
10
56.3818
20
-62.5817
11
56.3881
21
-62.584
0
LINE
8
Black
10
56.3881
20
-62.584
11
56.3932
21
-62.5883
0
LINE
8
Black
10
56.3932
20
-62.5883
11
56.399
21
-62.5916
0
LINE
8
Black
10
56.399
20
-62.5916
11
56.4033
21
-62.5967
0
LINE
8
Black
10
56.4033
20
-62.5967
11
56.4084
21
-62.601
0
LINE
8
Black
10
56.4084
20
-62.601
11
56.4117
21
-62.6068
0
LINE
8
Black
10
56.4117
20
-62.6068
11
56.416
21
-62.6119
0
LINE
8
Black
10
56.416
20
-62.6119
11
56.4183
21
-62.6182
0
LINE
8
Black
10
56.4183
20
-62.6182
11
56.4216
21
-62.6239
0
LINE
8
Black
10
56.4216
20
-62.6239
11
56.4228
21
-62.6305
0
LINE
8
Black
10
56.4228
20
-62.6305
11
56.425
21
-62.6368
0
LINE
8
Black
10
56.425
20
-62.6368
11
56.425
21
-62.6434
0
LINE
8
Black
10
56.425
20
-62.6434
11
56.4262
21
-62.65
0
LINE
8
Black
10
56.4262
20
-62.65
11
56.4262
21
-75.35
0
LINE
8
Black
10
56.4262
20
-75.35
11
56.425
21
-75.3566
0
LINE
8
Black
10
56.425
20
-75.3566
11
56.425
21
-75.3632
0
LINE
8
Black
10
56.425
20
-75.3632
11
56.4228
21
-75.3695
0
LINE
8
Black
10
56.4228
20
-75.3695
11
56.4216
21
-75.3761
0
LINE
8
Black
10
56.4216
20
-75.3761
11
56.4183
21
-75.3818
0
LINE
8
Black
10
56.4183
20
-75.3818
11
56.416
21
-75.3881
0
LINE
8
Black
10
56.416
20
-75.3881
11
56.4117
21
-75.3932
0
LINE
8
Black
10
56.4117
20
-75.3932
11
56.4084
21
-75.399
0
LINE
8
Black
10
56.4084
20
-75.399
11
56.4033
21
-75.4033
0
LINE
8
Black
10
56.4033
20
-75.4033
11
56.399
21
-75.4084
0
LINE
8
Black
10
56.399
20
-75.4084
11
56.3932
21
-75.4117
0
LINE
8
Black
10
56.3932
20
-75.4117
11
56.3881
21
-75.416
0
LINE
8
Black
10
56.3881
20
-75.416
11
56.3818
21
-75.4183
0
LINE
8
Black
10
56.3818
20
-75.4183
11
56.3761
21
-75.4216
0
LINE
8
Black
10
56.3761
20
-75.4216
11
56.3695
21
-75.4228
0
LINE
8
Black
10
56.3695
20
-75.4228
11
56.3632
21
-75.425
0
LINE
8
Black
10
56.3632
20
-75.425
11
56.3566
21
-75.425
0
LINE
8
Black
10
56.3566
20
-75.425
11
56.35
21
-75.4262
0
LINE
8
Black
10
56.35
20
-75.4262
11
43.65
21
-75.4262
0
LINE
8
Black
10
43.65
20
-75.4262
11
43.6434
21
-75.425
0
LINE
8
Black
10
43.6434
20
-75.425
11
43.6368
21
-75.425
0
LINE
8
Black
10
43.6368
20
-75.425
11
43.6305
21
-75.4228
0
LINE
8
Black
10
43.6305
20
-75.4228
11
43.6239
21
-75.4216
0
LINE
8
Black
10
43.6239
20
-75.4216
11
43.6182
21
-75.4183
0
LINE
8
Black
10
43.6182
20
-75.4183
11
43.6119
21
-75.416
0
LINE
8
Black
10
43.6119
20
-75.416
11
43.6068
21
-75.4117
0
LINE
8
Black
10
43.6068
20
-75.4117
11
43.601
21
-75.4084
0
LINE
8
Black
10
43.601
20
-75.4084
11
43.5967
21
-75.4033
0
LINE
8
Black
10
43.5967
20
-75.4033
11
43.5916
21
-75.399
0
LINE
8
Black
10
43.5916
20
-75.399
11
43.5883
21
-75.3932
0
LINE
8
Black
10
43.5883
20
-75.3932
11
43.584
21
-75.3881
0
LINE
8
Black
10
43.584
20
-75.3881
11
43.5817
21
-75.3818
0
LINE
8
Black
10
43.5817
20
-75.3818
11
43.5784
21
-75.3761
0
LINE
8
Black
10
43.5784
20
-75.3761
11
43.5772
21
-75.3695
0
LINE
8
Black
10
43.5772
20
-75.3695
11
43.575
21
-75.3632
0
LINE
8
Black
10
43.575
20
-75.3632
11
43.575
21
-75.3566
0
LINE
8
Black
10
43.575
20
-75.3566
11
43.5738
21
-75.35
0
LINE
8
Black
10
43.5738
20
-75.35
11
43.5738
21
-62.65
0
LINE
8
Black
10
43.5738
20
-62.65
11
43.575
21
-62.6434
0
LINE
8
Black
10
43.575
20
-62.6434
11
43.575
21
-62.6368
0
LINE
8
Black
10
43.575
20
-62.6368
11
43.5772
21
-62.6305
0
LINE
8
Black
10
43.5772
20
-62.6305
11
43.5784
21
-62.6239
0
LINE
8
Black
10
43.5784
20
-62.6239
11
43.5817
21
-62.6182
0
LINE
8
Black
10
43.5817
20
-62.6182
11
43.584
21
-62.6119
0
LINE
8
Black
10
43.584
20
-62.6119
11
43.5883
21
-62.6068
0
LINE
8
Black
10
43.5883
20
-62.6068
11
43.5916
21
-62.601
0
LINE
8
Black
10
43.5916
20
-62.601
11
43.5967
21
-62.5967
0
LINE
8
Black
10
43.5967
20
-62.5967
11
43.601
21
-62.5916
0
LINE
8
Black
10
43.601
20
-62.5916
11
43.6068
21
-62.5883
0
LINE
8
Black
10
43.6068
20
-62.5883
11
43.6119
21
-62.584
0
LINE
8
Black
10
43.6119
20
-62.584
11
43.6182
21
-62.5817
0
LINE
8
Black
10
43.6182
20
-62.5817
11
43.6239
21
-62.5784
0
LINE
8
Black
10
43.6239
20
-62.5784
11
43.6305
21
-62.5772
0
LINE
8
Black
10
43.6305
20
-62.5772
11
43.6368
21
-62.575
0
LINE
8
Black
10
43.6368
20
-62.575
11
43.6434
21
-62.575
0
LINE
8
Black
10
43.6434
20
-62.575
11
43.65
21
-62.5738
0
LINE
8
Black
10
43.65
20
-62.5738
11
56.35
21
-62.5738
0
LINE
8
Black
10
56.35
20
-62.5738
11
56.3566
21
-62.575
0
LINE
8
Black
10
43.7262
20
-62.7262
11
43.7262
21
-75.2738
0
LINE
8
Black
10
43.7262
20
-75.2738
11
56.2738
21
-75.2738
0
LINE
8
Black
10
56.2738
20
-75.2738
11
56.2738
21
-62.7262
0
LINE
8
Black
10
56.2738
20
-62.7262
11
43.7262
21
-62.7262
0
LINE
8
Black
10
113.357
20
-62.575
11
113.363
21
-62.575
0
LINE
8
Black
10
113.363
20
-62.575
11
113.369
21
-62.5772
0
LINE
8
Black
10
113.369
20
-62.5772
11
113.376
21
-62.5784
0
LINE
8
Black
10
113.376
20
-62.5784
11
113.382
21
-62.5817
0
LINE
8
Black
10
113.382
20
-62.5817
11
113.388
21
-62.584
0
LINE
8
Black
10
113.388
20
-62.584
11
113.393
21
-62.5883
0
LINE
8
Black
10
113.393
20
-62.5883
11
113.399
21
-62.5916
0
LINE
8
Black
10
113.399
20
-62.5916
11
113.403
21
-62.5967
0
LINE
8
Black
10
113.403
20
-62.5967
11
113.408
21
-62.601
0
LINE
8
Black
10
113.408
20
-62.601
11
113.412
21
-62.6068
0
LINE
8
Black
10
113.412
20
-62.6068
11
113.416
21
-62.6119
0
LINE
8
Black
10
113.416
20
-62.6119
11
113.418
21
-62.6182
0
LINE
8
Black
10
113.418
20
-62.6182
11
113.422
21
-62.6239
0
LINE
8
Black
10
113.422
20
-62.6239
11
113.423
21
-62.6305
0
LINE
8
Black
10
113.423
20
-62.6305
11
113.425
21
-62.6368
0
LINE
8
Black
10
113.425
20
-62.6368
11
113.425
21
-62.6434
0
LINE
8
Black
10
113.425
20
-62.6434
11
113.426
21
-62.65
0
LINE
8
Black
10
113.426
20
-62.65
11
113.426
21
-75.35
0
LINE
8
Black
10
113.426
20
-75.35
11
113.425
21
-75.3566
0
LINE
8
Black
10
113.425
20
-75.3566
11
113.425
21
-75.3632
0
LINE
8
Black
10
113.425
20
-75.3632
11
113.423
21
-75.3695
0
LINE
8
Black
10
113.423
20
-75.3695
11
113.422
21
-75.3761
0
LINE
8
Black
10
113.422
20
-75.3761
11
113.418
21
-75.3818
0
LINE
8
Black
10
113.418
20
-75.3818
11
113.416
21
-75.3881
0
LINE
8
Black
10
113.416
20
-75.3881
11
113.412
21
-75.3932
0
LINE
8
Black
10
113.412
20
-75.3932
11
113.408
21
-75.399
0
LINE
8
Black
10
113.408
20
-75.399
11
113.403
21
-75.4033
0
LINE
8
Black
10
113.403
20
-75.4033
11
113.399
21
-75.4084
0
LINE
8
Black
10
113.399
20
-75.4084
11
113.393
21
-75.4117
0
LINE
8
Black
10
113.393
20
-75.4117
11
113.388
21
-75.416
0
LINE
8
Black
10
113.388
20
-75.416
11
113.382
21
-75.4183
0
LINE
8
Black
10
113.382
20
-75.4183
11
113.376
21
-75.4216
0
LINE
8
Black
10
113.376
20
-75.4216
11
113.369
21
-75.4228
0
LINE
8
Black
10
113.369
20
-75.4228
11
113.363
21
-75.425
0
LINE
8
Black
10
113.363
20
-75.425
11
113.357
21
-75.425
0
LINE
8
Black
10
113.357
20
-75.425
11
113.35
21
-75.4262
0
LINE
8
Black
10
113.35
20
-75.4262
11
100.65
21
-75.4262
0
LINE
8
Black
10
100.65
20
-75.4262
11
100.643
21
-75.425
0
LINE
8
Black
10
100.643
20
-75.425
11
100.637
21
-75.425
0
LINE
8
Black
10
100.637
20
-75.425
11
100.631
21
-75.4228
0
LINE
8
Black
10
100.631
20
-75.4228
11
100.624
21
-75.4216
0
LINE
8
Black
10
100.624
20
-75.4216
11
100.618
21
-75.4183
0
LINE
8
Black
10
100.618
20
-75.4183
11
100.612
21
-75.416
0
LINE
8
Black
10
100.612
20
-75.416
11
100.607
21
-75.4117
0
LINE
8
Black
10
100.607
20
-75.4117
11
100.601
21
-75.4084
0
LINE
8
Black
10
100.601
20
-75.4084
11
100.597
21
-75.4033
0
LINE
8
Black
10
100.597
20
-75.4033
11
100.592
21
-75.399
0
LINE
8
Black
10
100.592
20
-75.399
11
100.588
21
-75.3932
0
LINE
8
Black
10
100.588
20
-75.3932
11
100.584
21
-75.3881
0
LINE
8
Black
10
100.584
20
-75.3881
11
100.582
21
-75.3818
0
LINE
8
Black
10
100.582
20
-75.3818
11
100.578
21
-75.3761
0
LINE
8
Black
10
100.578
20
-75.3761
11
100.577
21
-75.3695
0
LINE
8
Black
10
100.577
20
-75.3695
11
100.575
21
-75.3632
0
LINE
8
Black
10
100.575
20
-75.3632
11
100.575
21
-75.3566
0
LINE
8
Black
10
100.575
20
-75.3566
11
100.574
21
-75.35
0
LINE
8
Black
10
100.574
20
-75.35
11
100.574
21
-62.65
0
LINE
8
Black
10
100.574
20
-62.65
11
100.575
21
-62.6434
0
LINE
8
Black
10
100.575
20
-62.6434
11
100.575
21
-62.6368
0
LINE
8
Black
10
100.575
20
-62.6368
11
100.577
21
-62.6305
0
LINE
8
Black
10
100.577
20
-62.6305
11
100.578
21
-62.6239
0
LINE
8
Black
10
100.578
20
-62.6239
11
100.582
21
-62.6182
0
LINE
8
Black
10
100.582
20
-62.6182
11
100.584
21
-62.6119
0
LINE
8
Black
10
100.584
20
-62.6119
11
100.588
21
-62.6068
0
LINE
8
Black
10
100.588
20
-62.6068
11
100.592
21
-62.601
0
LINE
8
Black
10
100.592
20
-62.601
11
100.597
21
-62.5967
0
LINE
8
Black
10
100.597
20
-62.5967
11
100.601
21
-62.5916
0
LINE
8
Black
10
100.601
20
-62.5916
11
100.607
21
-62.5883
0
LINE
8
Black
10
100.607
20
-62.5883
11
100.612
21
-62.584
0
LINE
8
Black
10
100.612
20
-62.584
11
100.618
21
-62.5817
0
LINE
8
Black
10
100.618
20
-62.5817
11
100.624
21
-62.5784
0
LINE
8
Black
10
100.624
20
-62.5784
11
100.631
21
-62.5772
0
LINE
8
Black
10
100.631
20
-62.5772
11
100.637
21
-62.575
0
LINE
8
Black
10
100.637
20
-62.575
11
100.643
21
-62.575
0
LINE
8
Black
10
100.643
20
-62.575
11
100.65
21
-62.5738
0
LINE
8
Black
10
100.65
20
-62.5738
11
113.35
21
-62.5738
0
LINE
8
Black
10
113.35
20
-62.5738
11
113.357
21
-62.575
0
LINE
8
Black
10
100.726
20
-62.7262
11
100.726
21
-75.2738
0
LINE
8
Black
10
100.726
20
-75.2738
11
113.274
21
-75.2738
0
LINE
8
Black
10
113.274
20
-75.2738
11
113.274
21
-62.7262
0
LINE
8
Black
10
113.274
20
-62.7262
11
100.726
21
-62.7262
0
LINE
8
Black
10
94.3566
20
-62.575
11
94.3632
21
-62.575
0
LINE
8
Black
10
94.3632
20
-62.575
11
94.3695
21
-62.5772
0
LINE
8
Black
10
94.3695
20
-62.5772
11
94.3761
21
-62.5784
0
LINE
8
Black
10
94.3761
20
-62.5784
11
94.3818
21
-62.5817
0
LINE
8
Black
10
94.3818
20
-62.5817
11
94.3881
21
-62.584
0
LINE
8
Black
10
94.3881
20
-62.584
11
94.3932
21
-62.5883
0
LINE
8
Black
10
94.3932
20
-62.5883
11
94.399
21
-62.5916
0
LINE
8
Black
10
94.399
20
-62.5916
11
94.4033
21
-62.5967
0
LINE
8
Black
10
94.4033
20
-62.5967
11
94.4084
21
-62.601
0
LINE
8
Black
10
94.4084
20
-62.601
11
94.4117
21
-62.6068
0
LINE
8
Black
10
94.4117
20
-62.6068
11
94.416
21
-62.6119
0
LINE
8
Black
10
94.416
20
-62.6119
11
94.4183
21
-62.6182
0
LINE
8
Black
10
94.4183
20
-62.6182
11
94.4216
21
-62.6239
0
LINE
8
Black
10
94.4216
20
-62.6239
11
94.4228
21
-62.6305
0
LINE
8
Black
10
94.4228
20
-62.6305
11
94.425
21
-62.6368
0
LINE
8
Black
10
94.425
20
-62.6368
11
94.425
21
-62.6434
0
LINE
8
Black
10
94.425
20
-62.6434
11
94.4262
21
-62.65
0
LINE
8
Black
10
94.4262
20
-62.65
11
94.4262
21
-75.35
0
LINE
8
Black
10
94.4262
20
-75.35
11
94.425
21
-75.3566
0
LINE
8
Black
10
94.425
20
-75.3566
11
94.425
21
-75.3632
0
LINE
8
Black
10
94.425
20
-75.3632
11
94.4228
21
-75.3695
0
LINE
8
Black
10
94.4228
20
-75.3695
11
94.4216
21
-75.3761
0
LINE
8
Black
10
94.4216
20
-75.3761
11
94.4183
21
-75.3818
0
LINE
8
Black
10
94.4183
20
-75.3818
11
94.416
21
-75.3881
0
LINE
8
Black
10
94.416
20
-75.3881
11
94.4117
21
-75.3932
0
LINE
8
Black
10
94.4117
20
-75.3932
11
94.4084
21
-75.399
0
LINE
8
Black
10
94.4084
20
-75.399
11
94.4033
21
-75.4033
0
LINE
8
Black
10
94.4033
20
-75.4033
11
94.399
21
-75.4084
0
LINE
8
Black
10
94.399
20
-75.4084
11
94.3932
21
-75.4117
0
LINE
8
Black
10
94.3932
20
-75.4117
11
94.3881
21
-75.416
0
LINE
8
Black
10
94.3881
20
-75.416
11
94.3818
21
-75.4183
0
LINE
8
Black
10
94.3818
20
-75.4183
11
94.3761
21
-75.4216
0
LINE
8
Black
10
94.3761
20
-75.4216
11
94.3695
21
-75.4228
0
LINE
8
Black
10
94.3695
20
-75.4228
11
94.3632
21
-75.425
0
LINE
8
Black
10
94.3632
20
-75.425
11
94.3566
21
-75.425
0
LINE
8
Black
10
94.3566
20
-75.425
11
94.35
21
-75.4262
0
LINE
8
Black
10
94.35
20
-75.4262
11
81.65
21
-75.4262
0
LINE
8
Black
10
81.65
20
-75.4262
11
81.6434
21
-75.425
0
LINE
8
Black
10
81.6434
20
-75.425
11
81.6368
21
-75.425
0
LINE
8
Black
10
81.6368
20
-75.425
11
81.6305
21
-75.4228
0
LINE
8
Black
10
81.6305
20
-75.4228
11
81.6239
21
-75.4216
0
LINE
8
Black
10
81.6239
20
-75.4216
11
81.6182
21
-75.4183
0
LINE
8
Black
10
81.6182
20
-75.4183
11
81.6119
21
-75.416
0
LINE
8
Black
10
81.6119
20
-75.416
11
81.6068
21
-75.4117
0
LINE
8
Black
10
81.6068
20
-75.4117
11
81.601
21
-75.4084
0
LINE
8
Black
10
81.601
20
-75.4084
11
81.5967
21
-75.4033
0
LINE
8
Black
10
81.5967
20
-75.4033
11
81.5916
21
-75.399
0
LINE
8
Black
10
81.5916
20
-75.399
11
81.5883
21
-75.3932
0
LINE
8
Black
10
81.5883
20
-75.3932
11
81.584
21
-75.3881
0
LINE
8
Black
10
81.584
20
-75.3881
11
81.5817
21
-75.3818
0
LINE
8
Black
10
81.5817
20
-75.3818
11
81.5784
21
-75.3761
0
LINE
8
Black
10
81.5784
20
-75.3761
11
81.5772
21
-75.3695
0
LINE
8
Black
10
81.5772
20
-75.3695
11
81.575
21
-75.3632
0
LINE
8
Black
10
81.575
20
-75.3632
11
81.575
21
-75.3566
0
LINE
8
Black
10
81.575
20
-75.3566
11
81.5738
21
-75.35
0
LINE
8
Black
10
81.5738
20
-75.35
11
81.5738
21
-62.65
0
LINE
8
Black
10
81.5738
20
-62.65
11
81.575
21
-62.6434
0
LINE
8
Black
10
81.575
20
-62.6434
11
81.575
21
-62.6368
0
LINE
8
Black
10
81.575
20
-62.6368
11
81.5772
21
-62.6305
0
LINE
8
Black
10
81.5772
20
-62.6305
11
81.5784
21
-62.6239
0
LINE
8
Black
10
81.5784
20
-62.6239
11
81.5817
21
-62.6182
0
LINE
8
Black
10
81.5817
20
-62.6182
11
81.584
21
-62.6119
0
LINE
8
Black
10
81.584
20
-62.6119
11
81.5883
21
-62.6068
0
LINE
8
Black
10
81.5883
20
-62.6068
11
81.5916
21
-62.601
0
LINE
8
Black
10
81.5916
20
-62.601
11
81.5967
21
-62.5967
0
LINE
8
Black
10
81.5967
20
-62.5967
11
81.601
21
-62.5916
0
LINE
8
Black
10
81.601
20
-62.5916
11
81.6068
21
-62.5883
0
LINE
8
Black
10
81.6068
20
-62.5883
11
81.6119
21
-62.584
0
LINE
8
Black
10
81.6119
20
-62.584
11
81.6182
21
-62.5817
0
LINE
8
Black
10
81.6182
20
-62.5817
11
81.6239
21
-62.5784
0
LINE
8
Black
10
81.6239
20
-62.5784
11
81.6305
21
-62.5772
0
LINE
8
Black
10
81.6305
20
-62.5772
11
81.6368
21
-62.575
0
LINE
8
Black
10
81.6368
20
-62.575
11
81.6434
21
-62.575
0
LINE
8
Black
10
81.6434
20
-62.575
11
81.65
21
-62.5738
0
LINE
8
Black
10
81.65
20
-62.5738
11
94.35
21
-62.5738
0
LINE
8
Black
10
94.35
20
-62.5738
11
94.3566
21
-62.575
0
LINE
8
Black
10
81.7262
20
-62.7262
11
81.7262
21
-75.2738
0
LINE
8
Black
10
81.7262
20
-75.2738
11
94.2738
21
-75.2738
0
LINE
8
Black
10
94.2738
20
-75.2738
11
94.2738
21
-62.7262
0
LINE
8
Black
10
94.2738
20
-62.7262
11
81.7262
21
-62.7262
0
LINE
8
Black
10
75.3566
20
-62.575
11
75.3632
21
-62.575
0
LINE
8
Black
10
75.3632
20
-62.575
11
75.3695
21
-62.5772
0
LINE
8
Black
10
75.3695
20
-62.5772
11
75.3761
21
-62.5784
0
LINE
8
Black
10
75.3761
20
-62.5784
11
75.3818
21
-62.5817
0
LINE
8
Black
10
75.3818
20
-62.5817
11
75.3881
21
-62.584
0
LINE
8
Black
10
75.3881
20
-62.584
11
75.3932
21
-62.5883
0
LINE
8
Black
10
75.3932
20
-62.5883
11
75.399
21
-62.5916
0
LINE
8
Black
10
75.399
20
-62.5916
11
75.4033
21
-62.5967
0
LINE
8
Black
10
75.4033
20
-62.5967
11
75.4084
21
-62.601
0
LINE
8
Black
10
75.4084
20
-62.601
11
75.4117
21
-62.6068
0
LINE
8
Black
10
75.4117
20
-62.6068
11
75.416
21
-62.6119
0
LINE
8
Black
10
75.416
20
-62.6119
11
75.4183
21
-62.6182
0
LINE
8
Black
10
75.4183
20
-62.6182
11
75.4216
21
-62.6239
0
LINE
8
Black
10
75.4216
20
-62.6239
11
75.4228
21
-62.6305
0
LINE
8
Black
10
75.4228
20
-62.6305
11
75.425
21
-62.6368
0
LINE
8
Black
10
75.425
20
-62.6368
11
75.425
21
-62.6434
0
LINE
8
Black
10
75.425
20
-62.6434
11
75.4262
21
-62.65
0
LINE
8
Black
10
75.4262
20
-62.65
11
75.4262
21
-75.35
0
LINE
8
Black
10
75.4262
20
-75.35
11
75.425
21
-75.3566
0
LINE
8
Black
10
75.425
20
-75.3566
11
75.425
21
-75.3632
0
LINE
8
Black
10
75.425
20
-75.3632
11
75.4228
21
-75.3695
0
LINE
8
Black
10
75.4228
20
-75.3695
11
75.4216
21
-75.3761
0
LINE
8
Black
10
75.4216
20
-75.3761
11
75.4183
21
-75.3818
0
LINE
8
Black
10
75.4183
20
-75.3818
11
75.416
21
-75.3881
0
LINE
8
Black
10
75.416
20
-75.3881
11
75.4117
21
-75.3932
0
LINE
8
Black
10
75.4117
20
-75.3932
11
75.4084
21
-75.399
0
LINE
8
Black
10
75.4084
20
-75.399
11
75.4033
21
-75.4033
0
LINE
8
Black
10
75.4033
20
-75.4033
11
75.399
21
-75.4084
0
LINE
8
Black
10
75.399
20
-75.4084
11
75.3932
21
-75.4117
0
LINE
8
Black
10
75.3932
20
-75.4117
11
75.3881
21
-75.416
0
LINE
8
Black
10
75.3881
20
-75.416
11
75.3818
21
-75.4183
0
LINE
8
Black
10
75.3818
20
-75.4183
11
75.3761
21
-75.4216
0
LINE
8
Black
10
75.3761
20
-75.4216
11
75.3695
21
-75.4228
0
LINE
8
Black
10
75.3695
20
-75.4228
11
75.3632
21
-75.425
0
LINE
8
Black
10
75.3632
20
-75.425
11
75.3566
21
-75.425
0
LINE
8
Black
10
75.3566
20
-75.425
11
75.35
21
-75.4262
0
LINE
8
Black
10
75.35
20
-75.4262
11
62.65
21
-75.4262
0
LINE
8
Black
10
62.65
20
-75.4262
11
62.6434
21
-75.425
0
LINE
8
Black
10
62.6434
20
-75.425
11
62.6368
21
-75.425
0
LINE
8
Black
10
62.6368
20
-75.425
11
62.6305
21
-75.4228
0
LINE
8
Black
10
62.6305
20
-75.4228
11
62.6239
21
-75.4216
0
LINE
8
Black
10
62.6239
20
-75.4216
11
62.6182
21
-75.4183
0
LINE
8
Black
10
62.6182
20
-75.4183
11
62.6119
21
-75.416
0
LINE
8
Black
10
62.6119
20
-75.416
11
62.6068
21
-75.4117
0
LINE
8
Black
10
62.6068
20
-75.4117
11
62.601
21
-75.4084
0
LINE
8
Black
10
62.601
20
-75.4084
11
62.5967
21
-75.4033
0
LINE
8
Black
10
62.5967
20
-75.4033
11
62.5916
21
-75.399
0
LINE
8
Black
10
62.5916
20
-75.399
11
62.5883
21
-75.3932
0
LINE
8
Black
10
62.5883
20
-75.3932
11
62.584
21
-75.3881
0
LINE
8
Black
10
62.584
20
-75.3881
11
62.5817
21
-75.3818
0
LINE
8
Black
10
62.5817
20
-75.3818
11
62.5784
21
-75.3761
0
LINE
8
Black
10
62.5784
20
-75.3761
11
62.5772
21
-75.3695
0
LINE
8
Black
10
62.5772
20
-75.3695
11
62.575
21
-75.3632
0
LINE
8
Black
10
62.575
20
-75.3632
11
62.575
21
-75.3566
0
LINE
8
Black
10
62.575
20
-75.3566
11
62.5738
21
-75.35
0
LINE
8
Black
10
62.5738
20
-75.35
11
62.5738
21
-62.65
0
LINE
8
Black
10
62.5738
20
-62.65
11
62.575
21
-62.6434
0
LINE
8
Black
10
62.575
20
-62.6434
11
62.575
21
-62.6368
0
LINE
8
Black
10
62.575
20
-62.6368
11
62.5772
21
-62.6305
0
LINE
8
Black
10
62.5772
20
-62.6305
11
62.5784
21
-62.6239
0
LINE
8
Black
10
62.5784
20
-62.6239
11
62.5817
21
-62.6182
0
LINE
8
Black
10
62.5817
20
-62.6182
11
62.584
21
-62.6119
0
LINE
8
Black
10
62.584
20
-62.6119
11
62.5883
21
-62.6068
0
LINE
8
Black
10
62.5883
20
-62.6068
11
62.5916
21
-62.601
0
LINE
8
Black
10
62.5916
20
-62.601
11
62.5967
21
-62.5967
0
LINE
8
Black
10
62.5967
20
-62.5967
11
62.601
21
-62.5916
0
LINE
8
Black
10
62.601
20
-62.5916
11
62.6068
21
-62.5883
0
LINE
8
Black
10
62.6068
20
-62.5883
11
62.6119
21
-62.584
0
LINE
8
Black
10
62.6119
20
-62.584
11
62.6182
21
-62.5817
0
LINE
8
Black
10
62.6182
20
-62.5817
11
62.6239
21
-62.5784
0
LINE
8
Black
10
62.6239
20
-62.5784
11
62.6305
21
-62.5772
0
LINE
8
Black
10
62.6305
20
-62.5772
11
62.6368
21
-62.575
0
LINE
8
Black
10
62.6368
20
-62.575
11
62.6434
21
-62.575
0
LINE
8
Black
10
62.6434
20
-62.575
11
62.65
21
-62.5738
0
LINE
8
Black
10
62.65
20
-62.5738
11
75.35
21
-62.5738
0
LINE
8
Black
10
75.35
20
-62.5738
11
75.3566
21
-62.575
0
LINE
8
Black
10
62.7262
20
-62.7262
11
62.7262
21
-75.2738
0
LINE
8
Black
10
62.7262
20
-75.2738
11
75.2738
21
-75.2738
0
LINE
8
Black
10
75.2738
20
-75.2738
11
75.2738
21
-62.7262
0
LINE
8
Black
10
75.2738
20
-62.7262
11
62.7262
21
-62.7262
0
LINE
8
Black
10
132.357
20
-62.575
11
132.363
21
-62.575
0
LINE
8
Black
10
132.363
20
-62.575
11
132.369
21
-62.5772
0
LINE
8
Black
10
132.369
20
-62.5772
11
132.376
21
-62.5784
0
LINE
8
Black
10
132.376
20
-62.5784
11
132.382
21
-62.5817
0
LINE
8
Black
10
132.382
20
-62.5817
11
132.388
21
-62.584
0
LINE
8
Black
10
132.388
20
-62.584
11
132.393
21
-62.5883
0
LINE
8
Black
10
132.393
20
-62.5883
11
132.399
21
-62.5916
0
LINE
8
Black
10
132.399
20
-62.5916
11
132.403
21
-62.5967
0
LINE
8
Black
10
132.403
20
-62.5967
11
132.408
21
-62.601
0
LINE
8
Black
10
132.408
20
-62.601
11
132.412
21
-62.6068
0
LINE
8
Black
10
132.412
20
-62.6068
11
132.416
21
-62.6119
0
LINE
8
Black
10
132.416
20
-62.6119
11
132.418
21
-62.6182
0
LINE
8
Black
10
132.418
20
-62.6182
11
132.422
21
-62.6239
0
LINE
8
Black
10
132.422
20
-62.6239
11
132.423
21
-62.6305
0
LINE
8
Black
10
132.423
20
-62.6305
11
132.425
21
-62.6368
0
LINE
8
Black
10
132.425
20
-62.6368
11
132.425
21
-62.6434
0
LINE
8
Black
10
132.425
20
-62.6434
11
132.426
21
-62.65
0
LINE
8
Black
10
132.426
20
-62.65
11
132.426
21
-75.35
0
LINE
8
Black
10
132.426
20
-75.35
11
132.425
21
-75.3566
0
LINE
8
Black
10
132.425
20
-75.3566
11
132.425
21
-75.3632
0
LINE
8
Black
10
132.425
20
-75.3632
11
132.423
21
-75.3695
0
LINE
8
Black
10
132.423
20
-75.3695
11
132.422
21
-75.3761
0
LINE
8
Black
10
132.422
20
-75.3761
11
132.418
21
-75.3818
0
LINE
8
Black
10
132.418
20
-75.3818
11
132.416
21
-75.3881
0
LINE
8
Black
10
132.416
20
-75.3881
11
132.412
21
-75.3932
0
LINE
8
Black
10
132.412
20
-75.3932
11
132.408
21
-75.399
0
LINE
8
Black
10
132.408
20
-75.399
11
132.403
21
-75.4033
0
LINE
8
Black
10
132.403
20
-75.4033
11
132.399
21
-75.4084
0
LINE
8
Black
10
132.399
20
-75.4084
11
132.393
21
-75.4117
0
LINE
8
Black
10
132.393
20
-75.4117
11
132.388
21
-75.416
0
LINE
8
Black
10
132.388
20
-75.416
11
132.382
21
-75.4183
0
LINE
8
Black
10
132.382
20
-75.4183
11
132.376
21
-75.4216
0
LINE
8
Black
10
132.376
20
-75.4216
11
132.369
21
-75.4228
0
LINE
8
Black
10
132.369
20
-75.4228
11
132.363
21
-75.425
0
LINE
8
Black
10
132.363
20
-75.425
11
132.357
21
-75.425
0
LINE
8
Black
10
132.357
20
-75.425
11
132.35
21
-75.4262
0
LINE
8
Black
10
132.35
20
-75.4262
11
119.65
21
-75.4262
0
LINE
8
Black
10
119.65
20
-75.4262
11
119.643
21
-75.425
0
LINE
8
Black
10
119.643
20
-75.425
11
119.637
21
-75.425
0
LINE
8
Black
10
119.637
20
-75.425
11
119.631
21
-75.4228
0
LINE
8
Black
10
119.631
20
-75.4228
11
119.624
21
-75.4216
0
LINE
8
Black
10
119.624
20
-75.4216
11
119.618
21
-75.4183
0
LINE
8
Black
10
119.618
20
-75.4183
11
119.612
21
-75.416
0
LINE
8
Black
10
119.612
20
-75.416
11
119.607
21
-75.4117
0
LINE
8
Black
10
119.607
20
-75.4117
11
119.601
21
-75.4084
0
LINE
8
Black
10
119.601
20
-75.4084
11
119.597
21
-75.4033
0
LINE
8
Black
10
119.597
20
-75.4033
11
119.592
21
-75.399
0
LINE
8
Black
10
119.592
20
-75.399
11
119.588
21
-75.3932
0
LINE
8
Black
10
119.588
20
-75.3932
11
119.584
21
-75.3881
0
LINE
8
Black
10
119.584
20
-75.3881
11
119.582
21
-75.3818
0
LINE
8
Black
10
119.582
20
-75.3818
11
119.578
21
-75.3761
0
LINE
8
Black
10
119.578
20
-75.3761
11
119.577
21
-75.3695
0
LINE
8
Black
10
119.577
20
-75.3695
11
119.575
21
-75.3632
0
LINE
8
Black
10
119.575
20
-75.3632
11
119.575
21
-75.3566
0
LINE
8
Black
10
119.575
20
-75.3566
11
119.574
21
-75.35
0
LINE
8
Black
10
119.574
20
-75.35
11
119.574
21
-62.65
0
LINE
8
Black
10
119.574
20
-62.65
11
119.575
21
-62.6434
0
LINE
8
Black
10
119.575
20
-62.6434
11
119.575
21
-62.6368
0
LINE
8
Black
10
119.575
20
-62.6368
11
119.577
21
-62.6305
0
LINE
8
Black
10
119.577
20
-62.6305
11
119.578
21
-62.6239
0
LINE
8
Black
10
119.578
20
-62.6239
11
119.582
21
-62.6182
0
LINE
8
Black
10
119.582
20
-62.6182
11
119.584
21
-62.6119
0
LINE
8
Black
10
119.584
20
-62.6119
11
119.588
21
-62.6068
0
LINE
8
Black
10
119.588
20
-62.6068
11
119.592
21
-62.601
0
LINE
8
Black
10
119.592
20
-62.601
11
119.597
21
-62.5967
0
LINE
8
Black
10
119.597
20
-62.5967
11
119.601
21
-62.5916
0
LINE
8
Black
10
119.601
20
-62.5916
11
119.607
21
-62.5883
0
LINE
8
Black
10
119.607
20
-62.5883
11
119.612
21
-62.584
0
LINE
8
Black
10
119.612
20
-62.584
11
119.618
21
-62.5817
0
LINE
8
Black
10
119.618
20
-62.5817
11
119.624
21
-62.5784
0
LINE
8
Black
10
119.624
20
-62.5784
11
119.631
21
-62.5772
0
LINE
8
Black
10
119.631
20
-62.5772
11
119.637
21
-62.575
0
LINE
8
Black
10
119.637
20
-62.575
11
119.643
21
-62.575
0
LINE
8
Black
10
119.643
20
-62.575
11
119.65
21
-62.5738
0
LINE
8
Black
10
119.65
20
-62.5738
11
132.35
21
-62.5738
0
LINE
8
Black
10
132.35
20
-62.5738
11
132.357
21
-62.575
0
LINE
8
Black
10
119.726
20
-62.7262
11
119.726
21
-75.2738
0
LINE
8
Black
10
119.726
20
-75.2738
11
132.274
21
-75.2738
0
LINE
8
Black
10
132.274
20
-75.2738
11
132.274
21
-62.7262
0
LINE
8
Black
10
132.274
20
-62.7262
11
119.726
21
-62.7262
0
LINE
8
Black
10
132.357
20
-43.575
11
132.363
21
-43.575
0
LINE
8
Black
10
132.363
20
-43.575
11
132.369
21
-43.5772
0
LINE
8
Black
10
132.369
20
-43.5772
11
132.376
21
-43.5784
0
LINE
8
Black
10
132.376
20
-43.5784
11
132.382
21
-43.5817
0
LINE
8
Black
10
132.382
20
-43.5817
11
132.388
21
-43.584
0
LINE
8
Black
10
132.388
20
-43.584
11
132.393
21
-43.5883
0
LINE
8
Black
10
132.393
20
-43.5883
11
132.399
21
-43.5916
0
LINE
8
Black
10
132.399
20
-43.5916
11
132.403
21
-43.5967
0
LINE
8
Black
10
132.403
20
-43.5967
11
132.408
21
-43.601
0
LINE
8
Black
10
132.408
20
-43.601
11
132.412
21
-43.6068
0
LINE
8
Black
10
132.412
20
-43.6068
11
132.416
21
-43.6119
0
LINE
8
Black
10
132.416
20
-43.6119
11
132.418
21
-43.6182
0
LINE
8
Black
10
132.418
20
-43.6182
11
132.422
21
-43.6239
0
LINE
8
Black
10
132.422
20
-43.6239
11
132.423
21
-43.6305
0
LINE
8
Black
10
132.423
20
-43.6305
11
132.425
21
-43.6368
0
LINE
8
Black
10
132.425
20
-43.6368
11
132.425
21
-43.6434
0
LINE
8
Black
10
132.425
20
-43.6434
11
132.426
21
-43.65
0
LINE
8
Black
10
132.426
20
-43.65
11
132.426
21
-56.35
0
LINE
8
Black
10
132.426
20
-56.35
11
132.425
21
-56.3566
0
LINE
8
Black
10
132.425
20
-56.3566
11
132.425
21
-56.3632
0
LINE
8
Black
10
132.425
20
-56.3632
11
132.423
21
-56.3695
0
LINE
8
Black
10
132.423
20
-56.3695
11
132.422
21
-56.3761
0
LINE
8
Black
10
132.422
20
-56.3761
11
132.418
21
-56.3818
0
LINE
8
Black
10
132.418
20
-56.3818
11
132.416
21
-56.3881
0
LINE
8
Black
10
132.416
20
-56.3881
11
132.412
21
-56.3932
0
LINE
8
Black
10
132.412
20
-56.3932
11
132.408
21
-56.399
0
LINE
8
Black
10
132.408
20
-56.399
11
132.403
21
-56.4033
0
LINE
8
Black
10
132.403
20
-56.4033
11
132.399
21
-56.4084
0
LINE
8
Black
10
132.399
20
-56.4084
11
132.393
21
-56.4117
0
LINE
8
Black
10
132.393
20
-56.4117
11
132.388
21
-56.416
0
LINE
8
Black
10
132.388
20
-56.416
11
132.382
21
-56.4183
0
LINE
8
Black
10
132.382
20
-56.4183
11
132.376
21
-56.4216
0
LINE
8
Black
10
132.376
20
-56.4216
11
132.369
21
-56.4228
0
LINE
8
Black
10
132.369
20
-56.4228
11
132.363
21
-56.425
0
LINE
8
Black
10
132.363
20
-56.425
11
132.357
21
-56.425
0
LINE
8
Black
10
132.357
20
-56.425
11
132.35
21
-56.4262
0
LINE
8
Black
10
132.35
20
-56.4262
11
119.65
21
-56.4262
0
LINE
8
Black
10
119.65
20
-56.4262
11
119.643
21
-56.425
0
LINE
8
Black
10
119.643
20
-56.425
11
119.637
21
-56.425
0
LINE
8
Black
10
119.637
20
-56.425
11
119.631
21
-56.4228
0
LINE
8
Black
10
119.631
20
-56.4228
11
119.624
21
-56.4216
0
LINE
8
Black
10
119.624
20
-56.4216
11
119.618
21
-56.4183
0
LINE
8
Black
10
119.618
20
-56.4183
11
119.612
21
-56.416
0
LINE
8
Black
10
119.612
20
-56.416
11
119.607
21
-56.4117
0
LINE
8
Black
10
119.607
20
-56.4117
11
119.601
21
-56.4084
0
LINE
8
Black
10
119.601
20
-56.4084
11
119.597
21
-56.4033
0
LINE
8
Black
10
119.597
20
-56.4033
11
119.592
21
-56.399
0
LINE
8
Black
10
119.592
20
-56.399
11
119.588
21
-56.3932
0
LINE
8
Black
10
119.588
20
-56.3932
11
119.584
21
-56.3881
0
LINE
8
Black
10
119.584
20
-56.3881
11
119.582
21
-56.3818
0
LINE
8
Black
10
119.582
20
-56.3818
11
119.578
21
-56.3761
0
LINE
8
Black
10
119.578
20
-56.3761
11
119.577
21
-56.3695
0
LINE
8
Black
10
119.577
20
-56.3695
11
119.575
21
-56.3632
0
LINE
8
Black
10
119.575
20
-56.3632
11
119.575
21
-56.3566
0
LINE
8
Black
10
119.575
20
-56.3566
11
119.574
21
-56.35
0
LINE
8
Black
10
119.574
20
-56.35
11
119.574
21
-43.65
0
LINE
8
Black
10
119.574
20
-43.65
11
119.575
21
-43.6434
0
LINE
8
Black
10
119.575
20
-43.6434
11
119.575
21
-43.6368
0
LINE
8
Black
10
119.575
20
-43.6368
11
119.577
21
-43.6305
0
LINE
8
Black
10
119.577
20
-43.6305
11
119.578
21
-43.6239
0
LINE
8
Black
10
119.578
20
-43.6239
11
119.582
21
-43.6182
0
LINE
8
Black
10
119.582
20
-43.6182
11
119.584
21
-43.6119
0
LINE
8
Black
10
119.584
20
-43.6119
11
119.588
21
-43.6068
0
LINE
8
Black
10
119.588
20
-43.6068
11
119.592
21
-43.601
0
LINE
8
Black
10
119.592
20
-43.601
11
119.597
21
-43.5967
0
LINE
8
Black
10
119.597
20
-43.5967
11
119.601
21
-43.5916
0
LINE
8
Black
10
119.601
20
-43.5916
11
119.607
21
-43.5883
0
LINE
8
Black
10
119.607
20
-43.5883
11
119.612
21
-43.584
0
LINE
8
Black
10
119.612
20
-43.584
11
119.618
21
-43.5817
0
LINE
8
Black
10
119.618
20
-43.5817
11
119.624
21
-43.5784
0
LINE
8
Black
10
119.624
20
-43.5784
11
119.631
21
-43.5772
0
LINE
8
Black
10
119.631
20
-43.5772
11
119.637
21
-43.575
0
LINE
8
Black
10
119.637
20
-43.575
11
119.643
21
-43.575
0
LINE
8
Black
10
119.643
20
-43.575
11
119.65
21
-43.5738
0
LINE
8
Black
10
119.65
20
-43.5738
11
132.35
21
-43.5738
0
LINE
8
Black
10
132.35
20
-43.5738
11
132.357
21
-43.575
0
LINE
8
Black
10
119.726
20
-43.7262
11
119.726
21
-56.2738
0
LINE
8
Black
10
119.726
20
-56.2738
11
132.274
21
-56.2738
0
LINE
8
Black
10
132.274
20
-56.2738
11
132.274
21
-43.7262
0
LINE
8
Black
10
132.274
20
-43.7262
11
119.726
21
-43.7262
0
LINE
8
Black
10
151.357
20
-43.575
11
151.363
21
-43.575
0
LINE
8
Black
10
151.363
20
-43.575
11
151.369
21
-43.5772
0
LINE
8
Black
10
151.369
20
-43.5772
11
151.376
21
-43.5784
0
LINE
8
Black
10
151.376
20
-43.5784
11
151.382
21
-43.5817
0
LINE
8
Black
10
151.382
20
-43.5817
11
151.388
21
-43.584
0
LINE
8
Black
10
151.388
20
-43.584
11
151.393
21
-43.5883
0
LINE
8
Black
10
151.393
20
-43.5883
11
151.399
21
-43.5916
0
LINE
8
Black
10
151.399
20
-43.5916
11
151.403
21
-43.5967
0
LINE
8
Black
10
151.403
20
-43.5967
11
151.408
21
-43.601
0
LINE
8
Black
10
151.408
20
-43.601
11
151.412
21
-43.6068
0
LINE
8
Black
10
151.412
20
-43.6068
11
151.416
21
-43.6119
0
LINE
8
Black
10
151.416
20
-43.6119
11
151.418
21
-43.6182
0
LINE
8
Black
10
151.418
20
-43.6182
11
151.422
21
-43.6239
0
LINE
8
Black
10
151.422
20
-43.6239
11
151.423
21
-43.6305
0
LINE
8
Black
10
151.423
20
-43.6305
11
151.425
21
-43.6368
0
LINE
8
Black
10
151.425
20
-43.6368
11
151.425
21
-43.6434
0
LINE
8
Black
10
151.425
20
-43.6434
11
151.426
21
-43.65
0
LINE
8
Black
10
151.426
20
-43.65
11
151.426
21
-56.35
0
LINE
8
Black
10
151.426
20
-56.35
11
151.425
21
-56.3566
0
LINE
8
Black
10
151.425
20
-56.3566
11
151.425
21
-56.3632
0
LINE
8
Black
10
151.425
20
-56.3632
11
151.423
21
-56.3695
0
LINE
8
Black
10
151.423
20
-56.3695
11
151.422
21
-56.3761
0
LINE
8
Black
10
151.422
20
-56.3761
11
151.418
21
-56.3818
0
LINE
8
Black
10
151.418
20
-56.3818
11
151.416
21
-56.3881
0
LINE
8
Black
10
151.416
20
-56.3881
11
151.412
21
-56.3932
0
LINE
8
Black
10
151.412
20
-56.3932
11
151.408
21
-56.399
0
LINE
8
Black
10
151.408
20
-56.399
11
151.403
21
-56.4033
0
LINE
8
Black
10
151.403
20
-56.4033
11
151.399
21
-56.4084
0
LINE
8
Black
10
151.399
20
-56.4084
11
151.393
21
-56.4117
0
LINE
8
Black
10
151.393
20
-56.4117
11
151.388
21
-56.416
0
LINE
8
Black
10
151.388
20
-56.416
11
151.382
21
-56.4183
0
LINE
8
Black
10
151.382
20
-56.4183
11
151.376
21
-56.4216
0
LINE
8
Black
10
151.376
20
-56.4216
11
151.369
21
-56.4228
0
LINE
8
Black
10
151.369
20
-56.4228
11
151.363
21
-56.425
0
LINE
8
Black
10
151.363
20
-56.425
11
151.357
21
-56.425
0
LINE
8
Black
10
151.357
20
-56.425
11
151.35
21
-56.4262
0
LINE
8
Black
10
151.35
20
-56.4262
11
138.65
21
-56.4262
0
LINE
8
Black
10
138.65
20
-56.4262
11
138.643
21
-56.425
0
LINE
8
Black
10
138.643
20
-56.425
11
138.637
21
-56.425
0
LINE
8
Black
10
138.637
20
-56.425
11
138.631
21
-56.4228
0
LINE
8
Black
10
138.631
20
-56.4228
11
138.624
21
-56.4216
0
LINE
8
Black
10
138.624
20
-56.4216
11
138.618
21
-56.4183
0
LINE
8
Black
10
138.618
20
-56.4183
11
138.612
21
-56.416
0
LINE
8
Black
10
138.612
20
-56.416
11
138.607
21
-56.4117
0
LINE
8
Black
10
138.607
20
-56.4117
11
138.601
21
-56.4084
0
LINE
8
Black
10
138.601
20
-56.4084
11
138.597
21
-56.4033
0
LINE
8
Black
10
138.597
20
-56.4033
11
138.592
21
-56.399
0
LINE
8
Black
10
138.592
20
-56.399
11
138.588
21
-56.3932
0
LINE
8
Black
10
138.588
20
-56.3932
11
138.584
21
-56.3881
0
LINE
8
Black
10
138.584
20
-56.3881
11
138.582
21
-56.3818
0
LINE
8
Black
10
138.582
20
-56.3818
11
138.578
21
-56.3761
0
LINE
8
Black
10
138.578
20
-56.3761
11
138.577
21
-56.3695
0
LINE
8
Black
10
138.577
20
-56.3695
11
138.575
21
-56.3632
0
LINE
8
Black
10
138.575
20
-56.3632
11
138.575
21
-56.3566
0
LINE
8
Black
10
138.575
20
-56.3566
11
138.574
21
-56.35
0
LINE
8
Black
10
138.574
20
-56.35
11
138.574
21
-43.65
0
LINE
8
Black
10
138.574
20
-43.65
11
138.575
21
-43.6434
0
LINE
8
Black
10
138.575
20
-43.6434
11
138.575
21
-43.6368
0
LINE
8
Black
10
138.575
20
-43.6368
11
138.577
21
-43.6305
0
LINE
8
Black
10
138.577
20
-43.6305
11
138.578
21
-43.6239
0
LINE
8
Black
10
138.578
20
-43.6239
11
138.582
21
-43.6182
0
LINE
8
Black
10
138.582
20
-43.6182
11
138.584
21
-43.6119
0
LINE
8
Black
10
138.584
20
-43.6119
11
138.588
21
-43.6068
0
LINE
8
Black
10
138.588
20
-43.6068
11
138.592
21
-43.601
0
LINE
8
Black
10
138.592
20
-43.601
11
138.597
21
-43.5967
0
LINE
8
Black
10
138.597
20
-43.5967
11
138.601
21
-43.5916
0
LINE
8
Black
10
138.601
20
-43.5916
11
138.607
21
-43.5883
0
LINE
8
Black
10
138.607
20
-43.5883
11
138.612
21
-43.584
0
LINE
8
Black
10
138.612
20
-43.584
11
138.618
21
-43.5817
0
LINE
8
Black
10
138.618
20
-43.5817
11
138.624
21
-43.5784
0
LINE
8
Black
10
138.624
20
-43.5784
11
138.631
21
-43.5772
0
LINE
8
Black
10
138.631
20
-43.5772
11
138.637
21
-43.575
0
LINE
8
Black
10
138.637
20
-43.575
11
138.643
21
-43.575
0
LINE
8
Black
10
138.643
20
-43.575
11
138.65
21
-43.5738
0
LINE
8
Black
10
138.65
20
-43.5738
11
151.35
21
-43.5738
0
LINE
8
Black
10
151.35
20
-43.5738
11
151.357
21
-43.575
0
LINE
8
Black
10
138.726
20
-43.7262
11
138.726
21
-56.2738
0
LINE
8
Black
10
138.726
20
-56.2738
11
151.274
21
-56.2738
0
LINE
8
Black
10
151.274
20
-56.2738
11
151.274
21
-43.7262
0
LINE
8
Black
10
151.274
20
-43.7262
11
138.726
21
-43.7262
0
LINE
8
Black
10
56.3566
20
-43.575
11
56.3632
21
-43.575
0
LINE
8
Black
10
56.3632
20
-43.575
11
56.3695
21
-43.5772
0
LINE
8
Black
10
56.3695
20
-43.5772
11
56.3761
21
-43.5784
0
LINE
8
Black
10
56.3761
20
-43.5784
11
56.3818
21
-43.5817
0
LINE
8
Black
10
56.3818
20
-43.5817
11
56.3881
21
-43.584
0
LINE
8
Black
10
56.3881
20
-43.584
11
56.3932
21
-43.5883
0
LINE
8
Black
10
56.3932
20
-43.5883
11
56.399
21
-43.5916
0
LINE
8
Black
10
56.399
20
-43.5916
11
56.4033
21
-43.5967
0
LINE
8
Black
10
56.4033
20
-43.5967
11
56.4084
21
-43.601
0
LINE
8
Black
10
56.4084
20
-43.601
11
56.4117
21
-43.6068
0
LINE
8
Black
10
56.4117
20
-43.6068
11
56.416
21
-43.6119
0
LINE
8
Black
10
56.416
20
-43.6119
11
56.4183
21
-43.6182
0
LINE
8
Black
10
56.4183
20
-43.6182
11
56.4216
21
-43.6239
0
LINE
8
Black
10
56.4216
20
-43.6239
11
56.4228
21
-43.6305
0
LINE
8
Black
10
56.4228
20
-43.6305
11
56.425
21
-43.6368
0
LINE
8
Black
10
56.425
20
-43.6368
11
56.425
21
-43.6434
0
LINE
8
Black
10
56.425
20
-43.6434
11
56.4262
21
-43.65
0
LINE
8
Black
10
56.4262
20
-43.65
11
56.4262
21
-56.35
0
LINE
8
Black
10
56.4262
20
-56.35
11
56.425
21
-56.3566
0
LINE
8
Black
10
56.425
20
-56.3566
11
56.425
21
-56.3632
0
LINE
8
Black
10
56.425
20
-56.3632
11
56.4228
21
-56.3695
0
LINE
8
Black
10
56.4228
20
-56.3695
11
56.4216
21
-56.3761
0
LINE
8
Black
10
56.4216
20
-56.3761
11
56.4183
21
-56.3818
0
LINE
8
Black
10
56.4183
20
-56.3818
11
56.416
21
-56.3881
0
LINE
8
Black
10
56.416
20
-56.3881
11
56.4117
21
-56.3932
0
LINE
8
Black
10
56.4117
20
-56.3932
11
56.4084
21
-56.399
0
LINE
8
Black
10
56.4084
20
-56.399
11
56.4033
21
-56.4033
0
LINE
8
Black
10
56.4033
20
-56.4033
11
56.399
21
-56.4084
0
LINE
8
Black
10
56.399
20
-56.4084
11
56.3932
21
-56.4117
0
LINE
8
Black
10
56.3932
20
-56.4117
11
56.3881
21
-56.416
0
LINE
8
Black
10
56.3881
20
-56.416
11
56.3818
21
-56.4183
0
LINE
8
Black
10
56.3818
20
-56.4183
11
56.3761
21
-56.4216
0
LINE
8
Black
10
56.3761
20
-56.4216
11
56.3695
21
-56.4228
0
LINE
8
Black
10
56.3695
20
-56.4228
11
56.3632
21
-56.425
0
LINE
8
Black
10
56.3632
20
-56.425
11
56.3566
21
-56.425
0
LINE
8
Black
10
56.3566
20
-56.425
11
56.35
21
-56.4262
0
LINE
8
Black
10
56.35
20
-56.4262
11
43.65
21
-56.4262
0
LINE
8
Black
10
43.65
20
-56.4262
11
43.6434
21
-56.425
0
LINE
8
Black
10
43.6434
20
-56.425
11
43.6368
21
-56.425
0
LINE
8
Black
10
43.6368
20
-56.425
11
43.6305
21
-56.4228
0
LINE
8
Black
10
43.6305
20
-56.4228
11
43.6239
21
-56.4216
0
LINE
8
Black
10
43.6239
20
-56.4216
11
43.6182
21
-56.4183
0
LINE
8
Black
10
43.6182
20
-56.4183
11
43.6119
21
-56.416
0
LINE
8
Black
10
43.6119
20
-56.416
11
43.6068
21
-56.4117
0
LINE
8
Black
10
43.6068
20
-56.4117
11
43.601
21
-56.4084
0
LINE
8
Black
10
43.601
20
-56.4084
11
43.5967
21
-56.4033
0
LINE
8
Black
10
43.5967
20
-56.4033
11
43.5916
21
-56.399
0
LINE
8
Black
10
43.5916
20
-56.399
11
43.5883
21
-56.3932
0
LINE
8
Black
10
43.5883
20
-56.3932
11
43.584
21
-56.3881
0
LINE
8
Black
10
43.584
20
-56.3881
11
43.5817
21
-56.3818
0
LINE
8
Black
10
43.5817
20
-56.3818
11
43.5784
21
-56.3761
0
LINE
8
Black
10
43.5784
20
-56.3761
11
43.5772
21
-56.3695
0
LINE
8
Black
10
43.5772
20
-56.3695
11
43.575
21
-56.3632
0
LINE
8
Black
10
43.575
20
-56.3632
11
43.575
21
-56.3566
0
LINE
8
Black
10
43.575
20
-56.3566
11
43.5738
21
-56.35
0
LINE
8
Black
10
43.5738
20
-56.35
11
43.5738
21
-43.65
0
LINE
8
Black
10
43.5738
20
-43.65
11
43.575
21
-43.6434
0
LINE
8
Black
10
43.575
20
-43.6434
11
43.575
21
-43.6368
0
LINE
8
Black
10
43.575
20
-43.6368
11
43.5772
21
-43.6305
0
LINE
8
Black
10
43.5772
20
-43.6305
11
43.5784
21
-43.6239
0
LINE
8
Black
10
43.5784
20
-43.6239
11
43.5817
21
-43.6182
0
LINE
8
Black
10
43.5817
20
-43.6182
11
43.584
21
-43.6119
0
LINE
8
Black
10
43.584
20
-43.6119
11
43.5883
21
-43.6068
0
LINE
8
Black
10
43.5883
20
-43.6068
11
43.5916
21
-43.601
0
LINE
8
Black
10
43.5916
20
-43.601
11
43.5967
21
-43.5967
0
LINE
8
Black
10
43.5967
20
-43.5967
11
43.601
21
-43.5916
0
LINE
8
Black
10
43.601
20
-43.5916
11
43.6068
21
-43.5883
0
LINE
8
Black
10
43.6068
20
-43.5883
11
43.6119
21
-43.584
0
LINE
8
Black
10
43.6119
20
-43.584
11
43.6182
21
-43.5817
0
LINE
8
Black
10
43.6182
20
-43.5817
11
43.6239
21
-43.5784
0
LINE
8
Black
10
43.6239
20
-43.5784
11
43.6305
21
-43.5772
0
LINE
8
Black
10
43.6305
20
-43.5772
11
43.6368
21
-43.575
0
LINE
8
Black
10
43.6368
20
-43.575
11
43.6434
21
-43.575
0
LINE
8
Black
10
43.6434
20
-43.575
11
43.65
21
-43.5738
0
LINE
8
Black
10
43.65
20
-43.5738
11
56.35
21
-43.5738
0
LINE
8
Black
10
56.35
20
-43.5738
11
56.3566
21
-43.575
0
LINE
8
Black
10
43.7262
20
-43.7262
11
43.7262
21
-56.2738
0
LINE
8
Black
10
43.7262
20
-56.2738
11
56.2738
21
-56.2738
0
LINE
8
Black
10
56.2738
20
-56.2738
11
56.2738
21
-43.7262
0
LINE
8
Black
10
56.2738
20
-43.7262
11
43.7262
21
-43.7262
0
LINE
8
Black
10
75.3566
20
-43.575
11
75.3632
21
-43.575
0
LINE
8
Black
10
75.3632
20
-43.575
11
75.3695
21
-43.5772
0
LINE
8
Black
10
75.3695
20
-43.5772
11
75.3761
21
-43.5784
0
LINE
8
Black
10
75.3761
20
-43.5784
11
75.3818
21
-43.5817
0
LINE
8
Black
10
75.3818
20
-43.5817
11
75.3881
21
-43.584
0
LINE
8
Black
10
75.3881
20
-43.584
11
75.3932
21
-43.5883
0
LINE
8
Black
10
75.3932
20
-43.5883
11
75.399
21
-43.5916
0
LINE
8
Black
10
75.399
20
-43.5916
11
75.4033
21
-43.5967
0
LINE
8
Black
10
75.4033
20
-43.5967
11
75.4084
21
-43.601
0
LINE
8
Black
10
75.4084
20
-43.601
11
75.4117
21
-43.6068
0
LINE
8
Black
10
75.4117
20
-43.6068
11
75.416
21
-43.6119
0
LINE
8
Black
10
75.416
20
-43.6119
11
75.4183
21
-43.6182
0
LINE
8
Black
10
75.4183
20
-43.6182
11
75.4216
21
-43.6239
0
LINE
8
Black
10
75.4216
20
-43.6239
11
75.4228
21
-43.6305
0
LINE
8
Black
10
75.4228
20
-43.6305
11
75.425
21
-43.6368
0
LINE
8
Black
10
75.425
20
-43.6368
11
75.425
21
-43.6434
0
LINE
8
Black
10
75.425
20
-43.6434
11
75.4262
21
-43.65
0
LINE
8
Black
10
75.4262
20
-43.65
11
75.4262
21
-56.35
0
LINE
8
Black
10
75.4262
20
-56.35
11
75.425
21
-56.3566
0
LINE
8
Black
10
75.425
20
-56.3566
11
75.425
21
-56.3632
0
LINE
8
Black
10
75.425
20
-56.3632
11
75.4228
21
-56.3695
0
LINE
8
Black
10
75.4228
20
-56.3695
11
75.4216
21
-56.3761
0
LINE
8
Black
10
75.4216
20
-56.3761
11
75.4183
21
-56.3818
0
LINE
8
Black
10
75.4183
20
-56.3818
11
75.416
21
-56.3881
0
LINE
8
Black
10
75.416
20
-56.3881
11
75.4117
21
-56.3932
0
LINE
8
Black
10
75.4117
20
-56.3932
11
75.4084
21
-56.399
0
LINE
8
Black
10
75.4084
20
-56.399
11
75.4033
21
-56.4033
0
LINE
8
Black
10
75.4033
20
-56.4033
11
75.399
21
-56.4084
0
LINE
8
Black
10
75.399
20
-56.4084
11
75.3932
21
-56.4117
0
LINE
8
Black
10
75.3932
20
-56.4117
11
75.3881
21
-56.416
0
LINE
8
Black
10
75.3881
20
-56.416
11
75.3818
21
-56.4183
0
LINE
8
Black
10
75.3818
20
-56.4183
11
75.3761
21
-56.4216
0
LINE
8
Black
10
75.3761
20
-56.4216
11
75.3695
21
-56.4228
0
LINE
8
Black
10
75.3695
20
-56.4228
11
75.3632
21
-56.425
0
LINE
8
Black
10
75.3632
20
-56.425
11
75.3566
21
-56.425
0
LINE
8
Black
10
75.3566
20
-56.425
11
75.35
21
-56.4262
0
LINE
8
Black
10
75.35
20
-56.4262
11
62.65
21
-56.4262
0
LINE
8
Black
10
62.65
20
-56.4262
11
62.6434
21
-56.425
0
LINE
8
Black
10
62.6434
20
-56.425
11
62.6368
21
-56.425
0
LINE
8
Black
10
62.6368
20
-56.425
11
62.6305
21
-56.4228
0
LINE
8
Black
10
62.6305
20
-56.4228
11
62.6239
21
-56.4216
0
LINE
8
Black
10
62.6239
20
-56.4216
11
62.6182
21
-56.4183
0
LINE
8
Black
10
62.6182
20
-56.4183
11
62.6119
21
-56.416
0
LINE
8
Black
10
62.6119
20
-56.416
11
62.6068
21
-56.4117
0
LINE
8
Black
10
62.6068
20
-56.4117
11
62.601
21
-56.4084
0
LINE
8
Black
10
62.601
20
-56.4084
11
62.5967
21
-56.4033
0
LINE
8
Black
10
62.5967
20
-56.4033
11
62.5916
21
-56.399
0
LINE
8
Black
10
62.5916
20
-56.399
11
62.5883
21
-56.3932
0
LINE
8
Black
10
62.5883
20
-56.3932
11
62.584
21
-56.3881
0
LINE
8
Black
10
62.584
20
-56.3881
11
62.5817
21
-56.3818
0
LINE
8
Black
10
62.5817
20
-56.3818
11
62.5784
21
-56.3761
0
LINE
8
Black
10
62.5784
20
-56.3761
11
62.5772
21
-56.3695
0
LINE
8
Black
10
62.5772
20
-56.3695
11
62.575
21
-56.3632
0
LINE
8
Black
10
62.575
20
-56.3632
11
62.575
21
-56.3566
0
LINE
8
Black
10
62.575
20
-56.3566
11
62.5738
21
-56.35
0
LINE
8
Black
10
62.5738
20
-56.35
11
62.5738
21
-43.65
0
LINE
8
Black
10
62.5738
20
-43.65
11
62.575
21
-43.6434
0
LINE
8
Black
10
62.575
20
-43.6434
11
62.575
21
-43.6368
0
LINE
8
Black
10
62.575
20
-43.6368
11
62.5772
21
-43.6305
0
LINE
8
Black
10
62.5772
20
-43.6305
11
62.5784
21
-43.6239
0
LINE
8
Black
10
62.5784
20
-43.6239
11
62.5817
21
-43.6182
0
LINE
8
Black
10
62.5817
20
-43.6182
11
62.584
21
-43.6119
0
LINE
8
Black
10
62.584
20
-43.6119
11
62.5883
21
-43.6068
0
LINE
8
Black
10
62.5883
20
-43.6068
11
62.5916
21
-43.601
0
LINE
8
Black
10
62.5916
20
-43.601
11
62.5967
21
-43.5967
0
LINE
8
Black
10
62.5967
20
-43.5967
11
62.601
21
-43.5916
0
LINE
8
Black
10
62.601
20
-43.5916
11
62.6068
21
-43.5883
0
LINE
8
Black
10
62.6068
20
-43.5883
11
62.6119
21
-43.584
0
LINE
8
Black
10
62.6119
20
-43.584
11
62.6182
21
-43.5817
0
LINE
8
Black
10
62.6182
20
-43.5817
11
62.6239
21
-43.5784
0
LINE
8
Black
10
62.6239
20
-43.5784
11
62.6305
21
-43.5772
0
LINE
8
Black
10
62.6305
20
-43.5772
11
62.6368
21
-43.575
0
LINE
8
Black
10
62.6368
20
-43.575
11
62.6434
21
-43.575
0
LINE
8
Black
10
62.6434
20
-43.575
11
62.65
21
-43.5738
0
LINE
8
Black
10
62.65
20
-43.5738
11
75.35
21
-43.5738
0
LINE
8
Black
10
75.35
20
-43.5738
11
75.3566
21
-43.575
0
LINE
8
Black
10
62.7262
20
-43.7262
11
62.7262
21
-56.2738
0
LINE
8
Black
10
62.7262
20
-56.2738
11
75.2738
21
-56.2738
0
LINE
8
Black
10
75.2738
20
-56.2738
11
75.2738
21
-43.7262
0
LINE
8
Black
10
75.2738
20
-43.7262
11
62.7262
21
-43.7262
0
LINE
8
Black
10
94.3566
20
-43.575
11
94.3632
21
-43.575
0
LINE
8
Black
10
94.3632
20
-43.575
11
94.3695
21
-43.5772
0
LINE
8
Black
10
94.3695
20
-43.5772
11
94.3761
21
-43.5784
0
LINE
8
Black
10
94.3761
20
-43.5784
11
94.3818
21
-43.5817
0
LINE
8
Black
10
94.3818
20
-43.5817
11
94.3881
21
-43.584
0
LINE
8
Black
10
94.3881
20
-43.584
11
94.3932
21
-43.5883
0
LINE
8
Black
10
94.3932
20
-43.5883
11
94.399
21
-43.5916
0
LINE
8
Black
10
94.399
20
-43.5916
11
94.4033
21
-43.5967
0
LINE
8
Black
10
94.4033
20
-43.5967
11
94.4084
21
-43.601
0
LINE
8
Black
10
94.4084
20
-43.601
11
94.4117
21
-43.6068
0
LINE
8
Black
10
94.4117
20
-43.6068
11
94.416
21
-43.6119
0
LINE
8
Black
10
94.416
20
-43.6119
11
94.4183
21
-43.6182
0
LINE
8
Black
10
94.4183
20
-43.6182
11
94.4216
21
-43.6239
0
LINE
8
Black
10
94.4216
20
-43.6239
11
94.4228
21
-43.6305
0
LINE
8
Black
10
94.4228
20
-43.6305
11
94.425
21
-43.6368
0
LINE
8
Black
10
94.425
20
-43.6368
11
94.425
21
-43.6434
0
LINE
8
Black
10
94.425
20
-43.6434
11
94.4262
21
-43.65
0
LINE
8
Black
10
94.4262
20
-43.65
11
94.4262
21
-56.35
0
LINE
8
Black
10
94.4262
20
-56.35
11
94.425
21
-56.3566
0
LINE
8
Black
10
94.425
20
-56.3566
11
94.425
21
-56.3632
0
LINE
8
Black
10
94.425
20
-56.3632
11
94.4228
21
-56.3695
0
LINE
8
Black
10
94.4228
20
-56.3695
11
94.4216
21
-56.3761
0
LINE
8
Black
10
94.4216
20
-56.3761
11
94.4183
21
-56.3818
0
LINE
8
Black
10
94.4183
20
-56.3818
11
94.416
21
-56.3881
0
LINE
8
Black
10
94.416
20
-56.3881
11
94.4117
21
-56.3932
0
LINE
8
Black
10
94.4117
20
-56.3932
11
94.4084
21
-56.399
0
LINE
8
Black
10
94.4084
20
-56.399
11
94.4033
21
-56.4033
0
LINE
8
Black
10
94.4033
20
-56.4033
11
94.399
21
-56.4084
0
LINE
8
Black
10
94.399
20
-56.4084
11
94.3932
21
-56.4117
0
LINE
8
Black
10
94.3932
20
-56.4117
11
94.3881
21
-56.416
0
LINE
8
Black
10
94.3881
20
-56.416
11
94.3818
21
-56.4183
0
LINE
8
Black
10
94.3818
20
-56.4183
11
94.3761
21
-56.4216
0
LINE
8
Black
10
94.3761
20
-56.4216
11
94.3695
21
-56.4228
0
LINE
8
Black
10
94.3695
20
-56.4228
11
94.3632
21
-56.425
0
LINE
8
Black
10
94.3632
20
-56.425
11
94.3566
21
-56.425
0
LINE
8
Black
10
94.3566
20
-56.425
11
94.35
21
-56.4262
0
LINE
8
Black
10
94.35
20
-56.4262
11
81.65
21
-56.4262
0
LINE
8
Black
10
81.65
20
-56.4262
11
81.6434
21
-56.425
0
LINE
8
Black
10
81.6434
20
-56.425
11
81.6368
21
-56.425
0
LINE
8
Black
10
81.6368
20
-56.425
11
81.6305
21
-56.4228
0
LINE
8
Black
10
81.6305
20
-56.4228
11
81.6239
21
-56.4216
0
LINE
8
Black
10
81.6239
20
-56.4216
11
81.6182
21
-56.4183
0
LINE
8
Black
10
81.6182
20
-56.4183
11
81.6119
21
-56.416
0
LINE
8
Black
10
81.6119
20
-56.416
11
81.6068
21
-56.4117
0
LINE
8
Black
10
81.6068
20
-56.4117
11
81.601
21
-56.4084
0
LINE
8
Black
10
81.601
20
-56.4084
11
81.5967
21
-56.4033
0
LINE
8
Black
10
81.5967
20
-56.4033
11
81.5916
21
-56.399
0
LINE
8
Black
10
81.5916
20
-56.399
11
81.5883
21
-56.3932
0
LINE
8
Black
10
81.5883
20
-56.3932
11
81.584
21
-56.3881
0
LINE
8
Black
10
81.584
20
-56.3881
11
81.5817
21
-56.3818
0
LINE
8
Black
10
81.5817
20
-56.3818
11
81.5784
21
-56.3761
0
LINE
8
Black
10
81.5784
20
-56.3761
11
81.5772
21
-56.3695
0
LINE
8
Black
10
81.5772
20
-56.3695
11
81.575
21
-56.3632
0
LINE
8
Black
10
81.575
20
-56.3632
11
81.575
21
-56.3566
0
LINE
8
Black
10
81.575
20
-56.3566
11
81.5738
21
-56.35
0
LINE
8
Black
10
81.5738
20
-56.35
11
81.5738
21
-43.65
0
LINE
8
Black
10
81.5738
20
-43.65
11
81.575
21
-43.6434
0
LINE
8
Black
10
81.575
20
-43.6434
11
81.575
21
-43.6368
0
LINE
8
Black
10
81.575
20
-43.6368
11
81.5772
21
-43.6305
0
LINE
8
Black
10
81.5772
20
-43.6305
11
81.5784
21
-43.6239
0
LINE
8
Black
10
81.5784
20
-43.6239
11
81.5817
21
-43.6182
0
LINE
8
Black
10
81.5817
20
-43.6182
11
81.584
21
-43.6119
0
LINE
8
Black
10
81.584
20
-43.6119
11
81.5883
21
-43.6068
0
LINE
8
Black
10
81.5883
20
-43.6068
11
81.5916
21
-43.601
0
LINE
8
Black
10
81.5916
20
-43.601
11
81.5967
21
-43.5967
0
LINE
8
Black
10
81.5967
20
-43.5967
11
81.601
21
-43.5916
0
LINE
8
Black
10
81.601
20
-43.5916
11
81.6068
21
-43.5883
0
LINE
8
Black
10
81.6068
20
-43.5883
11
81.6119
21
-43.584
0
LINE
8
Black
10
81.6119
20
-43.584
11
81.6182
21
-43.5817
0
LINE
8
Black
10
81.6182
20
-43.5817
11
81.6239
21
-43.5784
0
LINE
8
Black
10
81.6239
20
-43.5784
11
81.6305
21
-43.5772
0
LINE
8
Black
10
81.6305
20
-43.5772
11
81.6368
21
-43.575
0
LINE
8
Black
10
81.6368
20
-43.575
11
81.6434
21
-43.575
0
LINE
8
Black
10
81.6434
20
-43.575
11
81.65
21
-43.5738
0
LINE
8
Black
10
81.65
20
-43.5738
11
94.35
21
-43.5738
0
LINE
8
Black
10
94.35
20
-43.5738
11
94.3566
21
-43.575
0
LINE
8
Black
10
81.7262
20
-43.7262
11
81.7262
21
-56.2738
0
LINE
8
Black
10
81.7262
20
-56.2738
11
94.2738
21
-56.2738
0
LINE
8
Black
10
94.2738
20
-56.2738
11
94.2738
21
-43.7262
0
LINE
8
Black
10
94.2738
20
-43.7262
11
81.7262
21
-43.7262
0
LINE
8
Black
10
113.357
20
-43.575
11
113.363
21
-43.575
0
LINE
8
Black
10
113.363
20
-43.575
11
113.369
21
-43.5772
0
LINE
8
Black
10
113.369
20
-43.5772
11
113.376
21
-43.5784
0
LINE
8
Black
10
113.376
20
-43.5784
11
113.382
21
-43.5817
0
LINE
8
Black
10
113.382
20
-43.5817
11
113.388
21
-43.584
0
LINE
8
Black
10
113.388
20
-43.584
11
113.393
21
-43.5883
0
LINE
8
Black
10
113.393
20
-43.5883
11
113.399
21
-43.5916
0
LINE
8
Black
10
113.399
20
-43.5916
11
113.403
21
-43.5967
0
LINE
8
Black
10
113.403
20
-43.5967
11
113.408
21
-43.601
0
LINE
8
Black
10
113.408
20
-43.601
11
113.412
21
-43.6068
0
LINE
8
Black
10
113.412
20
-43.6068
11
113.416
21
-43.6119
0
LINE
8
Black
10
113.416
20
-43.6119
11
113.418
21
-43.6182
0
LINE
8
Black
10
113.418
20
-43.6182
11
113.422
21
-43.6239
0
LINE
8
Black
10
113.422
20
-43.6239
11
113.423
21
-43.6305
0
LINE
8
Black
10
113.423
20
-43.6305
11
113.425
21
-43.6368
0
LINE
8
Black
10
113.425
20
-43.6368
11
113.425
21
-43.6434
0
LINE
8
Black
10
113.425
20
-43.6434
11
113.426
21
-43.65
0
LINE
8
Black
10
113.426
20
-43.65
11
113.426
21
-56.35
0
LINE
8
Black
10
113.426
20
-56.35
11
113.425
21
-56.3566
0
LINE
8
Black
10
113.425
20
-56.3566
11
113.425
21
-56.3632
0
LINE
8
Black
10
113.425
20
-56.3632
11
113.423
21
-56.3695
0
LINE
8
Black
10
113.423
20
-56.3695
11
113.422
21
-56.3761
0
LINE
8
Black
10
113.422
20
-56.3761
11
113.418
21
-56.3818
0
LINE
8
Black
10
113.418
20
-56.3818
11
113.416
21
-56.3881
0
LINE
8
Black
10
113.416
20
-56.3881
11
113.412
21
-56.3932
0
LINE
8
Black
10
113.412
20
-56.3932
11
113.408
21
-56.399
0
LINE
8
Black
10
113.408
20
-56.399
11
113.403
21
-56.4033
0
LINE
8
Black
10
113.403
20
-56.4033
11
113.399
21
-56.4084
0
LINE
8
Black
10
113.399
20
-56.4084
11
113.393
21
-56.4117
0
LINE
8
Black
10
113.393
20
-56.4117
11
113.388
21
-56.416
0
LINE
8
Black
10
113.388
20
-56.416
11
113.382
21
-56.4183
0
LINE
8
Black
10
113.382
20
-56.4183
11
113.376
21
-56.4216
0
LINE
8
Black
10
113.376
20
-56.4216
11
113.369
21
-56.4228
0
LINE
8
Black
10
113.369
20
-56.4228
11
113.363
21
-56.425
0
LINE
8
Black
10
113.363
20
-56.425
11
113.357
21
-56.425
0
LINE
8
Black
10
113.357
20
-56.425
11
113.35
21
-56.4262
0
LINE
8
Black
10
113.35
20
-56.4262
11
100.65
21
-56.4262
0
LINE
8
Black
10
100.65
20
-56.4262
11
100.643
21
-56.425
0
LINE
8
Black
10
100.643
20
-56.425
11
100.637
21
-56.425
0
LINE
8
Black
10
100.637
20
-56.425
11
100.631
21
-56.4228
0
LINE
8
Black
10
100.631
20
-56.4228
11
100.624
21
-56.4216
0
LINE
8
Black
10
100.624
20
-56.4216
11
100.618
21
-56.4183
0
LINE
8
Black
10
100.618
20
-56.4183
11
100.612
21
-56.416
0
LINE
8
Black
10
100.612
20
-56.416
11
100.607
21
-56.4117
0
LINE
8
Black
10
100.607
20
-56.4117
11
100.601
21
-56.4084
0
LINE
8
Black
10
100.601
20
-56.4084
11
100.597
21
-56.4033
0
LINE
8
Black
10
100.597
20
-56.4033
11
100.592
21
-56.399
0
LINE
8
Black
10
100.592
20
-56.399
11
100.588
21
-56.3932
0
LINE
8
Black
10
100.588
20
-56.3932
11
100.584
21
-56.3881
0
LINE
8
Black
10
100.584
20
-56.3881
11
100.582
21
-56.3818
0
LINE
8
Black
10
100.582
20
-56.3818
11
100.578
21
-56.3761
0
LINE
8
Black
10
100.578
20
-56.3761
11
100.577
21
-56.3695
0
LINE
8
Black
10
100.577
20
-56.3695
11
100.575
21
-56.3632
0
LINE
8
Black
10
100.575
20
-56.3632
11
100.575
21
-56.3566
0
LINE
8
Black
10
100.575
20
-56.3566
11
100.574
21
-56.35
0
LINE
8
Black
10
100.574
20
-56.35
11
100.574
21
-43.65
0
LINE
8
Black
10
100.574
20
-43.65
11
100.575
21
-43.6434
0
LINE
8
Black
10
100.575
20
-43.6434
11
100.575
21
-43.6368
0
LINE
8
Black
10
100.575
20
-43.6368
11
100.577
21
-43.6305
0
LINE
8
Black
10
100.577
20
-43.6305
11
100.578
21
-43.6239
0
LINE
8
Black
10
100.578
20
-43.6239
11
100.582
21
-43.6182
0
LINE
8
Black
10
100.582
20
-43.6182
11
100.584
21
-43.6119
0
LINE
8
Black
10
100.584
20
-43.6119
11
100.588
21
-43.6068
0
LINE
8
Black
10
100.588
20
-43.6068
11
100.592
21
-43.601
0
LINE
8
Black
10
100.592
20
-43.601
11
100.597
21
-43.5967
0
LINE
8
Black
10
100.597
20
-43.5967
11
100.601
21
-43.5916
0
LINE
8
Black
10
100.601
20
-43.5916
11
100.607
21
-43.5883
0
LINE
8
Black
10
100.607
20
-43.5883
11
100.612
21
-43.584
0
LINE
8
Black
10
100.612
20
-43.584
11
100.618
21
-43.5817
0
LINE
8
Black
10
100.618
20
-43.5817
11
100.624
21
-43.5784
0
LINE
8
Black
10
100.624
20
-43.5784
11
100.631
21
-43.5772
0
LINE
8
Black
10
100.631
20
-43.5772
11
100.637
21
-43.575
0
LINE
8
Black
10
100.637
20
-43.575
11
100.643
21
-43.575
0
LINE
8
Black
10
100.643
20
-43.575
11
100.65
21
-43.5738
0
LINE
8
Black
10
100.65
20
-43.5738
11
113.35
21
-43.5738
0
LINE
8
Black
10
113.35
20
-43.5738
11
113.357
21
-43.575
0
LINE
8
Black
10
100.726
20
-43.7262
11
100.726
21
-56.2738
0
LINE
8
Black
10
100.726
20
-56.2738
11
113.274
21
-56.2738
0
LINE
8
Black
10
113.274
20
-56.2738
11
113.274
21
-43.7262
0
LINE
8
Black
10
113.274
20
-43.7262
11
100.726
21
-43.7262
  0
ENDSEC
  0
EOF
