  0
SECTION
  2
HEADER
  9
$ANGBASE
  50
0.0
  9
$ANGDIR
  70
  1
  9
$MEASUREMENT
  70
0
  0
ENDSEC
  0
SECTION
  2
TABLES
  0
TABLE
  2
LTYPE
  70
1
  0
LTYPE
  2
CONTINUOUS
  70
0
  3
Solid line
  72
65
  73
0
  40
0.0
  0
ENDTAB
  0
TABLE
  2
STYLE
  70
4
  0
STYLE
  2
KICAD
  70
0
  40
0
  41
1
  42
1
  50
0
  71
0
  3
isocp.shx
  0
STYLE
  2
KICADB
  70
0
  40
0
  41
1
  42
1
  50
0
  71
0
  3
isocp.shx
  0
STYLE
  2
KICADI
  70
0
  40
0
  41
1
  42
1
  50
15
  71
0
  3
isocp.shx
  0
STYLE
  2
KICADBI
  70
0
  40
0
  41
1
  42
1
  50
15
  71
0
  3
isocp.shx
  0
ENDTAB
  0
TABLE
  2
LAYER
  70
30
  0
LAYER
  2
BLACK
  70
0
  62
7
  6
CONTINUOUS
  0
LAYER
  2
GRAY1
  70
0
  62
251
  6
CONTINUOUS
  0
LAYER
  2
GRAY2
  70
0
  62
8
  6
CONTINUOUS
  0
LAYER
  2
GRAY3
  70
0
  62
9
  6
CONTINUOUS
  0
LAYER
  2
WHITE
  70
0
  62
7
  6
CONTINUOUS
  0
LAYER
  2
LYELLOW
  70
0
  62
51
  6
CONTINUOUS
  0
LAYER
  2
BLUE1
  70
0
  62
178
  6
CONTINUOUS
  0
LAYER
  2
GREEN1
  70
0
  62
98
  6
CONTINUOUS
  0
LAYER
  2
CYAN1
  70
0
  62
138
  6
CONTINUOUS
  0
LAYER
  2
RED1
  70
0
  62
18
  6
CONTINUOUS
  0
LAYER
  2
MAGENTA1
  70
0
  62
228
  6
CONTINUOUS
  0
LAYER
  2
BROWN1
  70
0
  62
58
  6
CONTINUOUS
  0
LAYER
  2
BLUE2
  70
0
  62
5
  6
CONTINUOUS
  0
LAYER
  2
GREEN2
  70
0
  62
3
  6
CONTINUOUS
  0
LAYER
  2
CYAN2
  70
0
  62
4
  6
CONTINUOUS
  0
LAYER
  2
RED2
  70
0
  62
1
  6
CONTINUOUS
  0
LAYER
  2
MAGENTA2
  70
0
  62
6
  6
CONTINUOUS
  0
LAYER
  2
BROWN2
  70
0
  62
54
  6
CONTINUOUS
  0
LAYER
  2
BLUE3
  70
0
  62
171
  6
CONTINUOUS
  0
LAYER
  2
GREEN3
  70
0
  62
91
  6
CONTINUOUS
  0
LAYER
  2
CYAN3
  70
0
  62
131
  6
CONTINUOUS
  0
LAYER
  2
RED3
  70
0
  62
11
  6
CONTINUOUS
  0
LAYER
  2
MAGENTA3
  70
0
  62
221
  6
CONTINUOUS
  0
LAYER
  2
YELLOW3
  70
0
  62
2
  6
CONTINUOUS
  0
LAYER
  2
BLUE4
  70
0
  62
5
  6
CONTINUOUS
  0
LAYER
  2
GREEN4
  70
0
  62
3
  6
CONTINUOUS
  0
LAYER
  2
CYAN4
  70
0
  62
4
  6
CONTINUOUS
  0
LAYER
  2
RED4
  70
0
  62
1
  6
CONTINUOUS
  0
LAYER
  2
MAGENTA4
  70
0
  62
6
  6
CONTINUOUS
  0
LAYER
  2
YELLOW4
  70
0
  62
2
  6
CONTINUOUS
  0
ENDTAB
  0
ENDSEC
  0
SECTION
  2
ENTITIES
0
LINE
8
Black
10
156.106
20
-19.4261
11
156.113
21
-19.4261
0
LINE
8
Black
10
156.113
20
-19.4261
11
156.119
21
-19.4284
0
LINE
8
Black
10
156.119
20
-19.4284
11
156.126
21
-19.4295
0
LINE
8
Black
10
156.126
20
-19.4295
11
156.131
21
-19.4328
0
LINE
8
Black
10
156.131
20
-19.4328
11
156.137
21
-19.435
0
LINE
8
Black
10
156.137
20
-19.435
11
156.143
21
-19.4393
0
LINE
8
Black
10
156.143
20
-19.4393
11
156.148
21
-19.4425
0
LINE
8
Black
10
156.148
20
-19.4425
11
156.152
21
-19.4476
0
LINE
8
Black
10
156.152
20
-19.4476
11
156.157
21
-19.4518
0
LINE
8
Black
10
156.157
20
-19.4518
11
156.161
21
-19.4575
0
LINE
8
Black
10
156.161
20
-19.4575
11
156.165
21
-19.4625
0
LINE
8
Black
10
156.165
20
-19.4625
11
156.167
21
-19.4687
0
LINE
8
Black
10
156.167
20
-19.4687
11
156.17
21
-19.4743
0
LINE
8
Black
10
156.17
20
-19.4743
11
156.172
21
-19.4808
0
LINE
8
Black
10
156.172
20
-19.4808
11
156.174
21
-19.487
0
LINE
8
Black
10
156.174
20
-19.487
11
156.174
21
-19.4935
0
LINE
8
Black
10
156.174
20
-19.4935
11
156.175
21
-19.5
0
LINE
8
Black
10
156.175
20
-19.5
11
156.175
21
-21.2
0
LINE
8
Black
10
156.175
20
-21.2
11
156.175
21
-136.7
0
LINE
8
Black
10
156.175
20
-136.7
11
156.174
21
-136.706
0
LINE
8
Black
10
156.174
20
-136.706
11
156.174
21
-136.713
0
LINE
8
Black
10
156.174
20
-136.713
11
156.172
21
-136.719
0
LINE
8
Black
10
156.172
20
-136.719
11
156.17
21
-136.726
0
LINE
8
Black
10
156.17
20
-136.726
11
156.167
21
-136.731
0
LINE
8
Black
10
156.167
20
-136.731
11
156.165
21
-136.737
0
LINE
8
Black
10
156.165
20
-136.737
11
156.161
21
-136.743
0
LINE
8
Black
10
156.161
20
-136.743
11
156.157
21
-136.748
0
LINE
8
Black
10
156.157
20
-136.748
11
156.152
21
-136.752
0
LINE
8
Black
10
156.152
20
-136.752
11
156.148
21
-136.757
0
LINE
8
Black
10
156.148
20
-136.757
11
156.143
21
-136.761
0
LINE
8
Black
10
156.143
20
-136.761
11
156.137
21
-136.765
0
LINE
8
Black
10
156.137
20
-136.765
11
156.131
21
-136.767
0
LINE
8
Black
10
156.131
20
-136.767
11
156.126
21
-136.77
0
LINE
8
Black
10
156.126
20
-136.77
11
156.119
21
-136.772
0
LINE
8
Black
10
156.119
20
-136.772
11
156.113
21
-136.774
0
LINE
8
Black
10
156.113
20
-136.774
11
156.106
21
-136.774
0
LINE
8
Black
10
156.106
20
-136.774
11
156.1
21
-136.775
0
LINE
8
Black
10
156.1
20
-136.775
11
36.9
21
-136.775
0
LINE
8
Black
10
36.9
20
-136.775
11
36.8935
21
-136.774
0
LINE
8
Black
10
36.8935
20
-136.774
11
36.887
21
-136.774
0
LINE
8
Black
10
36.887
20
-136.774
11
36.8808
21
-136.772
0
LINE
8
Black
10
36.8808
20
-136.772
11
36.8743
21
-136.77
0
LINE
8
Black
10
36.8743
20
-136.77
11
36.8687
21
-136.767
0
LINE
8
Black
10
36.8687
20
-136.767
11
36.8625
21
-136.765
0
LINE
8
Black
10
36.8625
20
-136.765
11
36.8575
21
-136.761
0
LINE
8
Black
10
36.8575
20
-136.761
11
36.8518
21
-136.757
0
LINE
8
Black
10
36.8518
20
-136.757
11
36.8476
21
-136.752
0
LINE
8
Black
10
36.8476
20
-136.752
11
36.8425
21
-136.748
0
LINE
8
Black
10
36.8425
20
-136.748
11
36.8393
21
-136.743
0
LINE
8
Black
10
36.8393
20
-136.743
11
36.835
21
-136.737
0
LINE
8
Black
10
36.835
20
-136.737
11
36.8328
21
-136.731
0
LINE
8
Black
10
36.8328
20
-136.731
11
36.8295
21
-136.726
0
LINE
8
Black
10
36.8295
20
-136.726
11
36.8284
21
-136.719
0
LINE
8
Black
10
36.8284
20
-136.719
11
36.8261
21
-136.713
0
LINE
8
Black
10
36.8261
20
-136.713
11
36.8261
21
-136.706
0
LINE
8
Black
10
36.8261
20
-136.706
11
36.825
21
-136.7
0
LINE
8
Black
10
36.825
20
-136.7
11
36.825
21
-21.2
0
LINE
8
Black
10
36.825
20
-21.2
11
36.825
21
-19.5
0
LINE
8
Black
10
36.825
20
-19.5
11
36.8261
21
-19.4935
0
LINE
8
Black
10
36.8261
20
-19.4935
11
36.8261
21
-19.487
0
LINE
8
Black
10
36.8261
20
-19.487
11
36.8284
21
-19.4808
0
LINE
8
Black
10
36.8284
20
-19.4808
11
36.8295
21
-19.4743
0
LINE
8
Black
10
36.8295
20
-19.4743
11
36.8328
21
-19.4687
0
LINE
8
Black
10
36.8328
20
-19.4687
11
36.835
21
-19.4625
0
LINE
8
Black
10
36.835
20
-19.4625
11
36.8393
21
-19.4575
0
LINE
8
Black
10
36.8393
20
-19.4575
11
36.8425
21
-19.4518
0
LINE
8
Black
10
36.8425
20
-19.4518
11
36.8476
21
-19.4476
0
LINE
8
Black
10
36.8476
20
-19.4476
11
36.8518
21
-19.4425
0
LINE
8
Black
10
36.8518
20
-19.4425
11
36.8575
21
-19.4393
0
LINE
8
Black
10
36.8575
20
-19.4393
11
36.8625
21
-19.435
0
LINE
8
Black
10
36.8625
20
-19.435
11
36.8687
21
-19.4328
0
LINE
8
Black
10
36.8687
20
-19.4328
11
36.8743
21
-19.4295
0
LINE
8
Black
10
36.8743
20
-19.4295
11
36.8808
21
-19.4284
0
LINE
8
Black
10
36.8808
20
-19.4284
11
36.887
21
-19.4261
0
LINE
8
Black
10
36.887
20
-19.4261
11
36.8935
21
-19.4261
0
LINE
8
Black
10
36.8935
20
-19.4261
11
36.9
21
-19.425
0
LINE
8
Black
10
36.9
20
-19.425
11
156.1
21
-19.425
0
LINE
8
Black
10
156.1
20
-19.425
11
156.106
21
-19.4261
0
LINE
8
Black
10
36.975
20
-19.575
11
36.975
21
-21.2
0
LINE
8
Black
10
36.975
20
-21.2
11
36.975
21
-136.625
0
LINE
8
Black
10
36.975
20
-136.625
11
156.025
21
-136.625
0
LINE
8
Black
10
156.025
20
-136.625
11
156.025
21
-21.2
0
LINE
8
Black
10
156.025
20
-21.2
11
156.025
21
-19.575
0
LINE
8
Black
10
156.025
20
-19.575
11
36.975
21
-19.575
  0
ENDSEC
  0
EOF
