  0
SECTION
  2
HEADER
  9
$ANGBASE
  50
0.0
  9
$ANGDIR
  70
  1
  9
$MEASUREMENT
  70
0
  0
ENDSEC
  0
SECTION
  2
TABLES
  0
TABLE
  2
LTYPE
  70
1
  0
LTYPE
  2
CONTINUOUS
  70
0
  3
Solid line
  72
65
  73
0
  40
0.0
  0
ENDTAB
  0
TABLE
  2
STYLE
  70
4
  0
STYLE
  2
KICAD
  70
0
  40
0
  41
1
  42
1
  50
0
  71
0
  3
isocp.shx
  0
STYLE
  2
KICADB
  70
0
  40
0
  41
1
  42
1
  50
0
  71
0
  3
isocp.shx
  0
STYLE
  2
KICADI
  70
0
  40
0
  41
1
  42
1
  50
15
  71
0
  3
isocp.shx
  0
STYLE
  2
KICADBI
  70
0
  40
0
  41
1
  42
1
  50
15
  71
0
  3
isocp.shx
  0
ENDTAB
  0
TABLE
  2
LAYER
  70
30
  0
LAYER
  2
BLACK
  70
0
  62
7
  6
CONTINUOUS
  0
LAYER
  2
GRAY1
  70
0
  62
251
  6
CONTINUOUS
  0
LAYER
  2
GRAY2
  70
0
  62
8
  6
CONTINUOUS
  0
LAYER
  2
GRAY3
  70
0
  62
9
  6
CONTINUOUS
  0
LAYER
  2
WHITE
  70
0
  62
7
  6
CONTINUOUS
  0
LAYER
  2
LYELLOW
  70
0
  62
51
  6
CONTINUOUS
  0
LAYER
  2
BLUE1
  70
0
  62
178
  6
CONTINUOUS
  0
LAYER
  2
GREEN1
  70
0
  62
98
  6
CONTINUOUS
  0
LAYER
  2
CYAN1
  70
0
  62
138
  6
CONTINUOUS
  0
LAYER
  2
RED1
  70
0
  62
18
  6
CONTINUOUS
  0
LAYER
  2
MAGENTA1
  70
0
  62
228
  6
CONTINUOUS
  0
LAYER
  2
BROWN1
  70
0
  62
58
  6
CONTINUOUS
  0
LAYER
  2
BLUE2
  70
0
  62
5
  6
CONTINUOUS
  0
LAYER
  2
GREEN2
  70
0
  62
3
  6
CONTINUOUS
  0
LAYER
  2
CYAN2
  70
0
  62
4
  6
CONTINUOUS
  0
LAYER
  2
RED2
  70
0
  62
1
  6
CONTINUOUS
  0
LAYER
  2
MAGENTA2
  70
0
  62
6
  6
CONTINUOUS
  0
LAYER
  2
BROWN2
  70
0
  62
54
  6
CONTINUOUS
  0
LAYER
  2
BLUE3
  70
0
  62
171
  6
CONTINUOUS
  0
LAYER
  2
GREEN3
  70
0
  62
91
  6
CONTINUOUS
  0
LAYER
  2
CYAN3
  70
0
  62
131
  6
CONTINUOUS
  0
LAYER
  2
RED3
  70
0
  62
11
  6
CONTINUOUS
  0
LAYER
  2
MAGENTA3
  70
0
  62
221
  6
CONTINUOUS
  0
LAYER
  2
YELLOW3
  70
0
  62
2
  6
CONTINUOUS
  0
LAYER
  2
BLUE4
  70
0
  62
5
  6
CONTINUOUS
  0
LAYER
  2
GREEN4
  70
0
  62
3
  6
CONTINUOUS
  0
LAYER
  2
CYAN4
  70
0
  62
4
  6
CONTINUOUS
  0
LAYER
  2
RED4
  70
0
  62
1
  6
CONTINUOUS
  0
LAYER
  2
MAGENTA4
  70
0
  62
6
  6
CONTINUOUS
  0
LAYER
  2
YELLOW4
  70
0
  62
2
  6
CONTINUOUS
  0
ENDTAB
  0
ENDSEC
  0
SECTION
  2
ENTITIES
0
LINE
8
Black
10
139.207
20
-122.382
11
139.553
21
-122.581
0
LINE
8
Black
10
139.553
20
-122.581
11
139.809
21
-122.886
0
LINE
8
Black
10
139.809
20
-122.886
11
139.945
21
-123.261
0
LINE
8
Black
10
139.945
20
-123.261
11
139.945
21
-123.659
0
LINE
8
Black
10
139.945
20
-123.659
11
139.809
21
-124.034
0
LINE
8
Black
10
139.809
20
-124.034
11
139.553
21
-124.339
0
LINE
8
Black
10
139.553
20
-124.339
11
139.207
21
-124.538
0
LINE
8
Black
10
139.207
20
-124.538
11
138.815
21
-124.607
0
LINE
8
Black
10
138.815
20
-124.607
11
138.423
21
-124.538
0
LINE
8
Black
10
138.423
20
-124.538
11
138.077
21
-124.339
0
LINE
8
Black
10
138.077
20
-124.339
11
137.821
21
-124.034
0
LINE
8
Black
10
137.821
20
-124.034
11
137.685
21
-123.659
0
LINE
8
Black
10
137.685
20
-123.659
11
137.685
21
-123.261
0
LINE
8
Black
10
137.685
20
-123.261
11
137.821
21
-122.886
0
LINE
8
Black
10
137.821
20
-122.886
11
138.077
21
-122.581
0
LINE
8
Black
10
138.077
20
-122.581
11
138.423
21
-122.382
0
LINE
8
Black
10
138.423
20
-122.382
11
138.815
21
-122.313
0
LINE
8
Black
10
138.815
20
-122.313
11
139.207
21
-122.382
0
LINE
8
Black
10
115.457
20
-122.382
11
115.803
21
-122.581
0
LINE
8
Black
10
115.803
20
-122.581
11
116.059
21
-122.886
0
LINE
8
Black
10
116.059
20
-122.886
11
116.195
21
-123.261
0
LINE
8
Black
10
116.195
20
-123.261
11
116.195
21
-123.659
0
LINE
8
Black
10
116.195
20
-123.659
11
116.059
21
-124.034
0
LINE
8
Black
10
116.059
20
-124.034
11
115.803
21
-124.339
0
LINE
8
Black
10
115.803
20
-124.339
11
115.457
21
-124.538
0
LINE
8
Black
10
115.457
20
-124.538
11
115.065
21
-124.607
0
LINE
8
Black
10
115.065
20
-124.607
11
114.673
21
-124.538
0
LINE
8
Black
10
114.673
20
-124.538
11
114.327
21
-124.339
0
LINE
8
Black
10
114.327
20
-124.339
11
114.071
21
-124.034
0
LINE
8
Black
10
114.071
20
-124.034
11
113.935
21
-123.659
0
LINE
8
Black
10
113.935
20
-123.659
11
113.935
21
-123.261
0
LINE
8
Black
10
113.935
20
-123.261
11
114.071
21
-122.886
0
LINE
8
Black
10
114.071
20
-122.886
11
114.327
21
-122.581
0
LINE
8
Black
10
114.327
20
-122.581
11
114.673
21
-122.382
0
LINE
8
Black
10
114.673
20
-122.382
11
115.065
21
-122.313
0
LINE
8
Black
10
115.065
20
-122.313
11
115.457
21
-122.382
0
LINE
8
Black
10
94.0824
20
-122.382
11
94.4275
21
-122.581
0
LINE
8
Black
10
94.4275
20
-122.581
11
94.6836
21
-122.886
0
LINE
8
Black
10
94.6836
20
-122.886
11
94.8199
21
-123.261
0
LINE
8
Black
10
94.8199
20
-123.261
11
94.8199
21
-123.659
0
LINE
8
Black
10
94.8199
20
-123.659
11
94.6836
21
-124.034
0
LINE
8
Black
10
94.6836
20
-124.034
11
94.4275
21
-124.339
0
LINE
8
Black
10
94.4275
20
-124.339
11
94.0824
21
-124.538
0
LINE
8
Black
10
94.0824
20
-124.538
11
93.69
21
-124.607
0
LINE
8
Black
10
93.69
20
-124.607
11
93.2976
21
-124.538
0
LINE
8
Black
10
93.2976
20
-124.538
11
92.9525
21
-124.339
0
LINE
8
Black
10
92.9525
20
-124.339
11
92.6964
21
-124.034
0
LINE
8
Black
10
92.6964
20
-124.034
11
92.5601
21
-123.659
0
LINE
8
Black
10
92.5601
20
-123.659
11
92.5601
21
-123.261
0
LINE
8
Black
10
92.5601
20
-123.261
11
92.6964
21
-122.886
0
LINE
8
Black
10
92.6964
20
-122.886
11
92.9525
21
-122.581
0
LINE
8
Black
10
92.9525
20
-122.581
11
93.2976
21
-122.382
0
LINE
8
Black
10
93.2976
20
-122.382
11
93.69
21
-122.313
0
LINE
8
Black
10
93.69
20
-122.313
11
94.0824
21
-122.382
0
LINE
8
Black
10
72.7074
20
-122.382
11
73.0525
21
-122.581
0
LINE
8
Black
10
73.0525
20
-122.581
11
73.3086
21
-122.886
0
LINE
8
Black
10
73.3086
20
-122.886
11
73.4449
21
-123.261
0
LINE
8
Black
10
73.4449
20
-123.261
11
73.4449
21
-123.659
0
LINE
8
Black
10
73.4449
20
-123.659
11
73.3086
21
-124.034
0
LINE
8
Black
10
73.3086
20
-124.034
11
73.0525
21
-124.339
0
LINE
8
Black
10
73.0525
20
-124.339
11
72.7074
21
-124.538
0
LINE
8
Black
10
72.7074
20
-124.538
11
72.315
21
-124.607
0
LINE
8
Black
10
72.315
20
-124.607
11
71.9226
21
-124.538
0
LINE
8
Black
10
71.9226
20
-124.538
11
71.5775
21
-124.339
0
LINE
8
Black
10
71.5775
20
-124.339
11
71.3214
21
-124.034
0
LINE
8
Black
10
71.3214
20
-124.034
11
71.1851
21
-123.659
0
LINE
8
Black
10
71.1851
20
-123.659
11
71.1851
21
-123.261
0
LINE
8
Black
10
71.1851
20
-123.261
11
71.3214
21
-122.886
0
LINE
8
Black
10
71.3214
20
-122.886
11
71.5775
21
-122.581
0
LINE
8
Black
10
71.5775
20
-122.581
11
71.9226
21
-122.382
0
LINE
8
Black
10
71.9226
20
-122.382
11
72.315
21
-122.313
0
LINE
8
Black
10
72.315
20
-122.313
11
72.7074
21
-122.382
0
LINE
8
Black
10
48.9574
20
-122.382
11
49.3025
21
-122.581
0
LINE
8
Black
10
49.3025
20
-122.581
11
49.5586
21
-122.886
0
LINE
8
Black
10
49.5586
20
-122.886
11
49.6949
21
-123.261
0
LINE
8
Black
10
49.6949
20
-123.261
11
49.6949
21
-123.659
0
LINE
8
Black
10
49.6949
20
-123.659
11
49.5586
21
-124.034
0
LINE
8
Black
10
49.5586
20
-124.034
11
49.3025
21
-124.339
0
LINE
8
Black
10
49.3025
20
-124.339
11
48.9574
21
-124.538
0
LINE
8
Black
10
48.9574
20
-124.538
11
48.565
21
-124.607
0
LINE
8
Black
10
48.565
20
-124.607
11
48.1726
21
-124.538
0
LINE
8
Black
10
48.1726
20
-124.538
11
47.8275
21
-124.339
0
LINE
8
Black
10
47.8275
20
-124.339
11
47.5714
21
-124.034
0
LINE
8
Black
10
47.5714
20
-124.034
11
47.4351
21
-123.659
0
LINE
8
Black
10
47.4351
20
-123.659
11
47.4351
21
-123.261
0
LINE
8
Black
10
47.4351
20
-123.261
11
47.5714
21
-122.886
0
LINE
8
Black
10
47.5714
20
-122.886
11
47.8275
21
-122.581
0
LINE
8
Black
10
47.8275
20
-122.581
11
48.1726
21
-122.382
0
LINE
8
Black
10
48.1726
20
-122.382
11
48.565
21
-122.313
0
LINE
8
Black
10
48.565
20
-122.313
11
48.9574
21
-122.382
0
LINE
8
Black
10
145.557
20
-119.842
11
145.903
21
-120.041
0
LINE
8
Black
10
145.903
20
-120.041
11
146.159
21
-120.346
0
LINE
8
Black
10
146.159
20
-120.346
11
146.295
21
-120.721
0
LINE
8
Black
10
146.295
20
-120.721
11
146.295
21
-121.119
0
LINE
8
Black
10
146.295
20
-121.119
11
146.159
21
-121.494
0
LINE
8
Black
10
146.159
20
-121.494
11
145.903
21
-121.799
0
LINE
8
Black
10
145.903
20
-121.799
11
145.557
21
-121.998
0
LINE
8
Black
10
145.557
20
-121.998
11
145.165
21
-122.067
0
LINE
8
Black
10
145.165
20
-122.067
11
144.773
21
-121.998
0
LINE
8
Black
10
144.773
20
-121.998
11
144.427
21
-121.799
0
LINE
8
Black
10
144.427
20
-121.799
11
144.171
21
-121.494
0
LINE
8
Black
10
144.171
20
-121.494
11
144.035
21
-121.119
0
LINE
8
Black
10
144.035
20
-121.119
11
144.035
21
-120.721
0
LINE
8
Black
10
144.035
20
-120.721
11
144.171
21
-120.346
0
LINE
8
Black
10
144.171
20
-120.346
11
144.427
21
-120.041
0
LINE
8
Black
10
144.427
20
-120.041
11
144.773
21
-119.842
0
LINE
8
Black
10
144.773
20
-119.842
11
145.165
21
-119.773
0
LINE
8
Black
10
145.165
20
-119.773
11
145.557
21
-119.842
0
LINE
8
Black
10
121.807
20
-119.842
11
122.153
21
-120.041
0
LINE
8
Black
10
122.153
20
-120.041
11
122.409
21
-120.346
0
LINE
8
Black
10
122.409
20
-120.346
11
122.545
21
-120.721
0
LINE
8
Black
10
122.545
20
-120.721
11
122.545
21
-121.119
0
LINE
8
Black
10
122.545
20
-121.119
11
122.409
21
-121.494
0
LINE
8
Black
10
122.409
20
-121.494
11
122.153
21
-121.799
0
LINE
8
Black
10
122.153
20
-121.799
11
121.807
21
-121.998
0
LINE
8
Black
10
121.807
20
-121.998
11
121.415
21
-122.067
0
LINE
8
Black
10
121.415
20
-122.067
11
121.023
21
-121.998
0
LINE
8
Black
10
121.023
20
-121.998
11
120.677
21
-121.799
0
LINE
8
Black
10
120.677
20
-121.799
11
120.421
21
-121.494
0
LINE
8
Black
10
120.421
20
-121.494
11
120.285
21
-121.119
0
LINE
8
Black
10
120.285
20
-121.119
11
120.285
21
-120.721
0
LINE
8
Black
10
120.285
20
-120.721
11
120.421
21
-120.346
0
LINE
8
Black
10
120.421
20
-120.346
11
120.677
21
-120.041
0
LINE
8
Black
10
120.677
20
-120.041
11
121.023
21
-119.842
0
LINE
8
Black
10
121.023
20
-119.842
11
121.415
21
-119.773
0
LINE
8
Black
10
121.415
20
-119.773
11
121.807
21
-119.842
0
LINE
8
Black
10
100.432
20
-119.842
11
100.778
21
-120.041
0
LINE
8
Black
10
100.778
20
-120.041
11
101.034
21
-120.346
0
LINE
8
Black
10
101.034
20
-120.346
11
101.17
21
-120.721
0
LINE
8
Black
10
101.17
20
-120.721
11
101.17
21
-121.119
0
LINE
8
Black
10
101.17
20
-121.119
11
101.034
21
-121.494
0
LINE
8
Black
10
101.034
20
-121.494
11
100.778
21
-121.799
0
LINE
8
Black
10
100.778
20
-121.799
11
100.432
21
-121.998
0
LINE
8
Black
10
100.432
20
-121.998
11
100.04
21
-122.067
0
LINE
8
Black
10
100.04
20
-122.067
11
99.6476
21
-121.998
0
LINE
8
Black
10
99.6476
20
-121.998
11
99.3025
21
-121.799
0
LINE
8
Black
10
99.3025
20
-121.799
11
99.0464
21
-121.494
0
LINE
8
Black
10
99.0464
20
-121.494
11
98.9101
21
-121.119
0
LINE
8
Black
10
98.9101
20
-121.119
11
98.9101
21
-120.721
0
LINE
8
Black
10
98.9101
20
-120.721
11
99.0464
21
-120.346
0
LINE
8
Black
10
99.0464
20
-120.346
11
99.3025
21
-120.041
0
LINE
8
Black
10
99.3025
20
-120.041
11
99.6476
21
-119.842
0
LINE
8
Black
10
99.6476
20
-119.842
11
100.04
21
-119.773
0
LINE
8
Black
10
100.04
20
-119.773
11
100.432
21
-119.842
0
LINE
8
Black
10
79.0574
20
-119.842
11
79.4025
21
-120.041
0
LINE
8
Black
10
79.4025
20
-120.041
11
79.6586
21
-120.346
0
LINE
8
Black
10
79.6586
20
-120.346
11
79.7949
21
-120.721
0
LINE
8
Black
10
79.7949
20
-120.721
11
79.7949
21
-121.119
0
LINE
8
Black
10
79.7949
20
-121.119
11
79.6586
21
-121.494
0
LINE
8
Black
10
79.6586
20
-121.494
11
79.4025
21
-121.799
0
LINE
8
Black
10
79.4025
20
-121.799
11
79.0574
21
-121.998
0
LINE
8
Black
10
79.0574
20
-121.998
11
78.665
21
-122.067
0
LINE
8
Black
10
78.665
20
-122.067
11
78.2726
21
-121.998
0
LINE
8
Black
10
78.2726
20
-121.998
11
77.9275
21
-121.799
0
LINE
8
Black
10
77.9275
20
-121.799
11
77.6714
21
-121.494
0
LINE
8
Black
10
77.6714
20
-121.494
11
77.5351
21
-121.119
0
LINE
8
Black
10
77.5351
20
-121.119
11
77.5351
21
-120.721
0
LINE
8
Black
10
77.5351
20
-120.721
11
77.6714
21
-120.346
0
LINE
8
Black
10
77.6714
20
-120.346
11
77.9275
21
-120.041
0
LINE
8
Black
10
77.9275
20
-120.041
11
78.2726
21
-119.842
0
LINE
8
Black
10
78.2726
20
-119.842
11
78.665
21
-119.773
0
LINE
8
Black
10
78.665
20
-119.773
11
79.0574
21
-119.842
0
LINE
8
Black
10
55.3074
20
-119.842
11
55.6525
21
-120.041
0
LINE
8
Black
10
55.6525
20
-120.041
11
55.9086
21
-120.346
0
LINE
8
Black
10
55.9086
20
-120.346
11
56.0449
21
-120.721
0
LINE
8
Black
10
56.0449
20
-120.721
11
56.0449
21
-121.119
0
LINE
8
Black
10
56.0449
20
-121.119
11
55.9086
21
-121.494
0
LINE
8
Black
10
55.9086
20
-121.494
11
55.6525
21
-121.799
0
LINE
8
Black
10
55.6525
20
-121.799
11
55.3074
21
-121.998
0
LINE
8
Black
10
55.3074
20
-121.998
11
54.915
21
-122.067
0
LINE
8
Black
10
54.915
20
-122.067
11
54.5226
21
-121.998
0
LINE
8
Black
10
54.5226
20
-121.998
11
54.1775
21
-121.799
0
LINE
8
Black
10
54.1775
20
-121.799
11
53.9214
21
-121.494
0
LINE
8
Black
10
53.9214
20
-121.494
11
53.7851
21
-121.119
0
LINE
8
Black
10
53.7851
20
-121.119
11
53.7851
21
-120.721
0
LINE
8
Black
10
53.7851
20
-120.721
11
53.9214
21
-120.346
0
LINE
8
Black
10
53.9214
20
-120.346
11
54.1775
21
-120.041
0
LINE
8
Black
10
54.1775
20
-120.041
11
54.5226
21
-119.842
0
LINE
8
Black
10
54.5226
20
-119.842
11
54.915
21
-119.773
0
LINE
8
Black
10
54.915
20
-119.773
11
55.3074
21
-119.842
0
LINE
8
Black
10
84.5824
20
-103.382
11
84.9275
21
-103.581
0
LINE
8
Black
10
84.9275
20
-103.581
11
85.1836
21
-103.886
0
LINE
8
Black
10
85.1836
20
-103.886
11
85.3199
21
-104.261
0
LINE
8
Black
10
85.3199
20
-104.261
11
85.3199
21
-104.659
0
LINE
8
Black
10
85.3199
20
-104.659
11
85.1836
21
-105.034
0
LINE
8
Black
10
85.1836
20
-105.034
11
84.9275
21
-105.339
0
LINE
8
Black
10
84.9275
20
-105.339
11
84.5824
21
-105.538
0
LINE
8
Black
10
84.5824
20
-105.538
11
84.19
21
-105.607
0
LINE
8
Black
10
84.19
20
-105.607
11
83.7976
21
-105.538
0
LINE
8
Black
10
83.7976
20
-105.538
11
83.4525
21
-105.339
0
LINE
8
Black
10
83.4525
20
-105.339
11
83.1964
21
-105.034
0
LINE
8
Black
10
83.1964
20
-105.034
11
83.0601
21
-104.659
0
LINE
8
Black
10
83.0601
20
-104.659
11
83.0601
21
-104.261
0
LINE
8
Black
10
83.0601
20
-104.261
11
83.1964
21
-103.886
0
LINE
8
Black
10
83.1964
20
-103.886
11
83.4525
21
-103.581
0
LINE
8
Black
10
83.4525
20
-103.581
11
83.7976
21
-103.382
0
LINE
8
Black
10
83.7976
20
-103.382
11
84.19
21
-103.313
0
LINE
8
Black
10
84.19
20
-103.313
11
84.5824
21
-103.382
0
LINE
8
Black
10
141.582
20
-103.382
11
141.928
21
-103.581
0
LINE
8
Black
10
141.928
20
-103.581
11
142.184
21
-103.886
0
LINE
8
Black
10
142.184
20
-103.886
11
142.32
21
-104.261
0
LINE
8
Black
10
142.32
20
-104.261
11
142.32
21
-104.659
0
LINE
8
Black
10
142.32
20
-104.659
11
142.184
21
-105.034
0
LINE
8
Black
10
142.184
20
-105.034
11
141.928
21
-105.339
0
LINE
8
Black
10
141.928
20
-105.339
11
141.582
21
-105.538
0
LINE
8
Black
10
141.582
20
-105.538
11
141.19
21
-105.607
0
LINE
8
Black
10
141.19
20
-105.607
11
140.798
21
-105.538
0
LINE
8
Black
10
140.798
20
-105.538
11
140.452
21
-105.339
0
LINE
8
Black
10
140.452
20
-105.339
11
140.196
21
-105.034
0
LINE
8
Black
10
140.196
20
-105.034
11
140.06
21
-104.659
0
LINE
8
Black
10
140.06
20
-104.659
11
140.06
21
-104.261
0
LINE
8
Black
10
140.06
20
-104.261
11
140.196
21
-103.886
0
LINE
8
Black
10
140.196
20
-103.886
11
140.452
21
-103.581
0
LINE
8
Black
10
140.452
20
-103.581
11
140.798
21
-103.382
0
LINE
8
Black
10
140.798
20
-103.382
11
141.19
21
-103.313
0
LINE
8
Black
10
141.19
20
-103.313
11
141.582
21
-103.382
0
LINE
8
Black
10
122.582
20
-103.382
11
122.928
21
-103.581
0
LINE
8
Black
10
122.928
20
-103.581
11
123.184
21
-103.886
0
LINE
8
Black
10
123.184
20
-103.886
11
123.32
21
-104.261
0
LINE
8
Black
10
123.32
20
-104.261
11
123.32
21
-104.659
0
LINE
8
Black
10
123.32
20
-104.659
11
123.184
21
-105.034
0
LINE
8
Black
10
123.184
20
-105.034
11
122.928
21
-105.339
0
LINE
8
Black
10
122.928
20
-105.339
11
122.582
21
-105.538
0
LINE
8
Black
10
122.582
20
-105.538
11
122.19
21
-105.607
0
LINE
8
Black
10
122.19
20
-105.607
11
121.798
21
-105.538
0
LINE
8
Black
10
121.798
20
-105.538
11
121.452
21
-105.339
0
LINE
8
Black
10
121.452
20
-105.339
11
121.196
21
-105.034
0
LINE
8
Black
10
121.196
20
-105.034
11
121.06
21
-104.659
0
LINE
8
Black
10
121.06
20
-104.659
11
121.06
21
-104.261
0
LINE
8
Black
10
121.06
20
-104.261
11
121.196
21
-103.886
0
LINE
8
Black
10
121.196
20
-103.886
11
121.452
21
-103.581
0
LINE
8
Black
10
121.452
20
-103.581
11
121.798
21
-103.382
0
LINE
8
Black
10
121.798
20
-103.382
11
122.19
21
-103.313
0
LINE
8
Black
10
122.19
20
-103.313
11
122.582
21
-103.382
0
LINE
8
Black
10
103.582
20
-103.382
11
103.928
21
-103.581
0
LINE
8
Black
10
103.928
20
-103.581
11
104.184
21
-103.886
0
LINE
8
Black
10
104.184
20
-103.886
11
104.32
21
-104.261
0
LINE
8
Black
10
104.32
20
-104.261
11
104.32
21
-104.659
0
LINE
8
Black
10
104.32
20
-104.659
11
104.184
21
-105.034
0
LINE
8
Black
10
104.184
20
-105.034
11
103.928
21
-105.339
0
LINE
8
Black
10
103.928
20
-105.339
11
103.582
21
-105.538
0
LINE
8
Black
10
103.582
20
-105.538
11
103.19
21
-105.607
0
LINE
8
Black
10
103.19
20
-105.607
11
102.798
21
-105.538
0
LINE
8
Black
10
102.798
20
-105.538
11
102.452
21
-105.339
0
LINE
8
Black
10
102.452
20
-105.339
11
102.196
21
-105.034
0
LINE
8
Black
10
102.196
20
-105.034
11
102.06
21
-104.659
0
LINE
8
Black
10
102.06
20
-104.659
11
102.06
21
-104.261
0
LINE
8
Black
10
102.06
20
-104.261
11
102.196
21
-103.886
0
LINE
8
Black
10
102.196
20
-103.886
11
102.452
21
-103.581
0
LINE
8
Black
10
102.452
20
-103.581
11
102.798
21
-103.382
0
LINE
8
Black
10
102.798
20
-103.382
11
103.19
21
-103.313
0
LINE
8
Black
10
103.19
20
-103.313
11
103.582
21
-103.382
0
LINE
8
Black
10
65.5824
20
-103.382
11
65.9275
21
-103.581
0
LINE
8
Black
10
65.9275
20
-103.581
11
66.1836
21
-103.886
0
LINE
8
Black
10
66.1836
20
-103.886
11
66.3199
21
-104.261
0
LINE
8
Black
10
66.3199
20
-104.261
11
66.3199
21
-104.659
0
LINE
8
Black
10
66.3199
20
-104.659
11
66.1836
21
-105.034
0
LINE
8
Black
10
66.1836
20
-105.034
11
65.9275
21
-105.339
0
LINE
8
Black
10
65.9275
20
-105.339
11
65.5824
21
-105.538
0
LINE
8
Black
10
65.5824
20
-105.538
11
65.19
21
-105.607
0
LINE
8
Black
10
65.19
20
-105.607
11
64.7976
21
-105.538
0
LINE
8
Black
10
64.7976
20
-105.538
11
64.4525
21
-105.339
0
LINE
8
Black
10
64.4525
20
-105.339
11
64.1964
21
-105.034
0
LINE
8
Black
10
64.1964
20
-105.034
11
64.0601
21
-104.659
0
LINE
8
Black
10
64.0601
20
-104.659
11
64.0601
21
-104.261
0
LINE
8
Black
10
64.0601
20
-104.261
11
64.1964
21
-103.886
0
LINE
8
Black
10
64.1964
20
-103.886
11
64.4525
21
-103.581
0
LINE
8
Black
10
64.4525
20
-103.581
11
64.7976
21
-103.382
0
LINE
8
Black
10
64.7976
20
-103.382
11
65.19
21
-103.313
0
LINE
8
Black
10
65.19
20
-103.313
11
65.5824
21
-103.382
0
LINE
8
Black
10
46.5824
20
-103.382
11
46.9275
21
-103.581
0
LINE
8
Black
10
46.9275
20
-103.581
11
47.1836
21
-103.886
0
LINE
8
Black
10
47.1836
20
-103.886
11
47.3199
21
-104.261
0
LINE
8
Black
10
47.3199
20
-104.261
11
47.3199
21
-104.659
0
LINE
8
Black
10
47.3199
20
-104.659
11
47.1836
21
-105.034
0
LINE
8
Black
10
47.1836
20
-105.034
11
46.9275
21
-105.339
0
LINE
8
Black
10
46.9275
20
-105.339
11
46.5824
21
-105.538
0
LINE
8
Black
10
46.5824
20
-105.538
11
46.19
21
-105.607
0
LINE
8
Black
10
46.19
20
-105.607
11
45.7976
21
-105.538
0
LINE
8
Black
10
45.7976
20
-105.538
11
45.4525
21
-105.339
0
LINE
8
Black
10
45.4525
20
-105.339
11
45.1964
21
-105.034
0
LINE
8
Black
10
45.1964
20
-105.034
11
45.0601
21
-104.659
0
LINE
8
Black
10
45.0601
20
-104.659
11
45.0601
21
-104.261
0
LINE
8
Black
10
45.0601
20
-104.261
11
45.1964
21
-103.886
0
LINE
8
Black
10
45.1964
20
-103.886
11
45.4525
21
-103.581
0
LINE
8
Black
10
45.4525
20
-103.581
11
45.7976
21
-103.382
0
LINE
8
Black
10
45.7976
20
-103.382
11
46.19
21
-103.313
0
LINE
8
Black
10
46.19
20
-103.313
11
46.5824
21
-103.382
0
LINE
8
Black
10
147.932
20
-100.842
11
148.278
21
-101.041
0
LINE
8
Black
10
148.278
20
-101.041
11
148.534
21
-101.346
0
LINE
8
Black
10
148.534
20
-101.346
11
148.67
21
-101.721
0
LINE
8
Black
10
148.67
20
-101.721
11
148.67
21
-102.119
0
LINE
8
Black
10
148.67
20
-102.119
11
148.534
21
-102.494
0
LINE
8
Black
10
148.534
20
-102.494
11
148.278
21
-102.799
0
LINE
8
Black
10
148.278
20
-102.799
11
147.932
21
-102.998
0
LINE
8
Black
10
147.932
20
-102.998
11
147.54
21
-103.067
0
LINE
8
Black
10
147.54
20
-103.067
11
147.148
21
-102.998
0
LINE
8
Black
10
147.148
20
-102.998
11
146.802
21
-102.799
0
LINE
8
Black
10
146.802
20
-102.799
11
146.546
21
-102.494
0
LINE
8
Black
10
146.546
20
-102.494
11
146.41
21
-102.119
0
LINE
8
Black
10
146.41
20
-102.119
11
146.41
21
-101.721
0
LINE
8
Black
10
146.41
20
-101.721
11
146.546
21
-101.346
0
LINE
8
Black
10
146.546
20
-101.346
11
146.802
21
-101.041
0
LINE
8
Black
10
146.802
20
-101.041
11
147.148
21
-100.842
0
LINE
8
Black
10
147.148
20
-100.842
11
147.54
21
-100.773
0
LINE
8
Black
10
147.54
20
-100.773
11
147.932
21
-100.842
0
LINE
8
Black
10
128.932
20
-100.842
11
129.278
21
-101.041
0
LINE
8
Black
10
129.278
20
-101.041
11
129.534
21
-101.346
0
LINE
8
Black
10
129.534
20
-101.346
11
129.67
21
-101.721
0
LINE
8
Black
10
129.67
20
-101.721
11
129.67
21
-102.119
0
LINE
8
Black
10
129.67
20
-102.119
11
129.534
21
-102.494
0
LINE
8
Black
10
129.534
20
-102.494
11
129.278
21
-102.799
0
LINE
8
Black
10
129.278
20
-102.799
11
128.932
21
-102.998
0
LINE
8
Black
10
128.932
20
-102.998
11
128.54
21
-103.067
0
LINE
8
Black
10
128.54
20
-103.067
11
128.148
21
-102.998
0
LINE
8
Black
10
128.148
20
-102.998
11
127.802
21
-102.799
0
LINE
8
Black
10
127.802
20
-102.799
11
127.546
21
-102.494
0
LINE
8
Black
10
127.546
20
-102.494
11
127.41
21
-102.119
0
LINE
8
Black
10
127.41
20
-102.119
11
127.41
21
-101.721
0
LINE
8
Black
10
127.41
20
-101.721
11
127.546
21
-101.346
0
LINE
8
Black
10
127.546
20
-101.346
11
127.802
21
-101.041
0
LINE
8
Black
10
127.802
20
-101.041
11
128.148
21
-100.842
0
LINE
8
Black
10
128.148
20
-100.842
11
128.54
21
-100.773
0
LINE
8
Black
10
128.54
20
-100.773
11
128.932
21
-100.842
0
LINE
8
Black
10
52.9324
20
-100.842
11
53.2775
21
-101.041
0
LINE
8
Black
10
53.2775
20
-101.041
11
53.5336
21
-101.346
0
LINE
8
Black
10
53.5336
20
-101.346
11
53.6699
21
-101.721
0
LINE
8
Black
10
53.6699
20
-101.721
11
53.6699
21
-102.119
0
LINE
8
Black
10
53.6699
20
-102.119
11
53.5336
21
-102.494
0
LINE
8
Black
10
53.5336
20
-102.494
11
53.2775
21
-102.799
0
LINE
8
Black
10
53.2775
20
-102.799
11
52.9324
21
-102.998
0
LINE
8
Black
10
52.9324
20
-102.998
11
52.54
21
-103.067
0
LINE
8
Black
10
52.54
20
-103.067
11
52.1476
21
-102.998
0
LINE
8
Black
10
52.1476
20
-102.998
11
51.8025
21
-102.799
0
LINE
8
Black
10
51.8025
20
-102.799
11
51.5464
21
-102.494
0
LINE
8
Black
10
51.5464
20
-102.494
11
51.4101
21
-102.119
0
LINE
8
Black
10
51.4101
20
-102.119
11
51.4101
21
-101.721
0
LINE
8
Black
10
51.4101
20
-101.721
11
51.5464
21
-101.346
0
LINE
8
Black
10
51.5464
20
-101.346
11
51.8025
21
-101.041
0
LINE
8
Black
10
51.8025
20
-101.041
11
52.1476
21
-100.842
0
LINE
8
Black
10
52.1476
20
-100.842
11
52.54
21
-100.773
0
LINE
8
Black
10
52.54
20
-100.773
11
52.9324
21
-100.842
0
LINE
8
Black
10
71.9324
20
-100.842
11
72.2775
21
-101.041
0
LINE
8
Black
10
72.2775
20
-101.041
11
72.5336
21
-101.346
0
LINE
8
Black
10
72.5336
20
-101.346
11
72.6699
21
-101.721
0
LINE
8
Black
10
72.6699
20
-101.721
11
72.6699
21
-102.119
0
LINE
8
Black
10
72.6699
20
-102.119
11
72.5336
21
-102.494
0
LINE
8
Black
10
72.5336
20
-102.494
11
72.2775
21
-102.799
0
LINE
8
Black
10
72.2775
20
-102.799
11
71.9324
21
-102.998
0
LINE
8
Black
10
71.9324
20
-102.998
11
71.54
21
-103.067
0
LINE
8
Black
10
71.54
20
-103.067
11
71.1476
21
-102.998
0
LINE
8
Black
10
71.1476
20
-102.998
11
70.8025
21
-102.799
0
LINE
8
Black
10
70.8025
20
-102.799
11
70.5464
21
-102.494
0
LINE
8
Black
10
70.5464
20
-102.494
11
70.4101
21
-102.119
0
LINE
8
Black
10
70.4101
20
-102.119
11
70.4101
21
-101.721
0
LINE
8
Black
10
70.4101
20
-101.721
11
70.5464
21
-101.346
0
LINE
8
Black
10
70.5464
20
-101.346
11
70.8025
21
-101.041
0
LINE
8
Black
10
70.8025
20
-101.041
11
71.1476
21
-100.842
0
LINE
8
Black
10
71.1476
20
-100.842
11
71.54
21
-100.773
0
LINE
8
Black
10
71.54
20
-100.773
11
71.9324
21
-100.842
0
LINE
8
Black
10
90.9324
20
-100.842
11
91.2775
21
-101.041
0
LINE
8
Black
10
91.2775
20
-101.041
11
91.5336
21
-101.346
0
LINE
8
Black
10
91.5336
20
-101.346
11
91.6699
21
-101.721
0
LINE
8
Black
10
91.6699
20
-101.721
11
91.6699
21
-102.119
0
LINE
8
Black
10
91.6699
20
-102.119
11
91.5336
21
-102.494
0
LINE
8
Black
10
91.5336
20
-102.494
11
91.2775
21
-102.799
0
LINE
8
Black
10
91.2775
20
-102.799
11
90.9324
21
-102.998
0
LINE
8
Black
10
90.9324
20
-102.998
11
90.54
21
-103.067
0
LINE
8
Black
10
90.54
20
-103.067
11
90.1476
21
-102.998
0
LINE
8
Black
10
90.1476
20
-102.998
11
89.8025
21
-102.799
0
LINE
8
Black
10
89.8025
20
-102.799
11
89.5464
21
-102.494
0
LINE
8
Black
10
89.5464
20
-102.494
11
89.4101
21
-102.119
0
LINE
8
Black
10
89.4101
20
-102.119
11
89.4101
21
-101.721
0
LINE
8
Black
10
89.4101
20
-101.721
11
89.5464
21
-101.346
0
LINE
8
Black
10
89.5464
20
-101.346
11
89.8025
21
-101.041
0
LINE
8
Black
10
89.8025
20
-101.041
11
90.1476
21
-100.842
0
LINE
8
Black
10
90.1476
20
-100.842
11
90.54
21
-100.773
0
LINE
8
Black
10
90.54
20
-100.773
11
90.9324
21
-100.842
0
LINE
8
Black
10
109.932
20
-100.842
11
110.278
21
-101.041
0
LINE
8
Black
10
110.278
20
-101.041
11
110.534
21
-101.346
0
LINE
8
Black
10
110.534
20
-101.346
11
110.67
21
-101.721
0
LINE
8
Black
10
110.67
20
-101.721
11
110.67
21
-102.119
0
LINE
8
Black
10
110.67
20
-102.119
11
110.534
21
-102.494
0
LINE
8
Black
10
110.534
20
-102.494
11
110.278
21
-102.799
0
LINE
8
Black
10
110.278
20
-102.799
11
109.932
21
-102.998
0
LINE
8
Black
10
109.932
20
-102.998
11
109.54
21
-103.067
0
LINE
8
Black
10
109.54
20
-103.067
11
109.148
21
-102.998
0
LINE
8
Black
10
109.148
20
-102.998
11
108.802
21
-102.799
0
LINE
8
Black
10
108.802
20
-102.799
11
108.546
21
-102.494
0
LINE
8
Black
10
108.546
20
-102.494
11
108.41
21
-102.119
0
LINE
8
Black
10
108.41
20
-102.119
11
108.41
21
-101.721
0
LINE
8
Black
10
108.41
20
-101.721
11
108.546
21
-101.346
0
LINE
8
Black
10
108.546
20
-101.346
11
108.802
21
-101.041
0
LINE
8
Black
10
108.802
20
-101.041
11
109.148
21
-100.842
0
LINE
8
Black
10
109.148
20
-100.842
11
109.54
21
-100.773
0
LINE
8
Black
10
109.54
20
-100.773
11
109.932
21
-100.842
0
LINE
8
Black
10
84.5824
20
-84.3818
11
84.9275
21
-84.5811
0
LINE
8
Black
10
84.9275
20
-84.5811
11
85.1836
21
-84.8863
0
LINE
8
Black
10
85.1836
20
-84.8863
11
85.3199
21
-85.2608
0
LINE
8
Black
10
85.3199
20
-85.2608
11
85.3199
21
-85.6592
0
LINE
8
Black
10
85.3199
20
-85.6592
11
85.1836
21
-86.0337
0
LINE
8
Black
10
85.1836
20
-86.0337
11
84.9275
21
-86.3389
0
LINE
8
Black
10
84.9275
20
-86.3389
11
84.5824
21
-86.5382
0
LINE
8
Black
10
84.5824
20
-86.5382
11
84.19
21
-86.6074
0
LINE
8
Black
10
84.19
20
-86.6074
11
83.7976
21
-86.5382
0
LINE
8
Black
10
83.7976
20
-86.5382
11
83.4525
21
-86.3389
0
LINE
8
Black
10
83.4525
20
-86.3389
11
83.1964
21
-86.0337
0
LINE
8
Black
10
83.1964
20
-86.0337
11
83.0601
21
-85.6592
0
LINE
8
Black
10
83.0601
20
-85.6592
11
83.0601
21
-85.2608
0
LINE
8
Black
10
83.0601
20
-85.2608
11
83.1964
21
-84.8863
0
LINE
8
Black
10
83.1964
20
-84.8863
11
83.4525
21
-84.5811
0
LINE
8
Black
10
83.4525
20
-84.5811
11
83.7976
21
-84.3818
0
LINE
8
Black
10
83.7976
20
-84.3818
11
84.19
21
-84.3126
0
LINE
8
Black
10
84.19
20
-84.3126
11
84.5824
21
-84.3818
0
LINE
8
Black
10
103.582
20
-84.3818
11
103.928
21
-84.5811
0
LINE
8
Black
10
103.928
20
-84.5811
11
104.184
21
-84.8863
0
LINE
8
Black
10
104.184
20
-84.8863
11
104.32
21
-85.2608
0
LINE
8
Black
10
104.32
20
-85.2608
11
104.32
21
-85.6592
0
LINE
8
Black
10
104.32
20
-85.6592
11
104.184
21
-86.0337
0
LINE
8
Black
10
104.184
20
-86.0337
11
103.928
21
-86.3389
0
LINE
8
Black
10
103.928
20
-86.3389
11
103.582
21
-86.5382
0
LINE
8
Black
10
103.582
20
-86.5382
11
103.19
21
-86.6074
0
LINE
8
Black
10
103.19
20
-86.6074
11
102.798
21
-86.5382
0
LINE
8
Black
10
102.798
20
-86.5382
11
102.452
21
-86.3389
0
LINE
8
Black
10
102.452
20
-86.3389
11
102.196
21
-86.0337
0
LINE
8
Black
10
102.196
20
-86.0337
11
102.06
21
-85.6592
0
LINE
8
Black
10
102.06
20
-85.6592
11
102.06
21
-85.2608
0
LINE
8
Black
10
102.06
20
-85.2608
11
102.196
21
-84.8863
0
LINE
8
Black
10
102.196
20
-84.8863
11
102.452
21
-84.5811
0
LINE
8
Black
10
102.452
20
-84.5811
11
102.798
21
-84.3818
0
LINE
8
Black
10
102.798
20
-84.3818
11
103.19
21
-84.3126
0
LINE
8
Black
10
103.19
20
-84.3126
11
103.582
21
-84.3818
0
LINE
8
Black
10
122.582
20
-84.3818
11
122.928
21
-84.5811
0
LINE
8
Black
10
122.928
20
-84.5811
11
123.184
21
-84.8863
0
LINE
8
Black
10
123.184
20
-84.8863
11
123.32
21
-85.2608
0
LINE
8
Black
10
123.32
20
-85.2608
11
123.32
21
-85.6592
0
LINE
8
Black
10
123.32
20
-85.6592
11
123.184
21
-86.0337
0
LINE
8
Black
10
123.184
20
-86.0337
11
122.928
21
-86.3389
0
LINE
8
Black
10
122.928
20
-86.3389
11
122.582
21
-86.5382
0
LINE
8
Black
10
122.582
20
-86.5382
11
122.19
21
-86.6074
0
LINE
8
Black
10
122.19
20
-86.6074
11
121.798
21
-86.5382
0
LINE
8
Black
10
121.798
20
-86.5382
11
121.452
21
-86.3389
0
LINE
8
Black
10
121.452
20
-86.3389
11
121.196
21
-86.0337
0
LINE
8
Black
10
121.196
20
-86.0337
11
121.06
21
-85.6592
0
LINE
8
Black
10
121.06
20
-85.6592
11
121.06
21
-85.2608
0
LINE
8
Black
10
121.06
20
-85.2608
11
121.196
21
-84.8863
0
LINE
8
Black
10
121.196
20
-84.8863
11
121.452
21
-84.5811
0
LINE
8
Black
10
121.452
20
-84.5811
11
121.798
21
-84.3818
0
LINE
8
Black
10
121.798
20
-84.3818
11
122.19
21
-84.3126
0
LINE
8
Black
10
122.19
20
-84.3126
11
122.582
21
-84.3818
0
LINE
8
Black
10
141.582
20
-84.3818
11
141.928
21
-84.5811
0
LINE
8
Black
10
141.928
20
-84.5811
11
142.184
21
-84.8863
0
LINE
8
Black
10
142.184
20
-84.8863
11
142.32
21
-85.2608
0
LINE
8
Black
10
142.32
20
-85.2608
11
142.32
21
-85.6592
0
LINE
8
Black
10
142.32
20
-85.6592
11
142.184
21
-86.0337
0
LINE
8
Black
10
142.184
20
-86.0337
11
141.928
21
-86.3389
0
LINE
8
Black
10
141.928
20
-86.3389
11
141.582
21
-86.5382
0
LINE
8
Black
10
141.582
20
-86.5382
11
141.19
21
-86.6074
0
LINE
8
Black
10
141.19
20
-86.6074
11
140.798
21
-86.5382
0
LINE
8
Black
10
140.798
20
-86.5382
11
140.452
21
-86.3389
0
LINE
8
Black
10
140.452
20
-86.3389
11
140.196
21
-86.0337
0
LINE
8
Black
10
140.196
20
-86.0337
11
140.06
21
-85.6592
0
LINE
8
Black
10
140.06
20
-85.6592
11
140.06
21
-85.2608
0
LINE
8
Black
10
140.06
20
-85.2608
11
140.196
21
-84.8863
0
LINE
8
Black
10
140.196
20
-84.8863
11
140.452
21
-84.5811
0
LINE
8
Black
10
140.452
20
-84.5811
11
140.798
21
-84.3818
0
LINE
8
Black
10
140.798
20
-84.3818
11
141.19
21
-84.3126
0
LINE
8
Black
10
141.19
20
-84.3126
11
141.582
21
-84.3818
0
LINE
8
Black
10
65.5824
20
-84.3818
11
65.9275
21
-84.5811
0
LINE
8
Black
10
65.9275
20
-84.5811
11
66.1836
21
-84.8863
0
LINE
8
Black
10
66.1836
20
-84.8863
11
66.3199
21
-85.2608
0
LINE
8
Black
10
66.3199
20
-85.2608
11
66.3199
21
-85.6592
0
LINE
8
Black
10
66.3199
20
-85.6592
11
66.1836
21
-86.0337
0
LINE
8
Black
10
66.1836
20
-86.0337
11
65.9275
21
-86.3389
0
LINE
8
Black
10
65.9275
20
-86.3389
11
65.5824
21
-86.5382
0
LINE
8
Black
10
65.5824
20
-86.5382
11
65.19
21
-86.6074
0
LINE
8
Black
10
65.19
20
-86.6074
11
64.7976
21
-86.5382
0
LINE
8
Black
10
64.7976
20
-86.5382
11
64.4525
21
-86.3389
0
LINE
8
Black
10
64.4525
20
-86.3389
11
64.1964
21
-86.0337
0
LINE
8
Black
10
64.1964
20
-86.0337
11
64.0601
21
-85.6592
0
LINE
8
Black
10
64.0601
20
-85.6592
11
64.0601
21
-85.2608
0
LINE
8
Black
10
64.0601
20
-85.2608
11
64.1964
21
-84.8863
0
LINE
8
Black
10
64.1964
20
-84.8863
11
64.4525
21
-84.5811
0
LINE
8
Black
10
64.4525
20
-84.5811
11
64.7976
21
-84.3818
0
LINE
8
Black
10
64.7976
20
-84.3818
11
65.19
21
-84.3126
0
LINE
8
Black
10
65.19
20
-84.3126
11
65.5824
21
-84.3818
0
LINE
8
Black
10
46.5824
20
-84.3818
11
46.9275
21
-84.5811
0
LINE
8
Black
10
46.9275
20
-84.5811
11
47.1836
21
-84.8863
0
LINE
8
Black
10
47.1836
20
-84.8863
11
47.3199
21
-85.2608
0
LINE
8
Black
10
47.3199
20
-85.2608
11
47.3199
21
-85.6592
0
LINE
8
Black
10
47.3199
20
-85.6592
11
47.1836
21
-86.0337
0
LINE
8
Black
10
47.1836
20
-86.0337
11
46.9275
21
-86.3389
0
LINE
8
Black
10
46.9275
20
-86.3389
11
46.5824
21
-86.5382
0
LINE
8
Black
10
46.5824
20
-86.5382
11
46.19
21
-86.6074
0
LINE
8
Black
10
46.19
20
-86.6074
11
45.7976
21
-86.5382
0
LINE
8
Black
10
45.7976
20
-86.5382
11
45.4525
21
-86.3389
0
LINE
8
Black
10
45.4525
20
-86.3389
11
45.1964
21
-86.0337
0
LINE
8
Black
10
45.1964
20
-86.0337
11
45.0601
21
-85.6592
0
LINE
8
Black
10
45.0601
20
-85.6592
11
45.0601
21
-85.2608
0
LINE
8
Black
10
45.0601
20
-85.2608
11
45.1964
21
-84.8863
0
LINE
8
Black
10
45.1964
20
-84.8863
11
45.4525
21
-84.5811
0
LINE
8
Black
10
45.4525
20
-84.5811
11
45.7976
21
-84.3818
0
LINE
8
Black
10
45.7976
20
-84.3818
11
46.19
21
-84.3126
0
LINE
8
Black
10
46.19
20
-84.3126
11
46.5824
21
-84.3818
0
LINE
8
Black
10
71.9324
20
-81.8418
11
72.2775
21
-82.0411
0
LINE
8
Black
10
72.2775
20
-82.0411
11
72.5336
21
-82.3463
0
LINE
8
Black
10
72.5336
20
-82.3463
11
72.6699
21
-82.7208
0
LINE
8
Black
10
72.6699
20
-82.7208
11
72.6699
21
-83.1192
0
LINE
8
Black
10
72.6699
20
-83.1192
11
72.5336
21
-83.4937
0
LINE
8
Black
10
72.5336
20
-83.4937
11
72.2775
21
-83.7989
0
LINE
8
Black
10
72.2775
20
-83.7989
11
71.9324
21
-83.9982
0
LINE
8
Black
10
71.9324
20
-83.9982
11
71.54
21
-84.0674
0
LINE
8
Black
10
71.54
20
-84.0674
11
71.1476
21
-83.9982
0
LINE
8
Black
10
71.1476
20
-83.9982
11
70.8025
21
-83.7989
0
LINE
8
Black
10
70.8025
20
-83.7989
11
70.5464
21
-83.4937
0
LINE
8
Black
10
70.5464
20
-83.4937
11
70.4101
21
-83.1192
0
LINE
8
Black
10
70.4101
20
-83.1192
11
70.4101
21
-82.7208
0
LINE
8
Black
10
70.4101
20
-82.7208
11
70.5464
21
-82.3463
0
LINE
8
Black
10
70.5464
20
-82.3463
11
70.8025
21
-82.0411
0
LINE
8
Black
10
70.8025
20
-82.0411
11
71.1476
21
-81.8418
0
LINE
8
Black
10
71.1476
20
-81.8418
11
71.54
21
-81.7726
0
LINE
8
Black
10
71.54
20
-81.7726
11
71.9324
21
-81.8418
0
LINE
8
Black
10
52.9324
20
-81.8418
11
53.2775
21
-82.0411
0
LINE
8
Black
10
53.2775
20
-82.0411
11
53.5336
21
-82.3463
0
LINE
8
Black
10
53.5336
20
-82.3463
11
53.6699
21
-82.7208
0
LINE
8
Black
10
53.6699
20
-82.7208
11
53.6699
21
-83.1192
0
LINE
8
Black
10
53.6699
20
-83.1192
11
53.5336
21
-83.4937
0
LINE
8
Black
10
53.5336
20
-83.4937
11
53.2775
21
-83.7989
0
LINE
8
Black
10
53.2775
20
-83.7989
11
52.9324
21
-83.9982
0
LINE
8
Black
10
52.9324
20
-83.9982
11
52.54
21
-84.0674
0
LINE
8
Black
10
52.54
20
-84.0674
11
52.1476
21
-83.9982
0
LINE
8
Black
10
52.1476
20
-83.9982
11
51.8025
21
-83.7989
0
LINE
8
Black
10
51.8025
20
-83.7989
11
51.5464
21
-83.4937
0
LINE
8
Black
10
51.5464
20
-83.4937
11
51.4101
21
-83.1192
0
LINE
8
Black
10
51.4101
20
-83.1192
11
51.4101
21
-82.7208
0
LINE
8
Black
10
51.4101
20
-82.7208
11
51.5464
21
-82.3463
0
LINE
8
Black
10
51.5464
20
-82.3463
11
51.8025
21
-82.0411
0
LINE
8
Black
10
51.8025
20
-82.0411
11
52.1476
21
-81.8418
0
LINE
8
Black
10
52.1476
20
-81.8418
11
52.54
21
-81.7726
0
LINE
8
Black
10
52.54
20
-81.7726
11
52.9324
21
-81.8418
0
LINE
8
Black
10
90.9324
20
-81.8418
11
91.2775
21
-82.0411
0
LINE
8
Black
10
91.2775
20
-82.0411
11
91.5336
21
-82.3463
0
LINE
8
Black
10
91.5336
20
-82.3463
11
91.6699
21
-82.7208
0
LINE
8
Black
10
91.6699
20
-82.7208
11
91.6699
21
-83.1192
0
LINE
8
Black
10
91.6699
20
-83.1192
11
91.5336
21
-83.4937
0
LINE
8
Black
10
91.5336
20
-83.4937
11
91.2775
21
-83.7989
0
LINE
8
Black
10
91.2775
20
-83.7989
11
90.9324
21
-83.9982
0
LINE
8
Black
10
90.9324
20
-83.9982
11
90.54
21
-84.0674
0
LINE
8
Black
10
90.54
20
-84.0674
11
90.1476
21
-83.9982
0
LINE
8
Black
10
90.1476
20
-83.9982
11
89.8025
21
-83.7989
0
LINE
8
Black
10
89.8025
20
-83.7989
11
89.5464
21
-83.4937
0
LINE
8
Black
10
89.5464
20
-83.4937
11
89.4101
21
-83.1192
0
LINE
8
Black
10
89.4101
20
-83.1192
11
89.4101
21
-82.7208
0
LINE
8
Black
10
89.4101
20
-82.7208
11
89.5464
21
-82.3463
0
LINE
8
Black
10
89.5464
20
-82.3463
11
89.8025
21
-82.0411
0
LINE
8
Black
10
89.8025
20
-82.0411
11
90.1476
21
-81.8418
0
LINE
8
Black
10
90.1476
20
-81.8418
11
90.54
21
-81.7726
0
LINE
8
Black
10
90.54
20
-81.7726
11
90.9324
21
-81.8418
0
LINE
8
Black
10
147.932
20
-81.8418
11
148.278
21
-82.0411
0
LINE
8
Black
10
148.278
20
-82.0411
11
148.534
21
-82.3463
0
LINE
8
Black
10
148.534
20
-82.3463
11
148.67
21
-82.7208
0
LINE
8
Black
10
148.67
20
-82.7208
11
148.67
21
-83.1192
0
LINE
8
Black
10
148.67
20
-83.1192
11
148.534
21
-83.4937
0
LINE
8
Black
10
148.534
20
-83.4937
11
148.278
21
-83.7989
0
LINE
8
Black
10
148.278
20
-83.7989
11
147.932
21
-83.9982
0
LINE
8
Black
10
147.932
20
-83.9982
11
147.54
21
-84.0674
0
LINE
8
Black
10
147.54
20
-84.0674
11
147.148
21
-83.9982
0
LINE
8
Black
10
147.148
20
-83.9982
11
146.802
21
-83.7989
0
LINE
8
Black
10
146.802
20
-83.7989
11
146.546
21
-83.4937
0
LINE
8
Black
10
146.546
20
-83.4937
11
146.41
21
-83.1192
0
LINE
8
Black
10
146.41
20
-83.1192
11
146.41
21
-82.7208
0
LINE
8
Black
10
146.41
20
-82.7208
11
146.546
21
-82.3463
0
LINE
8
Black
10
146.546
20
-82.3463
11
146.802
21
-82.0411
0
LINE
8
Black
10
146.802
20
-82.0411
11
147.148
21
-81.8418
0
LINE
8
Black
10
147.148
20
-81.8418
11
147.54
21
-81.7726
0
LINE
8
Black
10
147.54
20
-81.7726
11
147.932
21
-81.8418
0
LINE
8
Black
10
128.932
20
-81.8418
11
129.278
21
-82.0411
0
LINE
8
Black
10
129.278
20
-82.0411
11
129.534
21
-82.3463
0
LINE
8
Black
10
129.534
20
-82.3463
11
129.67
21
-82.7208
0
LINE
8
Black
10
129.67
20
-82.7208
11
129.67
21
-83.1192
0
LINE
8
Black
10
129.67
20
-83.1192
11
129.534
21
-83.4937
0
LINE
8
Black
10
129.534
20
-83.4937
11
129.278
21
-83.7989
0
LINE
8
Black
10
129.278
20
-83.7989
11
128.932
21
-83.9982
0
LINE
8
Black
10
128.932
20
-83.9982
11
128.54
21
-84.0674
0
LINE
8
Black
10
128.54
20
-84.0674
11
128.148
21
-83.9982
0
LINE
8
Black
10
128.148
20
-83.9982
11
127.802
21
-83.7989
0
LINE
8
Black
10
127.802
20
-83.7989
11
127.546
21
-83.4937
0
LINE
8
Black
10
127.546
20
-83.4937
11
127.41
21
-83.1192
0
LINE
8
Black
10
127.41
20
-83.1192
11
127.41
21
-82.7208
0
LINE
8
Black
10
127.41
20
-82.7208
11
127.546
21
-82.3463
0
LINE
8
Black
10
127.546
20
-82.3463
11
127.802
21
-82.0411
0
LINE
8
Black
10
127.802
20
-82.0411
11
128.148
21
-81.8418
0
LINE
8
Black
10
128.148
20
-81.8418
11
128.54
21
-81.7726
0
LINE
8
Black
10
128.54
20
-81.7726
11
128.932
21
-81.8418
0
LINE
8
Black
10
109.932
20
-81.8418
11
110.278
21
-82.0411
0
LINE
8
Black
10
110.278
20
-82.0411
11
110.534
21
-82.3463
0
LINE
8
Black
10
110.534
20
-82.3463
11
110.67
21
-82.7208
0
LINE
8
Black
10
110.67
20
-82.7208
11
110.67
21
-83.1192
0
LINE
8
Black
10
110.67
20
-83.1192
11
110.534
21
-83.4937
0
LINE
8
Black
10
110.534
20
-83.4937
11
110.278
21
-83.7989
0
LINE
8
Black
10
110.278
20
-83.7989
11
109.932
21
-83.9982
0
LINE
8
Black
10
109.932
20
-83.9982
11
109.54
21
-84.0674
0
LINE
8
Black
10
109.54
20
-84.0674
11
109.148
21
-83.9982
0
LINE
8
Black
10
109.148
20
-83.9982
11
108.802
21
-83.7989
0
LINE
8
Black
10
108.802
20
-83.7989
11
108.546
21
-83.4937
0
LINE
8
Black
10
108.546
20
-83.4937
11
108.41
21
-83.1192
0
LINE
8
Black
10
108.41
20
-83.1192
11
108.41
21
-82.7208
0
LINE
8
Black
10
108.41
20
-82.7208
11
108.546
21
-82.3463
0
LINE
8
Black
10
108.546
20
-82.3463
11
108.802
21
-82.0411
0
LINE
8
Black
10
108.802
20
-82.0411
11
109.148
21
-81.8418
0
LINE
8
Black
10
109.148
20
-81.8418
11
109.54
21
-81.7726
0
LINE
8
Black
10
109.54
20
-81.7726
11
109.932
21
-81.8418
0
LINE
8
Black
10
46.5824
20
-65.3818
11
46.9275
21
-65.5811
0
LINE
8
Black
10
46.9275
20
-65.5811
11
47.1836
21
-65.8863
0
LINE
8
Black
10
47.1836
20
-65.8863
11
47.3199
21
-66.2608
0
LINE
8
Black
10
47.3199
20
-66.2608
11
47.3199
21
-66.6592
0
LINE
8
Black
10
47.3199
20
-66.6592
11
47.1836
21
-67.0337
0
LINE
8
Black
10
47.1836
20
-67.0337
11
46.9275
21
-67.3389
0
LINE
8
Black
10
46.9275
20
-67.3389
11
46.5824
21
-67.5382
0
LINE
8
Black
10
46.5824
20
-67.5382
11
46.19
21
-67.6074
0
LINE
8
Black
10
46.19
20
-67.6074
11
45.7976
21
-67.5382
0
LINE
8
Black
10
45.7976
20
-67.5382
11
45.4525
21
-67.3389
0
LINE
8
Black
10
45.4525
20
-67.3389
11
45.1964
21
-67.0337
0
LINE
8
Black
10
45.1964
20
-67.0337
11
45.0601
21
-66.6592
0
LINE
8
Black
10
45.0601
20
-66.6592
11
45.0601
21
-66.2608
0
LINE
8
Black
10
45.0601
20
-66.2608
11
45.1964
21
-65.8863
0
LINE
8
Black
10
45.1964
20
-65.8863
11
45.4525
21
-65.5811
0
LINE
8
Black
10
45.4525
20
-65.5811
11
45.7976
21
-65.3818
0
LINE
8
Black
10
45.7976
20
-65.3818
11
46.19
21
-65.3126
0
LINE
8
Black
10
46.19
20
-65.3126
11
46.5824
21
-65.3818
0
LINE
8
Black
10
65.5824
20
-65.3818
11
65.9275
21
-65.5811
0
LINE
8
Black
10
65.9275
20
-65.5811
11
66.1836
21
-65.8863
0
LINE
8
Black
10
66.1836
20
-65.8863
11
66.3199
21
-66.2608
0
LINE
8
Black
10
66.3199
20
-66.2608
11
66.3199
21
-66.6592
0
LINE
8
Black
10
66.3199
20
-66.6592
11
66.1836
21
-67.0337
0
LINE
8
Black
10
66.1836
20
-67.0337
11
65.9275
21
-67.3389
0
LINE
8
Black
10
65.9275
20
-67.3389
11
65.5824
21
-67.5382
0
LINE
8
Black
10
65.5824
20
-67.5382
11
65.19
21
-67.6074
0
LINE
8
Black
10
65.19
20
-67.6074
11
64.7976
21
-67.5382
0
LINE
8
Black
10
64.7976
20
-67.5382
11
64.4525
21
-67.3389
0
LINE
8
Black
10
64.4525
20
-67.3389
11
64.1964
21
-67.0337
0
LINE
8
Black
10
64.1964
20
-67.0337
11
64.0601
21
-66.6592
0
LINE
8
Black
10
64.0601
20
-66.6592
11
64.0601
21
-66.2608
0
LINE
8
Black
10
64.0601
20
-66.2608
11
64.1964
21
-65.8863
0
LINE
8
Black
10
64.1964
20
-65.8863
11
64.4525
21
-65.5811
0
LINE
8
Black
10
64.4525
20
-65.5811
11
64.7976
21
-65.3818
0
LINE
8
Black
10
64.7976
20
-65.3818
11
65.19
21
-65.3126
0
LINE
8
Black
10
65.19
20
-65.3126
11
65.5824
21
-65.3818
0
LINE
8
Black
10
84.5824
20
-65.3818
11
84.9275
21
-65.5811
0
LINE
8
Black
10
84.9275
20
-65.5811
11
85.1836
21
-65.8863
0
LINE
8
Black
10
85.1836
20
-65.8863
11
85.3199
21
-66.2608
0
LINE
8
Black
10
85.3199
20
-66.2608
11
85.3199
21
-66.6592
0
LINE
8
Black
10
85.3199
20
-66.6592
11
85.1836
21
-67.0337
0
LINE
8
Black
10
85.1836
20
-67.0337
11
84.9275
21
-67.3389
0
LINE
8
Black
10
84.9275
20
-67.3389
11
84.5824
21
-67.5382
0
LINE
8
Black
10
84.5824
20
-67.5382
11
84.19
21
-67.6074
0
LINE
8
Black
10
84.19
20
-67.6074
11
83.7976
21
-67.5382
0
LINE
8
Black
10
83.7976
20
-67.5382
11
83.4525
21
-67.3389
0
LINE
8
Black
10
83.4525
20
-67.3389
11
83.1964
21
-67.0337
0
LINE
8
Black
10
83.1964
20
-67.0337
11
83.0601
21
-66.6592
0
LINE
8
Black
10
83.0601
20
-66.6592
11
83.0601
21
-66.2608
0
LINE
8
Black
10
83.0601
20
-66.2608
11
83.1964
21
-65.8863
0
LINE
8
Black
10
83.1964
20
-65.8863
11
83.4525
21
-65.5811
0
LINE
8
Black
10
83.4525
20
-65.5811
11
83.7976
21
-65.3818
0
LINE
8
Black
10
83.7976
20
-65.3818
11
84.19
21
-65.3126
0
LINE
8
Black
10
84.19
20
-65.3126
11
84.5824
21
-65.3818
0
LINE
8
Black
10
103.582
20
-65.3818
11
103.928
21
-65.5811
0
LINE
8
Black
10
103.928
20
-65.5811
11
104.184
21
-65.8863
0
LINE
8
Black
10
104.184
20
-65.8863
11
104.32
21
-66.2608
0
LINE
8
Black
10
104.32
20
-66.2608
11
104.32
21
-66.6592
0
LINE
8
Black
10
104.32
20
-66.6592
11
104.184
21
-67.0337
0
LINE
8
Black
10
104.184
20
-67.0337
11
103.928
21
-67.3389
0
LINE
8
Black
10
103.928
20
-67.3389
11
103.582
21
-67.5382
0
LINE
8
Black
10
103.582
20
-67.5382
11
103.19
21
-67.6074
0
LINE
8
Black
10
103.19
20
-67.6074
11
102.798
21
-67.5382
0
LINE
8
Black
10
102.798
20
-67.5382
11
102.452
21
-67.3389
0
LINE
8
Black
10
102.452
20
-67.3389
11
102.196
21
-67.0337
0
LINE
8
Black
10
102.196
20
-67.0337
11
102.06
21
-66.6592
0
LINE
8
Black
10
102.06
20
-66.6592
11
102.06
21
-66.2608
0
LINE
8
Black
10
102.06
20
-66.2608
11
102.196
21
-65.8863
0
LINE
8
Black
10
102.196
20
-65.8863
11
102.452
21
-65.5811
0
LINE
8
Black
10
102.452
20
-65.5811
11
102.798
21
-65.3818
0
LINE
8
Black
10
102.798
20
-65.3818
11
103.19
21
-65.3126
0
LINE
8
Black
10
103.19
20
-65.3126
11
103.582
21
-65.3818
0
LINE
8
Black
10
122.582
20
-65.3818
11
122.928
21
-65.5811
0
LINE
8
Black
10
122.928
20
-65.5811
11
123.184
21
-65.8863
0
LINE
8
Black
10
123.184
20
-65.8863
11
123.32
21
-66.2608
0
LINE
8
Black
10
123.32
20
-66.2608
11
123.32
21
-66.6592
0
LINE
8
Black
10
123.32
20
-66.6592
11
123.184
21
-67.0337
0
LINE
8
Black
10
123.184
20
-67.0337
11
122.928
21
-67.3389
0
LINE
8
Black
10
122.928
20
-67.3389
11
122.582
21
-67.5382
0
LINE
8
Black
10
122.582
20
-67.5382
11
122.19
21
-67.6074
0
LINE
8
Black
10
122.19
20
-67.6074
11
121.798
21
-67.5382
0
LINE
8
Black
10
121.798
20
-67.5382
11
121.452
21
-67.3389
0
LINE
8
Black
10
121.452
20
-67.3389
11
121.196
21
-67.0337
0
LINE
8
Black
10
121.196
20
-67.0337
11
121.06
21
-66.6592
0
LINE
8
Black
10
121.06
20
-66.6592
11
121.06
21
-66.2608
0
LINE
8
Black
10
121.06
20
-66.2608
11
121.196
21
-65.8863
0
LINE
8
Black
10
121.196
20
-65.8863
11
121.452
21
-65.5811
0
LINE
8
Black
10
121.452
20
-65.5811
11
121.798
21
-65.3818
0
LINE
8
Black
10
121.798
20
-65.3818
11
122.19
21
-65.3126
0
LINE
8
Black
10
122.19
20
-65.3126
11
122.582
21
-65.3818
0
LINE
8
Black
10
141.582
20
-65.3818
11
141.928
21
-65.5811
0
LINE
8
Black
10
141.928
20
-65.5811
11
142.184
21
-65.8863
0
LINE
8
Black
10
142.184
20
-65.8863
11
142.32
21
-66.2608
0
LINE
8
Black
10
142.32
20
-66.2608
11
142.32
21
-66.6592
0
LINE
8
Black
10
142.32
20
-66.6592
11
142.184
21
-67.0337
0
LINE
8
Black
10
142.184
20
-67.0337
11
141.928
21
-67.3389
0
LINE
8
Black
10
141.928
20
-67.3389
11
141.582
21
-67.5382
0
LINE
8
Black
10
141.582
20
-67.5382
11
141.19
21
-67.6074
0
LINE
8
Black
10
141.19
20
-67.6074
11
140.798
21
-67.5382
0
LINE
8
Black
10
140.798
20
-67.5382
11
140.452
21
-67.3389
0
LINE
8
Black
10
140.452
20
-67.3389
11
140.196
21
-67.0337
0
LINE
8
Black
10
140.196
20
-67.0337
11
140.06
21
-66.6592
0
LINE
8
Black
10
140.06
20
-66.6592
11
140.06
21
-66.2608
0
LINE
8
Black
10
140.06
20
-66.2608
11
140.196
21
-65.8863
0
LINE
8
Black
10
140.196
20
-65.8863
11
140.452
21
-65.5811
0
LINE
8
Black
10
140.452
20
-65.5811
11
140.798
21
-65.3818
0
LINE
8
Black
10
140.798
20
-65.3818
11
141.19
21
-65.3126
0
LINE
8
Black
10
141.19
20
-65.3126
11
141.582
21
-65.3818
0
LINE
8
Black
10
52.9324
20
-62.8418
11
53.2775
21
-63.0411
0
LINE
8
Black
10
53.2775
20
-63.0411
11
53.5336
21
-63.3463
0
LINE
8
Black
10
53.5336
20
-63.3463
11
53.6699
21
-63.7208
0
LINE
8
Black
10
53.6699
20
-63.7208
11
53.6699
21
-64.1192
0
LINE
8
Black
10
53.6699
20
-64.1192
11
53.5336
21
-64.4937
0
LINE
8
Black
10
53.5336
20
-64.4937
11
53.2775
21
-64.7989
0
LINE
8
Black
10
53.2775
20
-64.7989
11
52.9324
21
-64.9982
0
LINE
8
Black
10
52.9324
20
-64.9982
11
52.54
21
-65.0674
0
LINE
8
Black
10
52.54
20
-65.0674
11
52.1476
21
-64.9982
0
LINE
8
Black
10
52.1476
20
-64.9982
11
51.8025
21
-64.7989
0
LINE
8
Black
10
51.8025
20
-64.7989
11
51.5464
21
-64.4937
0
LINE
8
Black
10
51.5464
20
-64.4937
11
51.4101
21
-64.1192
0
LINE
8
Black
10
51.4101
20
-64.1192
11
51.4101
21
-63.7208
0
LINE
8
Black
10
51.4101
20
-63.7208
11
51.5464
21
-63.3463
0
LINE
8
Black
10
51.5464
20
-63.3463
11
51.8025
21
-63.0411
0
LINE
8
Black
10
51.8025
20
-63.0411
11
52.1476
21
-62.8418
0
LINE
8
Black
10
52.1476
20
-62.8418
11
52.54
21
-62.7726
0
LINE
8
Black
10
52.54
20
-62.7726
11
52.9324
21
-62.8418
0
LINE
8
Black
10
128.932
20
-62.8418
11
129.278
21
-63.0411
0
LINE
8
Black
10
129.278
20
-63.0411
11
129.534
21
-63.3463
0
LINE
8
Black
10
129.534
20
-63.3463
11
129.67
21
-63.7208
0
LINE
8
Black
10
129.67
20
-63.7208
11
129.67
21
-64.1192
0
LINE
8
Black
10
129.67
20
-64.1192
11
129.534
21
-64.4937
0
LINE
8
Black
10
129.534
20
-64.4937
11
129.278
21
-64.7989
0
LINE
8
Black
10
129.278
20
-64.7989
11
128.932
21
-64.9982
0
LINE
8
Black
10
128.932
20
-64.9982
11
128.54
21
-65.0674
0
LINE
8
Black
10
128.54
20
-65.0674
11
128.148
21
-64.9982
0
LINE
8
Black
10
128.148
20
-64.9982
11
127.802
21
-64.7989
0
LINE
8
Black
10
127.802
20
-64.7989
11
127.546
21
-64.4937
0
LINE
8
Black
10
127.546
20
-64.4937
11
127.41
21
-64.1192
0
LINE
8
Black
10
127.41
20
-64.1192
11
127.41
21
-63.7208
0
LINE
8
Black
10
127.41
20
-63.7208
11
127.546
21
-63.3463
0
LINE
8
Black
10
127.546
20
-63.3463
11
127.802
21
-63.0411
0
LINE
8
Black
10
127.802
20
-63.0411
11
128.148
21
-62.8418
0
LINE
8
Black
10
128.148
20
-62.8418
11
128.54
21
-62.7726
0
LINE
8
Black
10
128.54
20
-62.7726
11
128.932
21
-62.8418
0
LINE
8
Black
10
71.9324
20
-62.8418
11
72.2775
21
-63.0411
0
LINE
8
Black
10
72.2775
20
-63.0411
11
72.5336
21
-63.3463
0
LINE
8
Black
10
72.5336
20
-63.3463
11
72.6699
21
-63.7208
0
LINE
8
Black
10
72.6699
20
-63.7208
11
72.6699
21
-64.1192
0
LINE
8
Black
10
72.6699
20
-64.1192
11
72.5336
21
-64.4937
0
LINE
8
Black
10
72.5336
20
-64.4937
11
72.2775
21
-64.7989
0
LINE
8
Black
10
72.2775
20
-64.7989
11
71.9324
21
-64.9982
0
LINE
8
Black
10
71.9324
20
-64.9982
11
71.54
21
-65.0674
0
LINE
8
Black
10
71.54
20
-65.0674
11
71.1476
21
-64.9982
0
LINE
8
Black
10
71.1476
20
-64.9982
11
70.8025
21
-64.7989
0
LINE
8
Black
10
70.8025
20
-64.7989
11
70.5464
21
-64.4937
0
LINE
8
Black
10
70.5464
20
-64.4937
11
70.4101
21
-64.1192
0
LINE
8
Black
10
70.4101
20
-64.1192
11
70.4101
21
-63.7208
0
LINE
8
Black
10
70.4101
20
-63.7208
11
70.5464
21
-63.3463
0
LINE
8
Black
10
70.5464
20
-63.3463
11
70.8025
21
-63.0411
0
LINE
8
Black
10
70.8025
20
-63.0411
11
71.1476
21
-62.8418
0
LINE
8
Black
10
71.1476
20
-62.8418
11
71.54
21
-62.7726
0
LINE
8
Black
10
71.54
20
-62.7726
11
71.9324
21
-62.8418
0
LINE
8
Black
10
90.9324
20
-62.8418
11
91.2775
21
-63.0411
0
LINE
8
Black
10
91.2775
20
-63.0411
11
91.5336
21
-63.3463
0
LINE
8
Black
10
91.5336
20
-63.3463
11
91.6699
21
-63.7208
0
LINE
8
Black
10
91.6699
20
-63.7208
11
91.6699
21
-64.1192
0
LINE
8
Black
10
91.6699
20
-64.1192
11
91.5336
21
-64.4937
0
LINE
8
Black
10
91.5336
20
-64.4937
11
91.2775
21
-64.7989
0
LINE
8
Black
10
91.2775
20
-64.7989
11
90.9324
21
-64.9982
0
LINE
8
Black
10
90.9324
20
-64.9982
11
90.54
21
-65.0674
0
LINE
8
Black
10
90.54
20
-65.0674
11
90.1476
21
-64.9982
0
LINE
8
Black
10
90.1476
20
-64.9982
11
89.8025
21
-64.7989
0
LINE
8
Black
10
89.8025
20
-64.7989
11
89.5464
21
-64.4937
0
LINE
8
Black
10
89.5464
20
-64.4937
11
89.4101
21
-64.1192
0
LINE
8
Black
10
89.4101
20
-64.1192
11
89.4101
21
-63.7208
0
LINE
8
Black
10
89.4101
20
-63.7208
11
89.5464
21
-63.3463
0
LINE
8
Black
10
89.5464
20
-63.3463
11
89.8025
21
-63.0411
0
LINE
8
Black
10
89.8025
20
-63.0411
11
90.1476
21
-62.8418
0
LINE
8
Black
10
90.1476
20
-62.8418
11
90.54
21
-62.7726
0
LINE
8
Black
10
90.54
20
-62.7726
11
90.9324
21
-62.8418
0
LINE
8
Black
10
147.932
20
-62.8418
11
148.278
21
-63.0411
0
LINE
8
Black
10
148.278
20
-63.0411
11
148.534
21
-63.3463
0
LINE
8
Black
10
148.534
20
-63.3463
11
148.67
21
-63.7208
0
LINE
8
Black
10
148.67
20
-63.7208
11
148.67
21
-64.1192
0
LINE
8
Black
10
148.67
20
-64.1192
11
148.534
21
-64.4937
0
LINE
8
Black
10
148.534
20
-64.4937
11
148.278
21
-64.7989
0
LINE
8
Black
10
148.278
20
-64.7989
11
147.932
21
-64.9982
0
LINE
8
Black
10
147.932
20
-64.9982
11
147.54
21
-65.0674
0
LINE
8
Black
10
147.54
20
-65.0674
11
147.148
21
-64.9982
0
LINE
8
Black
10
147.148
20
-64.9982
11
146.802
21
-64.7989
0
LINE
8
Black
10
146.802
20
-64.7989
11
146.546
21
-64.4937
0
LINE
8
Black
10
146.546
20
-64.4937
11
146.41
21
-64.1192
0
LINE
8
Black
10
146.41
20
-64.1192
11
146.41
21
-63.7208
0
LINE
8
Black
10
146.41
20
-63.7208
11
146.546
21
-63.3463
0
LINE
8
Black
10
146.546
20
-63.3463
11
146.802
21
-63.0411
0
LINE
8
Black
10
146.802
20
-63.0411
11
147.148
21
-62.8418
0
LINE
8
Black
10
147.148
20
-62.8418
11
147.54
21
-62.7726
0
LINE
8
Black
10
147.54
20
-62.7726
11
147.932
21
-62.8418
0
LINE
8
Black
10
109.932
20
-62.8418
11
110.278
21
-63.0411
0
LINE
8
Black
10
110.278
20
-63.0411
11
110.534
21
-63.3463
0
LINE
8
Black
10
110.534
20
-63.3463
11
110.67
21
-63.7208
0
LINE
8
Black
10
110.67
20
-63.7208
11
110.67
21
-64.1192
0
LINE
8
Black
10
110.67
20
-64.1192
11
110.534
21
-64.4937
0
LINE
8
Black
10
110.534
20
-64.4937
11
110.278
21
-64.7989
0
LINE
8
Black
10
110.278
20
-64.7989
11
109.932
21
-64.9982
0
LINE
8
Black
10
109.932
20
-64.9982
11
109.54
21
-65.0674
0
LINE
8
Black
10
109.54
20
-65.0674
11
109.148
21
-64.9982
0
LINE
8
Black
10
109.148
20
-64.9982
11
108.802
21
-64.7989
0
LINE
8
Black
10
108.802
20
-64.7989
11
108.546
21
-64.4937
0
LINE
8
Black
10
108.546
20
-64.4937
11
108.41
21
-64.1192
0
LINE
8
Black
10
108.41
20
-64.1192
11
108.41
21
-63.7208
0
LINE
8
Black
10
108.41
20
-63.7208
11
108.546
21
-63.3463
0
LINE
8
Black
10
108.546
20
-63.3463
11
108.802
21
-63.0411
0
LINE
8
Black
10
108.802
20
-63.0411
11
109.148
21
-62.8418
0
LINE
8
Black
10
109.148
20
-62.8418
11
109.54
21
-62.7726
0
LINE
8
Black
10
109.54
20
-62.7726
11
109.932
21
-62.8418
0
LINE
8
Black
10
103.582
20
-46.3818
11
103.928
21
-46.5811
0
LINE
8
Black
10
103.928
20
-46.5811
11
104.184
21
-46.8863
0
LINE
8
Black
10
104.184
20
-46.8863
11
104.32
21
-47.2608
0
LINE
8
Black
10
104.32
20
-47.2608
11
104.32
21
-47.6592
0
LINE
8
Black
10
104.32
20
-47.6592
11
104.184
21
-48.0337
0
LINE
8
Black
10
104.184
20
-48.0337
11
103.928
21
-48.3389
0
LINE
8
Black
10
103.928
20
-48.3389
11
103.582
21
-48.5382
0
LINE
8
Black
10
103.582
20
-48.5382
11
103.19
21
-48.6074
0
LINE
8
Black
10
103.19
20
-48.6074
11
102.798
21
-48.5382
0
LINE
8
Black
10
102.798
20
-48.5382
11
102.452
21
-48.3389
0
LINE
8
Black
10
102.452
20
-48.3389
11
102.196
21
-48.0337
0
LINE
8
Black
10
102.196
20
-48.0337
11
102.06
21
-47.6592
0
LINE
8
Black
10
102.06
20
-47.6592
11
102.06
21
-47.2608
0
LINE
8
Black
10
102.06
20
-47.2608
11
102.196
21
-46.8863
0
LINE
8
Black
10
102.196
20
-46.8863
11
102.452
21
-46.5811
0
LINE
8
Black
10
102.452
20
-46.5811
11
102.798
21
-46.3818
0
LINE
8
Black
10
102.798
20
-46.3818
11
103.19
21
-46.3126
0
LINE
8
Black
10
103.19
20
-46.3126
11
103.582
21
-46.3818
0
LINE
8
Black
10
122.582
20
-46.3818
11
122.928
21
-46.5811
0
LINE
8
Black
10
122.928
20
-46.5811
11
123.184
21
-46.8863
0
LINE
8
Black
10
123.184
20
-46.8863
11
123.32
21
-47.2608
0
LINE
8
Black
10
123.32
20
-47.2608
11
123.32
21
-47.6592
0
LINE
8
Black
10
123.32
20
-47.6592
11
123.184
21
-48.0337
0
LINE
8
Black
10
123.184
20
-48.0337
11
122.928
21
-48.3389
0
LINE
8
Black
10
122.928
20
-48.3389
11
122.582
21
-48.5382
0
LINE
8
Black
10
122.582
20
-48.5382
11
122.19
21
-48.6074
0
LINE
8
Black
10
122.19
20
-48.6074
11
121.798
21
-48.5382
0
LINE
8
Black
10
121.798
20
-48.5382
11
121.452
21
-48.3389
0
LINE
8
Black
10
121.452
20
-48.3389
11
121.196
21
-48.0337
0
LINE
8
Black
10
121.196
20
-48.0337
11
121.06
21
-47.6592
0
LINE
8
Black
10
121.06
20
-47.6592
11
121.06
21
-47.2608
0
LINE
8
Black
10
121.06
20
-47.2608
11
121.196
21
-46.8863
0
LINE
8
Black
10
121.196
20
-46.8863
11
121.452
21
-46.5811
0
LINE
8
Black
10
121.452
20
-46.5811
11
121.798
21
-46.3818
0
LINE
8
Black
10
121.798
20
-46.3818
11
122.19
21
-46.3126
0
LINE
8
Black
10
122.19
20
-46.3126
11
122.582
21
-46.3818
0
LINE
8
Black
10
141.582
20
-46.3818
11
141.928
21
-46.5811
0
LINE
8
Black
10
141.928
20
-46.5811
11
142.184
21
-46.8863
0
LINE
8
Black
10
142.184
20
-46.8863
11
142.32
21
-47.2608
0
LINE
8
Black
10
142.32
20
-47.2608
11
142.32
21
-47.6592
0
LINE
8
Black
10
142.32
20
-47.6592
11
142.184
21
-48.0337
0
LINE
8
Black
10
142.184
20
-48.0337
11
141.928
21
-48.3389
0
LINE
8
Black
10
141.928
20
-48.3389
11
141.582
21
-48.5382
0
LINE
8
Black
10
141.582
20
-48.5382
11
141.19
21
-48.6074
0
LINE
8
Black
10
141.19
20
-48.6074
11
140.798
21
-48.5382
0
LINE
8
Black
10
140.798
20
-48.5382
11
140.452
21
-48.3389
0
LINE
8
Black
10
140.452
20
-48.3389
11
140.196
21
-48.0337
0
LINE
8
Black
10
140.196
20
-48.0337
11
140.06
21
-47.6592
0
LINE
8
Black
10
140.06
20
-47.6592
11
140.06
21
-47.2608
0
LINE
8
Black
10
140.06
20
-47.2608
11
140.196
21
-46.8863
0
LINE
8
Black
10
140.196
20
-46.8863
11
140.452
21
-46.5811
0
LINE
8
Black
10
140.452
20
-46.5811
11
140.798
21
-46.3818
0
LINE
8
Black
10
140.798
20
-46.3818
11
141.19
21
-46.3126
0
LINE
8
Black
10
141.19
20
-46.3126
11
141.582
21
-46.3818
0
LINE
8
Black
10
84.5824
20
-46.3818
11
84.9275
21
-46.5811
0
LINE
8
Black
10
84.9275
20
-46.5811
11
85.1836
21
-46.8863
0
LINE
8
Black
10
85.1836
20
-46.8863
11
85.3199
21
-47.2608
0
LINE
8
Black
10
85.3199
20
-47.2608
11
85.3199
21
-47.6592
0
LINE
8
Black
10
85.3199
20
-47.6592
11
85.1836
21
-48.0337
0
LINE
8
Black
10
85.1836
20
-48.0337
11
84.9275
21
-48.3389
0
LINE
8
Black
10
84.9275
20
-48.3389
11
84.5824
21
-48.5382
0
LINE
8
Black
10
84.5824
20
-48.5382
11
84.19
21
-48.6074
0
LINE
8
Black
10
84.19
20
-48.6074
11
83.7976
21
-48.5382
0
LINE
8
Black
10
83.7976
20
-48.5382
11
83.4525
21
-48.3389
0
LINE
8
Black
10
83.4525
20
-48.3389
11
83.1964
21
-48.0337
0
LINE
8
Black
10
83.1964
20
-48.0337
11
83.0601
21
-47.6592
0
LINE
8
Black
10
83.0601
20
-47.6592
11
83.0601
21
-47.2608
0
LINE
8
Black
10
83.0601
20
-47.2608
11
83.1964
21
-46.8863
0
LINE
8
Black
10
83.1964
20
-46.8863
11
83.4525
21
-46.5811
0
LINE
8
Black
10
83.4525
20
-46.5811
11
83.7976
21
-46.3818
0
LINE
8
Black
10
83.7976
20
-46.3818
11
84.19
21
-46.3126
0
LINE
8
Black
10
84.19
20
-46.3126
11
84.5824
21
-46.3818
0
LINE
8
Black
10
65.5824
20
-46.3818
11
65.9275
21
-46.5811
0
LINE
8
Black
10
65.9275
20
-46.5811
11
66.1836
21
-46.8863
0
LINE
8
Black
10
66.1836
20
-46.8863
11
66.3199
21
-47.2608
0
LINE
8
Black
10
66.3199
20
-47.2608
11
66.3199
21
-47.6592
0
LINE
8
Black
10
66.3199
20
-47.6592
11
66.1836
21
-48.0337
0
LINE
8
Black
10
66.1836
20
-48.0337
11
65.9275
21
-48.3389
0
LINE
8
Black
10
65.9275
20
-48.3389
11
65.5824
21
-48.5382
0
LINE
8
Black
10
65.5824
20
-48.5382
11
65.19
21
-48.6074
0
LINE
8
Black
10
65.19
20
-48.6074
11
64.7976
21
-48.5382
0
LINE
8
Black
10
64.7976
20
-48.5382
11
64.4525
21
-48.3389
0
LINE
8
Black
10
64.4525
20
-48.3389
11
64.1964
21
-48.0337
0
LINE
8
Black
10
64.1964
20
-48.0337
11
64.0601
21
-47.6592
0
LINE
8
Black
10
64.0601
20
-47.6592
11
64.0601
21
-47.2608
0
LINE
8
Black
10
64.0601
20
-47.2608
11
64.1964
21
-46.8863
0
LINE
8
Black
10
64.1964
20
-46.8863
11
64.4525
21
-46.5811
0
LINE
8
Black
10
64.4525
20
-46.5811
11
64.7976
21
-46.3818
0
LINE
8
Black
10
64.7976
20
-46.3818
11
65.19
21
-46.3126
0
LINE
8
Black
10
65.19
20
-46.3126
11
65.5824
21
-46.3818
0
LINE
8
Black
10
46.5824
20
-46.3818
11
46.9275
21
-46.5811
0
LINE
8
Black
10
46.9275
20
-46.5811
11
47.1836
21
-46.8863
0
LINE
8
Black
10
47.1836
20
-46.8863
11
47.3199
21
-47.2608
0
LINE
8
Black
10
47.3199
20
-47.2608
11
47.3199
21
-47.6592
0
LINE
8
Black
10
47.3199
20
-47.6592
11
47.1836
21
-48.0337
0
LINE
8
Black
10
47.1836
20
-48.0337
11
46.9275
21
-48.3389
0
LINE
8
Black
10
46.9275
20
-48.3389
11
46.5824
21
-48.5382
0
LINE
8
Black
10
46.5824
20
-48.5382
11
46.19
21
-48.6074
0
LINE
8
Black
10
46.19
20
-48.6074
11
45.7976
21
-48.5382
0
LINE
8
Black
10
45.7976
20
-48.5382
11
45.4525
21
-48.3389
0
LINE
8
Black
10
45.4525
20
-48.3389
11
45.1964
21
-48.0337
0
LINE
8
Black
10
45.1964
20
-48.0337
11
45.0601
21
-47.6592
0
LINE
8
Black
10
45.0601
20
-47.6592
11
45.0601
21
-47.2608
0
LINE
8
Black
10
45.0601
20
-47.2608
11
45.1964
21
-46.8863
0
LINE
8
Black
10
45.1964
20
-46.8863
11
45.4525
21
-46.5811
0
LINE
8
Black
10
45.4525
20
-46.5811
11
45.7976
21
-46.3818
0
LINE
8
Black
10
45.7976
20
-46.3818
11
46.19
21
-46.3126
0
LINE
8
Black
10
46.19
20
-46.3126
11
46.5824
21
-46.3818
0
LINE
8
Black
10
109.932
20
-43.8418
11
110.278
21
-44.0411
0
LINE
8
Black
10
110.278
20
-44.0411
11
110.534
21
-44.3463
0
LINE
8
Black
10
110.534
20
-44.3463
11
110.67
21
-44.7208
0
LINE
8
Black
10
110.67
20
-44.7208
11
110.67
21
-45.1192
0
LINE
8
Black
10
110.67
20
-45.1192
11
110.534
21
-45.4937
0
LINE
8
Black
10
110.534
20
-45.4937
11
110.278
21
-45.7989
0
LINE
8
Black
10
110.278
20
-45.7989
11
109.932
21
-45.9982
0
LINE
8
Black
10
109.932
20
-45.9982
11
109.54
21
-46.0674
0
LINE
8
Black
10
109.54
20
-46.0674
11
109.148
21
-45.9982
0
LINE
8
Black
10
109.148
20
-45.9982
11
108.802
21
-45.7989
0
LINE
8
Black
10
108.802
20
-45.7989
11
108.546
21
-45.4937
0
LINE
8
Black
10
108.546
20
-45.4937
11
108.41
21
-45.1192
0
LINE
8
Black
10
108.41
20
-45.1192
11
108.41
21
-44.7208
0
LINE
8
Black
10
108.41
20
-44.7208
11
108.546
21
-44.3463
0
LINE
8
Black
10
108.546
20
-44.3463
11
108.802
21
-44.0411
0
LINE
8
Black
10
108.802
20
-44.0411
11
109.148
21
-43.8418
0
LINE
8
Black
10
109.148
20
-43.8418
11
109.54
21
-43.7726
0
LINE
8
Black
10
109.54
20
-43.7726
11
109.932
21
-43.8418
0
LINE
8
Black
10
128.932
20
-43.8418
11
129.278
21
-44.0411
0
LINE
8
Black
10
129.278
20
-44.0411
11
129.534
21
-44.3463
0
LINE
8
Black
10
129.534
20
-44.3463
11
129.67
21
-44.7208
0
LINE
8
Black
10
129.67
20
-44.7208
11
129.67
21
-45.1192
0
LINE
8
Black
10
129.67
20
-45.1192
11
129.534
21
-45.4937
0
LINE
8
Black
10
129.534
20
-45.4937
11
129.278
21
-45.7989
0
LINE
8
Black
10
129.278
20
-45.7989
11
128.932
21
-45.9982
0
LINE
8
Black
10
128.932
20
-45.9982
11
128.54
21
-46.0674
0
LINE
8
Black
10
128.54
20
-46.0674
11
128.148
21
-45.9982
0
LINE
8
Black
10
128.148
20
-45.9982
11
127.802
21
-45.7989
0
LINE
8
Black
10
127.802
20
-45.7989
11
127.546
21
-45.4937
0
LINE
8
Black
10
127.546
20
-45.4937
11
127.41
21
-45.1192
0
LINE
8
Black
10
127.41
20
-45.1192
11
127.41
21
-44.7208
0
LINE
8
Black
10
127.41
20
-44.7208
11
127.546
21
-44.3463
0
LINE
8
Black
10
127.546
20
-44.3463
11
127.802
21
-44.0411
0
LINE
8
Black
10
127.802
20
-44.0411
11
128.148
21
-43.8418
0
LINE
8
Black
10
128.148
20
-43.8418
11
128.54
21
-43.7726
0
LINE
8
Black
10
128.54
20
-43.7726
11
128.932
21
-43.8418
0
LINE
8
Black
10
147.932
20
-43.8418
11
148.278
21
-44.0411
0
LINE
8
Black
10
148.278
20
-44.0411
11
148.534
21
-44.3463
0
LINE
8
Black
10
148.534
20
-44.3463
11
148.67
21
-44.7208
0
LINE
8
Black
10
148.67
20
-44.7208
11
148.67
21
-45.1192
0
LINE
8
Black
10
148.67
20
-45.1192
11
148.534
21
-45.4937
0
LINE
8
Black
10
148.534
20
-45.4937
11
148.278
21
-45.7989
0
LINE
8
Black
10
148.278
20
-45.7989
11
147.932
21
-45.9982
0
LINE
8
Black
10
147.932
20
-45.9982
11
147.54
21
-46.0674
0
LINE
8
Black
10
147.54
20
-46.0674
11
147.148
21
-45.9982
0
LINE
8
Black
10
147.148
20
-45.9982
11
146.802
21
-45.7989
0
LINE
8
Black
10
146.802
20
-45.7989
11
146.546
21
-45.4937
0
LINE
8
Black
10
146.546
20
-45.4937
11
146.41
21
-45.1192
0
LINE
8
Black
10
146.41
20
-45.1192
11
146.41
21
-44.7208
0
LINE
8
Black
10
146.41
20
-44.7208
11
146.546
21
-44.3463
0
LINE
8
Black
10
146.546
20
-44.3463
11
146.802
21
-44.0411
0
LINE
8
Black
10
146.802
20
-44.0411
11
147.148
21
-43.8418
0
LINE
8
Black
10
147.148
20
-43.8418
11
147.54
21
-43.7726
0
LINE
8
Black
10
147.54
20
-43.7726
11
147.932
21
-43.8418
0
LINE
8
Black
10
90.9324
20
-43.8418
11
91.2775
21
-44.0411
0
LINE
8
Black
10
91.2775
20
-44.0411
11
91.5336
21
-44.3463
0
LINE
8
Black
10
91.5336
20
-44.3463
11
91.6699
21
-44.7208
0
LINE
8
Black
10
91.6699
20
-44.7208
11
91.6699
21
-45.1192
0
LINE
8
Black
10
91.6699
20
-45.1192
11
91.5336
21
-45.4937
0
LINE
8
Black
10
91.5336
20
-45.4937
11
91.2775
21
-45.7989
0
LINE
8
Black
10
91.2775
20
-45.7989
11
90.9324
21
-45.9982
0
LINE
8
Black
10
90.9324
20
-45.9982
11
90.54
21
-46.0674
0
LINE
8
Black
10
90.54
20
-46.0674
11
90.1476
21
-45.9982
0
LINE
8
Black
10
90.1476
20
-45.9982
11
89.8025
21
-45.7989
0
LINE
8
Black
10
89.8025
20
-45.7989
11
89.5464
21
-45.4937
0
LINE
8
Black
10
89.5464
20
-45.4937
11
89.4101
21
-45.1192
0
LINE
8
Black
10
89.4101
20
-45.1192
11
89.4101
21
-44.7208
0
LINE
8
Black
10
89.4101
20
-44.7208
11
89.5464
21
-44.3463
0
LINE
8
Black
10
89.5464
20
-44.3463
11
89.8025
21
-44.0411
0
LINE
8
Black
10
89.8025
20
-44.0411
11
90.1476
21
-43.8418
0
LINE
8
Black
10
90.1476
20
-43.8418
11
90.54
21
-43.7726
0
LINE
8
Black
10
90.54
20
-43.7726
11
90.9324
21
-43.8418
0
LINE
8
Black
10
71.9324
20
-43.8418
11
72.2775
21
-44.0411
0
LINE
8
Black
10
72.2775
20
-44.0411
11
72.5336
21
-44.3463
0
LINE
8
Black
10
72.5336
20
-44.3463
11
72.6699
21
-44.7208
0
LINE
8
Black
10
72.6699
20
-44.7208
11
72.6699
21
-45.1192
0
LINE
8
Black
10
72.6699
20
-45.1192
11
72.5336
21
-45.4937
0
LINE
8
Black
10
72.5336
20
-45.4937
11
72.2775
21
-45.7989
0
LINE
8
Black
10
72.2775
20
-45.7989
11
71.9324
21
-45.9982
0
LINE
8
Black
10
71.9324
20
-45.9982
11
71.54
21
-46.0674
0
LINE
8
Black
10
71.54
20
-46.0674
11
71.1476
21
-45.9982
0
LINE
8
Black
10
71.1476
20
-45.9982
11
70.8025
21
-45.7989
0
LINE
8
Black
10
70.8025
20
-45.7989
11
70.5464
21
-45.4937
0
LINE
8
Black
10
70.5464
20
-45.4937
11
70.4101
21
-45.1192
0
LINE
8
Black
10
70.4101
20
-45.1192
11
70.4101
21
-44.7208
0
LINE
8
Black
10
70.4101
20
-44.7208
11
70.5464
21
-44.3463
0
LINE
8
Black
10
70.5464
20
-44.3463
11
70.8025
21
-44.0411
0
LINE
8
Black
10
70.8025
20
-44.0411
11
71.1476
21
-43.8418
0
LINE
8
Black
10
71.1476
20
-43.8418
11
71.54
21
-43.7726
0
LINE
8
Black
10
71.54
20
-43.7726
11
71.9324
21
-43.8418
0
LINE
8
Black
10
52.9324
20
-43.8418
11
53.2775
21
-44.0411
0
LINE
8
Black
10
53.2775
20
-44.0411
11
53.5336
21
-44.3463
0
LINE
8
Black
10
53.5336
20
-44.3463
11
53.6699
21
-44.7208
0
LINE
8
Black
10
53.6699
20
-44.7208
11
53.6699
21
-45.1192
0
LINE
8
Black
10
53.6699
20
-45.1192
11
53.5336
21
-45.4937
0
LINE
8
Black
10
53.5336
20
-45.4937
11
53.2775
21
-45.7989
0
LINE
8
Black
10
53.2775
20
-45.7989
11
52.9324
21
-45.9982
0
LINE
8
Black
10
52.9324
20
-45.9982
11
52.54
21
-46.0674
0
LINE
8
Black
10
52.54
20
-46.0674
11
52.1476
21
-45.9982
0
LINE
8
Black
10
52.1476
20
-45.9982
11
51.8025
21
-45.7989
0
LINE
8
Black
10
51.8025
20
-45.7989
11
51.5464
21
-45.4937
0
LINE
8
Black
10
51.5464
20
-45.4937
11
51.4101
21
-45.1192
0
LINE
8
Black
10
51.4101
20
-45.1192
11
51.4101
21
-44.7208
0
LINE
8
Black
10
51.4101
20
-44.7208
11
51.5464
21
-44.3463
0
LINE
8
Black
10
51.5464
20
-44.3463
11
51.8025
21
-44.0411
0
LINE
8
Black
10
51.8025
20
-44.0411
11
52.1476
21
-43.8418
0
LINE
8
Black
10
52.1476
20
-43.8418
11
52.54
21
-43.7726
0
LINE
8
Black
10
52.54
20
-43.7726
11
52.9324
21
-43.8418
  0
ENDSEC
  0
EOF
